<svg width="640" height="355" viewBox="0 0 640 355" fill="none" xmlns="http://www.w3.org/2000/svg">
<path d="M553.202 0.513306H198.071C188.213 0.513306 180.221 8.50726 180.221 18.3679V272.52C180.221 282.381 188.213 290.375 198.071 290.375H571.055V18.3679C571.055 8.50726 563.063 0.513306 553.205 0.513306H553.202Z" fill="white"/>
<path d="M571.052 290.89H198.071C187.944 290.89 179.708 282.651 179.708 272.522V18.3679C179.708 8.23896 187.947 0 198.071 0H553.205C563.331 0 571.568 8.24129 571.568 18.3679V290.375C571.568 290.659 571.337 290.888 571.054 290.888L571.052 290.89ZM198.071 1.02899C188.511 1.02899 180.734 8.80829 180.734 18.3702V272.522C180.734 282.084 188.511 289.864 198.071 289.864H570.541V18.3679C570.541 8.80595 562.764 1.02666 553.205 1.02666H198.071V1.02899Z" fill="#303030"/>
<path d="M551.051 283.132H197.793C191.671 283.132 186.687 278.15 186.687 272.023V18.1952C186.687 12.0703 191.668 7.0863 197.793 7.0863H552.472C558.595 7.0863 563.576 12.0703 563.576 18.1952V270.6C563.576 277.509 557.955 283.132 551.046 283.132H551.051ZM197.793 8.1153C192.235 8.1153 187.716 12.6373 187.716 18.1952V272.023C187.716 277.581 192.235 282.103 197.793 282.103H551.049C557.391 282.103 562.55 276.942 562.55 270.6V18.1952C562.55 12.6373 558.03 8.1153 552.472 8.1153H197.793Z" fill="#303030"/>
<path d="M428.393 186.626C471.652 186.626 506.72 151.598 506.72 108.39C506.72 65.181 471.652 30.1534 428.393 30.1534C385.134 30.1534 350.066 65.181 350.066 108.39C350.066 151.598 385.134 186.626 428.393 186.626Z" fill="white"/>
<path d="M317.868 50.8735H168.281V135.123H317.868V50.8735Z" fill="white"/>
<path d="M317.868 135.636H168.281C167.997 135.636 167.768 135.405 167.768 135.123V50.8734C167.768 50.5888 167.999 50.3601 168.281 50.3601H317.868C318.153 50.3601 318.382 50.5911 318.382 50.8734V135.123C318.382 135.407 318.151 135.636 317.868 135.636ZM168.795 134.607H317.355V51.3868H168.795V134.607Z" fill="#303030"/>
<path d="M296.934 52.2688C296.934 52.2688 303.941 43.8875 299.909 40.4085C295.877 36.9296 292.528 41.7922 286.399 40.4085C280.269 39.0249 275.675 37.6132 263.619 52.3598C253.317 64.9597 252.902 74.1414 273.33 74.4774C289.266 74.7387 296.934 52.2688 296.934 52.2688Z" fill="#303030"/>
<path d="M362.757 83.1084C362.404 82.1074 361.427 81.4284 360.402 81.1531C359.378 80.8778 358.295 80.9408 357.236 81.0084C350.5 81.4261 343.761 81.8414 337.025 82.2591C341.523 84.6228 346.575 85.6681 351.615 85.9644C353.71 86.0881 364.248 87.3504 362.757 83.1061V83.1084Z" fill="white"/>
<path d="M356.762 86.7437C355.348 86.7437 353.836 86.6527 352.355 86.5337C352.037 86.508 351.776 86.487 351.585 86.4753C345.877 86.137 340.898 84.8723 336.784 82.7117C336.579 82.6043 336.472 82.3733 336.521 82.1493C336.57 81.9253 336.761 81.7573 336.992 81.7433L357.203 80.4927C358.242 80.4274 359.418 80.355 360.533 80.6537C361.851 81.006 362.862 81.86 363.24 82.9333C363.613 83.9927 363.307 84.709 362.988 85.1267C362.026 86.375 359.595 86.7413 356.76 86.7413L356.762 86.7437ZM339.027 82.6487C342.646 84.2283 346.881 85.1687 351.645 85.451C351.841 85.4627 352.112 85.4837 352.436 85.5093C354.525 85.675 360.881 86.1837 362.176 84.5013C362.332 84.3007 362.509 83.953 362.271 83.2763C361.959 82.3873 361.032 81.853 360.269 81.6477C359.315 81.391 358.274 81.4563 357.269 81.5193L339.029 82.6487H339.027Z" fill="#303030"/>
<path d="M326.04 82.8937C328.578 77.0721 336.862 74.4471 339.739 73.6211C342.615 72.7951 343.01 76.7268 338.453 79.0368C333.896 81.3467 335.378 82.3524 335.378 82.3524C335.378 82.3524 362.687 82.3011 363.979 85.1967C363.979 85.1967 365.687 89.4084 354.914 89.4317C351.865 89.4387 349.111 91.2633 347.931 94.0773C347.597 94.873 347.224 95.755 346.825 96.6907C338.297 96.8213 329.738 94.5953 322.358 90.3184C324.033 87.0867 325.396 84.3707 326.04 82.8914V82.8937Z" fill="white"/>
<path d="M347.091 96.5856C347.023 96.5856 346.955 96.5716 346.89 96.5436C346.629 96.4316 346.507 96.1306 346.619 95.8693C346.972 95.0433 347.098 94.7446 347.35 94.1403L347.459 93.879C348.722 90.8737 351.648 88.9253 354.917 88.9183C360.927 88.9043 362.729 87.5557 363.27 86.7507C363.748 86.039 363.51 85.395 363.508 85.388C362.792 83.7827 348.649 82.8307 335.382 82.8657C335.28 82.8657 335.179 82.8354 335.093 82.777C334.864 82.623 334.61 82.2707 334.64 81.7854C334.701 80.817 335.875 79.7694 338.224 78.5771C340.889 77.2261 341.64 75.3547 341.309 74.5124C341.05 73.8568 340.226 74.0154 339.883 74.1134C332.916 76.1131 328.168 79.3027 326.513 83.0967C326.009 84.254 325.029 86.2513 323.601 89.035C323.473 89.287 323.163 89.3873 322.908 89.2567C322.656 89.1283 322.556 88.818 322.687 88.5637C324.105 85.7987 325.076 83.8224 325.571 82.6837C327.85 77.4547 334.458 74.5988 339.601 73.1241C340.837 72.7671 341.885 73.1661 342.265 74.1368C342.828 75.5694 341.766 77.9331 338.689 79.4941C335.928 80.894 335.688 81.685 335.669 81.8297C335.669 81.832 335.669 81.8344 335.669 81.8367C337.039 81.839 343.105 81.867 349.226 82.1727C363.52 82.8867 364.175 84.3567 364.455 84.9844C364.481 85.0474 364.915 86.1487 364.126 87.3223C362.964 89.0513 359.868 89.9333 354.921 89.945C352.068 89.952 349.513 91.6507 348.411 94.2756L348.302 94.537C348.047 95.1436 347.921 95.4446 347.569 96.2706C347.485 96.4666 347.296 96.5833 347.095 96.5833L347.091 96.5856Z" fill="#303030"/>
<path d="M299.85 119.373C299.64 119.373 299.442 119.242 299.367 119.034C299.272 118.768 299.409 118.472 299.675 118.376C302.954 117.189 304.449 113.463 304.736 110.637C304.981 108.217 304.636 105.725 304.3 103.315C304.169 102.382 304.036 101.416 303.936 100.461C303.773 98.8863 303.754 96.9193 305.082 95.6943C305.289 95.5029 305.616 95.5146 305.807 95.7246C305.999 95.9323 305.987 96.2589 305.777 96.4503C304.785 97.3649 304.818 99.0169 304.958 100.354C305.056 101.29 305.189 102.246 305.317 103.173C305.66 105.641 306.017 108.196 305.758 110.74C305.441 113.864 303.749 117.991 300.025 119.342C299.967 119.363 299.909 119.373 299.85 119.373Z" fill="#303030"/>
<path d="M322.358 90.3183C317.437 99.8172 313.773 107.464 313.773 107.464C313.773 107.464 312.383 102.291 311.393 95.0293C310.054 85.199 303.899 81.7923 300.119 80.6747C274.151 73.0004 255.902 79.1954 254.575 79.669C248.709 81.769 244.177 84.527 241.335 89.378C234.653 100.786 229.013 114.279 224.967 125.194C221.113 135.589 229.055 146.577 240.127 146.138C248.706 145.798 257.785 144.885 263.164 144.008C266.024 143.541 269.002 142.928 271.937 142.26C269.912 135.89 269.354 129.054 270.334 122.443C279.455 122.91 289.497 123.022 296.472 121.762C307.541 147.004 323.604 135.032 330.664 127.67C335.779 122.338 342.219 107.503 346.827 96.6929C338.299 96.8236 329.74 94.5976 322.358 90.3206V90.3183Z" fill="#DB1F35"/>
<path d="M239.506 146.668C234.382 146.668 229.575 144.227 226.547 140.053C223.383 135.692 222.61 130.073 224.484 125.019C229.774 110.751 235.294 98.674 240.892 89.1213C243.505 84.6624 247.67 81.601 254.402 79.1884C255.186 78.9084 273.913 72.3984 300.263 80.1847C304.008 81.2907 310.5 84.6834 311.902 94.9616C312.581 99.9363 313.456 103.961 313.93 105.959C315.178 103.385 318.197 97.2273 321.9 90.0827C321.966 89.9567 322.078 89.8657 322.213 89.826C322.348 89.7887 322.493 89.805 322.614 89.875C329.955 94.1286 338.332 96.294 346.818 96.1773C347.007 96.1633 347.156 96.2613 347.252 96.4036C347.35 96.5483 347.366 96.7326 347.298 96.8913C342.039 109.232 336.01 122.835 331.033 128.025C327.092 132.134 319.261 138.812 311.057 137.353C305.159 136.308 300.149 131.254 296.164 122.336C290.358 123.328 282.045 123.54 270.777 122.98C269.905 129.355 270.472 135.958 272.427 142.104C272.471 142.242 272.455 142.391 272.383 142.515C272.31 142.641 272.191 142.729 272.051 142.76C268.747 143.513 265.868 144.087 263.248 144.514C258.327 145.317 249.276 146.29 240.148 146.652C239.933 146.661 239.721 146.663 239.508 146.666L239.506 146.668ZM274.578 77.3964C262.669 77.3964 255.233 79.9841 254.747 80.1567C248.258 82.4807 244.259 85.4067 241.779 89.6417C236.211 99.1406 230.716 111.164 225.448 125.376C223.693 130.106 224.416 135.368 227.377 139.449C230.329 143.518 235.101 145.835 240.103 145.63C249.189 145.268 258.189 144.302 263.08 143.504C265.534 143.103 268.222 142.573 271.279 141.885C269.366 135.594 268.862 128.86 269.823 122.371C269.863 122.11 270.117 121.928 270.357 121.932C282.045 122.532 290.557 122.31 296.376 121.258C296.614 121.216 296.843 121.34 296.938 121.557C300.802 130.372 305.614 135.347 311.235 136.343C318.965 137.71 326.49 131.275 330.289 127.313C335.051 122.348 340.891 109.272 346.043 97.211C337.816 97.1993 329.726 95.0713 322.565 91.0323C317.826 100.195 314.27 107.613 314.235 107.688C314.142 107.881 313.944 108 313.724 107.977C313.51 107.956 313.33 107.807 313.274 107.599C313.26 107.548 311.865 102.312 310.88 95.1016C309.557 85.395 303.476 82.2077 299.969 81.1717C290.277 78.3064 281.639 77.3964 274.576 77.3964H274.578Z" fill="#303030"/>
<path d="M271.379 119.543C284.056 119.961 298.901 120.861 299.367 122.77C299.909 124.982 298.257 125.586 298.257 125.586C298.257 125.586 300.011 127.36 297.699 129.684C297.699 129.684 298.779 132.192 296.931 133.576C296.931 133.576 297.109 137.066 293.861 137.076C291.352 137.083 282.416 139.992 272.448 142.263C270.124 134.957 269.732 127.033 271.377 119.545L271.379 119.543Z" fill="white"/>
<path d="M273.85 142.33C273.617 142.33 273.407 142.172 273.351 141.936C273.286 141.661 273.456 141.383 273.731 141.318C277.173 140.503 280.505 139.638 283.447 138.872C288.601 137.533 292.323 136.565 293.861 136.562C294.628 136.562 295.233 136.334 295.655 135.89C296.472 135.034 296.418 133.615 296.418 133.601C296.411 133.431 296.488 133.268 296.623 133.165C298.131 132.036 297.237 129.908 297.228 129.887C297.144 129.693 297.188 129.469 297.335 129.322C299.265 127.383 297.949 126.006 297.89 125.95C297.767 125.827 297.715 125.647 297.755 125.477C297.792 125.306 297.916 125.166 298.079 125.106C298.198 125.059 299.279 124.583 298.866 122.894C298.63 122.467 296 120.952 272.371 120.11C272.086 120.101 271.865 119.863 271.876 119.578C271.886 119.3 272.114 119.081 272.39 119.081C272.397 119.081 272.401 119.081 272.408 119.081C299.227 120.035 299.675 121.865 299.867 122.646C300.261 124.256 299.636 125.25 298.996 125.747C299.428 126.51 299.89 128.029 298.294 129.803C298.635 130.848 298.779 132.647 297.447 133.821C297.428 134.378 297.284 135.669 296.409 136.593C295.783 137.251 294.929 137.587 293.865 137.589C292.458 137.594 288.597 138.595 283.709 139.866C280.762 140.632 277.423 141.5 273.972 142.316C273.932 142.326 273.892 142.33 273.853 142.33H273.85Z" fill="#303030"/>
<path d="M297.223 125.759C297.223 125.759 297.2 125.759 297.188 125.759L296.026 125.682C295.744 125.663 295.529 125.418 295.548 125.136C295.566 124.851 295.804 124.646 296.094 124.658L297.256 124.735C297.538 124.753 297.753 124.998 297.734 125.281C297.715 125.551 297.489 125.761 297.221 125.761L297.223 125.759Z" fill="#303030"/>
<path d="M296.756 129.84C296.756 129.84 296.745 129.84 296.738 129.84L295.422 129.796C295.137 129.786 294.915 129.548 294.925 129.266C294.934 128.981 295.186 128.753 295.454 128.769L296.77 128.813C297.055 128.823 297.277 129.061 297.267 129.343C297.258 129.621 297.029 129.84 296.754 129.84H296.756Z" fill="#303030"/>
<path d="M295.52 134.054C295.499 134.054 295.48 134.054 295.459 134.049L294.143 133.895C293.861 133.863 293.66 133.606 293.693 133.324C293.725 133.041 293.977 132.838 294.264 132.873L295.58 133.027C295.863 133.06 296.063 133.317 296.031 133.599C296 133.86 295.779 134.052 295.52 134.052V134.054Z" fill="#303030"/>
<path d="M249.495 120.11C249.248 120.11 249.028 119.93 248.989 119.678C248.944 119.398 249.133 119.135 249.416 119.09C253.938 118.365 268.162 118.666 268.766 118.68C269.051 118.687 269.275 118.92 269.27 119.205C269.263 119.489 269.039 119.695 268.745 119.709C268.598 119.706 254.01 119.394 249.581 120.105C249.553 120.11 249.528 120.112 249.5 120.112L249.495 120.11Z" fill="#303030"/>
<path d="M254.215 119.706C254.162 119.706 254.108 119.699 254.057 119.681C253.786 119.592 253.639 119.303 253.728 119.032L258.635 103.968C258.723 103.697 259.013 103.55 259.283 103.639C259.554 103.728 259.701 104.017 259.612 104.288L254.705 119.352C254.635 119.569 254.432 119.706 254.215 119.706Z" fill="#303030"/>
<path d="M285.181 84.338L293.45 64.1665L280.803 60.7085L269.674 84.198C269.674 84.198 280.213 86.4964 285.183 84.338H285.181Z" fill="white"/>
<path d="M279.21 85.7799C274.592 85.7799 269.856 84.7649 269.562 84.6996C269.408 84.6669 269.279 84.5643 269.209 84.4243C269.139 84.2843 269.139 84.1186 269.207 83.9786L280.337 60.4891C280.442 60.2627 280.694 60.1484 280.936 60.2137L293.583 63.6717C293.725 63.7114 293.844 63.8094 293.91 63.9401C293.975 64.0731 293.98 64.2247 293.924 64.3624L285.654 84.5339C285.603 84.6576 285.507 84.7579 285.384 84.8116C283.715 85.5349 281.475 85.7823 279.207 85.7823L279.21 85.7799ZM270.418 83.8223C272.716 84.2609 280.656 85.5933 284.786 83.9459L292.752 64.5094L281.081 61.3174L270.416 83.8223H270.418Z" fill="#303030"/>
<path d="M278.071 85.6796C273.647 85.6796 268.801 84.9633 264.223 82.819C263.966 82.6977 263.857 82.392 263.976 82.1353C264.097 81.8787 264.4 81.7667 264.659 81.888C277.91 88.097 293.515 81.9393 293.672 81.8763C293.935 81.7713 294.234 81.8973 294.341 82.161C294.446 82.4247 294.32 82.7233 294.057 82.8307C293.949 82.8727 286.837 85.6796 278.073 85.6796H278.071Z" fill="#303030"/>
<path d="M299.552 56.016C300.014 58.7297 300.093 61.6253 298.933 64.1197C297.368 67.4866 293.59 69.5866 289.88 69.4723C286.17 69.3603 282.663 67.1973 280.586 64.1197C278.965 64.7077 277.082 64.5303 275.598 63.6507C274.114 62.771 273.055 61.203 272.793 59.4974C272.551 57.927 273.113 56.1024 274.541 55.4094C275.346 55.0174 276.298 55.043 277.163 55.2717C278.72 55.6824 280.092 56.744 280.88 58.1464C281.947 58.648 283.249 57.8104 283.701 56.7207C284.154 55.631 284.007 54.399 283.9 53.2254C283.792 52.0517 283.755 50.7847 284.378 49.7837C284.954 48.8597 285.99 48.3347 287.005 47.9427C288.643 47.3081 290.365 46.8951 292.113 46.7108C293.179 46.5988 295.212 46.2138 296.203 46.7901C297.272 47.4108 297.783 49.6577 298.17 50.7474C298.782 52.4601 299.244 54.224 299.549 56.016H299.552Z" fill="white"/>
<path d="M290.169 69.9927C290.069 69.9927 289.969 69.9927 289.866 69.988C286.245 69.8783 282.647 67.8717 280.383 64.7264C278.703 65.2164 276.846 64.9877 275.337 64.094C273.713 63.1304 272.574 61.4434 272.285 59.5767C272.033 57.9457 272.562 55.8014 274.315 54.9474C275.372 54.4341 276.517 54.5694 277.294 54.7748C278.937 55.2088 280.362 56.2821 281.235 57.7357C281.545 57.8314 281.846 57.7637 282.056 57.6844C282.556 57.4907 283.015 57.0357 283.228 56.5271C283.606 55.6171 283.505 54.5274 283.407 53.4751L283.389 53.2744C283.27 51.9748 283.256 50.6191 283.944 49.5155C284.623 48.4258 285.839 47.8471 286.823 47.4668C288.499 46.8181 290.263 46.3911 292.064 46.2045C292.225 46.1881 292.407 46.1648 292.605 46.1391C293.816 45.9851 295.475 45.7751 296.467 46.3515C297.51 46.9581 298.044 48.6545 298.436 49.8935C298.518 50.1501 298.59 50.3835 298.66 50.5795C299.281 52.3178 299.752 54.1214 300.06 55.9344C300.646 59.3761 300.431 62.1271 299.402 64.3414C297.839 67.7037 294.073 69.995 290.172 69.9973L290.169 69.9927ZM280.589 63.6064C280.757 63.6064 280.918 63.688 281.016 63.8327C283.078 66.8917 286.483 68.8564 289.899 68.959C293.497 69.0664 297.034 66.9897 298.469 63.9027C299.407 61.8821 299.598 59.3294 299.048 56.1024C298.749 54.3478 298.292 52.6024 297.692 50.9201C297.617 50.7148 297.54 50.4675 297.454 50.1968C297.132 49.1795 296.647 47.6418 295.949 47.2358C295.258 46.8345 293.739 47.0281 292.734 47.1541C292.528 47.1798 292.337 47.2055 292.169 47.2218C290.459 47.4015 288.783 47.8051 287.194 48.4211C286.361 48.7455 285.337 49.2215 284.817 50.0545C284.264 50.9435 284.317 52.1311 284.413 53.1764L284.432 53.3748C284.541 54.5531 284.653 55.7688 284.18 56.9167C283.86 57.6867 283.19 58.3447 282.43 58.6411C281.825 58.8744 281.2 58.8627 280.663 58.6131C280.568 58.5664 280.486 58.4941 280.435 58.4007C279.718 57.1267 278.447 56.1421 277.033 55.7688C276.426 55.6078 275.539 55.4958 274.767 55.8738C273.54 56.4711 273.101 58.1114 273.304 59.4227C273.545 60.9884 274.501 62.4047 275.864 63.2121C277.227 64.0194 278.927 64.178 280.414 63.639C280.472 63.618 280.53 63.6087 280.589 63.6087V63.6064Z" fill="#303030"/>
<path d="M279.735 61.5227C279.536 61.5227 279.347 61.4084 279.263 61.2147C278.883 60.3467 277.791 59.8381 276.883 60.1017C276.606 60.1811 276.326 60.0247 276.246 59.7517C276.167 59.4787 276.323 59.1941 276.596 59.1147C277.999 58.7041 279.618 59.4624 280.206 60.7994C280.32 61.0584 280.201 61.3617 279.942 61.4761C279.875 61.5041 279.805 61.5204 279.737 61.5204L279.735 61.5227Z" fill="#303030"/>
<path d="M388.8 185.717H511.659C524.52 185.717 534.945 196.149 534.945 209.02C534.945 221.89 524.52 232.323 511.659 232.323H388.8C375.939 232.323 365.513 221.89 365.513 209.02C365.513 196.149 375.939 185.717 388.8 185.717Z" fill="white"/>
<path d="M511.659 232.836H388.8C375.677 232.836 365 222.152 365 209.02C365 195.888 375.677 185.201 388.8 185.201H511.659C524.783 185.201 535.458 195.885 535.458 209.017C535.458 222.149 524.781 232.836 511.659 232.836ZM388.8 186.23C376.242 186.23 366.027 196.452 366.027 209.02C366.027 221.587 376.242 231.809 388.8 231.809H511.659C524.216 231.809 534.432 221.587 534.432 209.02C534.432 196.452 524.216 186.23 511.659 186.23H388.8Z" fill="#303030"/>
<path d="M388.8 96.5156H511.659C524.52 96.5156 534.945 106.948 534.945 119.819C534.945 132.689 524.52 143.121 511.659 143.121H388.8C375.939 143.121 365.513 132.689 365.513 119.819C365.513 106.948 375.939 96.5156 388.8 96.5156Z" fill="white"/>
<path d="M511.659 173.635H388.8C375.677 173.635 365 162.95 365 149.819C365 136.687 375.677 126 388.8 126H511.659C524.783 126 535.458 136.684 535.458 149.816C535.458 162.948 524.781 173.635 511.659 173.635ZM388.8 127.029C376.242 127.029 366.027 137.251 366.027 149.819C366.027 162.386 376.242 172.608 388.8 172.608H511.659C524.216 172.608 534.432 162.386 534.432 149.819C534.432 137.251 524.216 127.029 511.659 127.029H388.8Z" fill="#303030"/>
<path d="M388.8 68.5156H511.659C524.52 68.5156 534.945 78.9479 534.945 91.8185C534.945 104.689 524.52 115.121 511.659 115.121H388.8C375.939 115.121 365.513 104.689 365.513 91.8185C365.513 78.9479 375.939 68.5156 388.8 68.5156Z" fill="white"/>
<path d="M511.659 115.635H388.8C375.677 115.635 365 104.95 365 91.8185C365 78.6866 375.677 68 388.8 68H511.659C524.783 68 535.458 78.6843 535.458 91.8162C535.458 104.948 524.781 115.635 511.659 115.635ZM388.8 69.029C376.242 69.029 366.027 79.2513 366.027 91.8185C366.027 104.386 376.242 114.608 388.8 114.608H511.659C524.216 114.608 534.432 104.386 534.432 91.8185C534.432 79.2513 524.216 69.029 511.659 69.029H388.8Z" fill="#60BFE1"/>
<path d="M411.979 203.065H389.129C388.844 203.065 388.616 202.834 388.616 202.552C388.616 202.269 388.847 202.038 389.129 202.038H411.979C412.264 202.038 412.493 202.269 412.493 202.552C412.493 202.834 412.262 203.065 411.979 203.065Z" fill="#303030"/>
<path d="M513.133 203.065H428.203C427.918 203.065 427.689 202.834 427.689 202.552C427.689 202.269 427.92 202.038 428.203 202.038H513.133C513.418 202.038 513.646 202.269 513.646 202.552C513.646 202.834 513.416 203.065 513.133 203.065Z" fill="#303030"/>
<path d="M468.081 213.962H389.127C388.842 213.962 388.613 213.731 388.613 213.448C388.613 213.166 388.844 212.935 389.127 212.935H468.081C468.366 212.935 468.595 213.166 468.595 213.448C468.595 213.731 468.364 213.962 468.081 213.962Z" fill="#303030"/>
<path d="M513.133 213.962H485.859C485.574 213.962 485.346 213.731 485.346 213.448C485.346 213.166 485.577 212.935 485.859 212.935H513.133C513.418 212.935 513.647 213.166 513.647 213.448C513.647 213.731 513.416 213.962 513.133 213.962Z" fill="#303030"/>
<path d="M411.979 143.864H389.129C388.844 143.864 388.616 143.633 388.616 143.35C388.616 143.068 388.847 142.837 389.129 142.837H411.979C412.264 142.837 412.493 143.068 412.493 143.35C412.493 143.633 412.262 143.864 411.979 143.864Z" fill="#303030"/>
<path d="M513.133 143.864H428.203C427.918 143.864 427.689 143.633 427.689 143.351C427.689 143.068 427.92 142.837 428.203 142.837H513.133C513.418 142.837 513.646 143.068 513.646 143.351C513.646 143.633 513.416 143.864 513.133 143.864Z" fill="#303030"/>
<path d="M468.081 154.76H389.127C388.842 154.76 388.613 154.529 388.613 154.247C388.613 153.965 388.844 153.734 389.127 153.734H468.081C468.366 153.734 468.595 153.965 468.595 154.247C468.595 154.529 468.364 154.76 468.081 154.76Z" fill="#303030"/>
<path d="M513.133 154.76H485.859C485.574 154.76 485.346 154.529 485.346 154.247C485.346 153.965 485.577 153.734 485.859 153.734H513.133C513.418 153.734 513.647 153.965 513.647 154.247C513.647 154.529 513.416 154.76 513.133 154.76Z" fill="#303030"/>
<path d="M411.979 85.8638H389.129C388.844 85.8638 388.616 85.6328 388.616 85.3504C388.616 85.0681 388.847 84.8371 389.129 84.8371H411.979C412.264 84.8371 412.493 85.0681 412.493 85.3504C412.493 85.6328 412.262 85.8638 411.979 85.8638Z" fill="#60BFE1"/>
<path d="M513.133 85.8639H428.203C427.918 85.8639 427.689 85.6329 427.689 85.3506C427.689 85.0682 427.92 84.8372 428.203 84.8372H513.133C513.418 84.8372 513.646 85.0682 513.646 85.3506C513.646 85.6329 513.416 85.8639 513.133 85.8639Z" fill="#60BFE1"/>
<path d="M468.081 96.7605H389.127C388.842 96.7605 388.613 96.5295 388.613 96.2472C388.613 95.9648 388.844 95.7338 389.127 95.7338H468.081C468.366 95.7338 468.595 95.9648 468.595 96.2472C468.595 96.5295 468.364 96.7605 468.081 96.7605Z" fill="#60BFE1"/>
<path d="M513.133 96.7605H485.859C485.574 96.7605 485.346 96.5295 485.346 96.2472C485.346 95.9648 485.577 95.7338 485.859 95.7338H513.133C513.418 95.7338 513.647 95.9648 513.647 96.2472C513.647 96.5295 513.416 96.7605 513.133 96.7605Z" fill="#60BFE1"/>
<path d="M542.985 60.5053C547.652 60.5053 551.436 56.7205 551.436 52.0517C551.436 47.3829 547.652 43.5981 542.985 43.5981C538.317 43.5981 534.533 47.3829 534.533 52.0517C534.533 56.7205 538.317 60.5053 542.985 60.5053Z" fill="white"/>
<path d="M542.985 61.0187C538.04 61.0187 534.02 56.996 534.02 52.0517C534.02 47.1074 538.043 43.0848 542.985 43.0848C547.927 43.0848 551.949 47.1074 551.949 52.0517C551.949 56.996 547.929 61.0187 542.985 61.0187ZM542.985 44.1114C538.607 44.1114 535.047 47.6721 535.047 52.0517C535.047 56.4314 538.607 59.9897 542.985 59.9897C547.362 59.9897 550.92 56.429 550.92 52.0517C550.92 47.6744 547.36 44.1114 542.985 44.1114Z" fill="#303030"/>
<path d="M567.648 60.5054C572.315 60.5054 576.099 56.7206 576.099 52.0518C576.099 47.383 572.315 43.5981 567.648 43.5981C562.98 43.5981 559.197 47.383 559.197 52.0518C559.197 56.7206 562.98 60.5054 567.648 60.5054Z" fill="white"/>
<path d="M567.648 61.0187C562.704 61.0187 558.683 56.996 558.683 52.0517C558.683 47.1074 562.706 43.0848 567.648 43.0848C572.59 43.0848 576.613 47.1074 576.613 52.0517C576.613 56.996 572.592 61.0187 567.648 61.0187ZM567.648 44.1114C563.271 44.1114 559.71 47.6721 559.71 52.0517C559.71 56.4314 563.271 59.9897 567.648 59.9897C572.025 59.9897 575.584 56.429 575.584 52.0517C575.584 47.6744 572.023 44.1114 567.648 44.1114Z" fill="#303030"/>
<path d="M592.309 60.5054C596.976 60.5054 600.76 56.7206 600.76 52.0518C600.76 47.383 596.976 43.5981 592.309 43.5981C587.641 43.5981 583.857 47.383 583.857 52.0518C583.857 56.7206 587.641 60.5054 592.309 60.5054Z" fill="white"/>
<path d="M592.309 61.0187C587.364 61.0187 583.344 56.996 583.344 52.0517C583.344 47.1074 587.364 43.0848 592.309 43.0848C597.253 43.0848 601.273 47.1074 601.273 52.0517C601.273 56.996 597.251 61.0187 592.309 61.0187ZM592.309 44.1114C587.934 44.1114 584.373 47.6721 584.373 52.0517C584.373 56.4314 587.934 59.9897 592.309 59.9897C596.684 59.9897 600.247 56.429 600.247 52.0517C600.247 47.6744 596.686 44.1114 592.309 44.1114Z" fill="#303030"/>
<path d="M523.312 52.5651H465.045C464.76 52.5651 464.531 52.3341 464.531 52.0517C464.531 51.7694 464.762 51.5384 465.045 51.5384H523.312C523.597 51.5384 523.826 51.7694 523.826 52.0517C523.826 52.3341 523.595 52.5651 523.312 52.5651Z" fill="#303030"/>
<path d="M180.821 425.787H113.941C104.99 425.787 98.8301 416.792 102.059 408.438L139.647 311.211H208.984L171.501 408.17L183.1 420.516C184.976 422.513 183.562 425.787 180.823 425.787H180.821Z" fill="white"/>
<path d="M180.821 426.3H113.941C109.57 426.3 105.485 424.146 103.011 420.539C100.536 416.929 100.001 412.335 101.579 408.252L139.166 311.025C139.243 310.826 139.432 310.696 139.645 310.696H208.981C209.152 310.696 209.31 310.78 209.406 310.92C209.502 311.06 209.523 311.237 209.462 311.396L172.094 408.053L183.471 420.163C184.482 421.239 184.745 422.749 184.16 424.104C183.574 425.458 182.293 426.3 180.818 426.3H180.821ZM139.999 311.722L102.538 408.62C101.061 412.445 101.541 416.577 103.858 419.956C106.173 423.332 109.848 425.269 113.941 425.269H180.821C181.878 425.269 182.797 424.664 183.217 423.694C183.637 422.721 183.448 421.636 182.722 420.863L171.123 408.518C170.988 408.373 170.946 408.165 171.018 407.981L208.232 311.72H139.997L139.999 311.722Z" fill="#303030"/>
<path d="M158.372 318.823C162.91 313.022 167.63 307.368 172.416 301.771C177.218 296.152 182.083 290.589 186.897 284.982C187.893 283.823 188.885 282.658 189.876 281.492C185.688 280.453 181.339 279.903 176.898 279.903H46.7901L40.0071 299.608C34.9345 314.343 45.8731 329.691 61.4456 329.691H150.261C152.874 326.002 155.588 322.386 158.372 318.825V318.823Z" fill="white"/>
<path d="M150.261 330.202H61.4456C53.86 330.202 46.9791 326.658 42.5714 320.479C38.1591 314.294 37.0461 306.624 39.5194 299.437L46.3024 279.732C46.3747 279.525 46.5684 279.385 46.7877 279.385H176.894C181.287 279.385 185.697 279.924 189.995 280.99C190.271 281.058 190.439 281.338 190.371 281.613C190.303 281.888 190.019 282.054 189.748 281.989C185.529 280.943 181.206 280.414 176.894 280.414H47.1564L40.4924 299.771C38.1288 306.638 39.1904 313.969 43.4091 319.882C47.6207 325.788 54.196 329.173 61.4456 329.173H150.261C150.546 329.173 150.774 329.404 150.774 329.686C150.774 329.969 150.543 330.2 150.261 330.2V330.202Z" fill="#303030"/>
<path d="M148.381 216.026L147.564 205.64L123.031 200.362L87.6745 271.606L130.904 270.143L148.381 216.026Z" fill="white"/>
<path d="M120.194 275.066L147.681 205.349C147.681 205.349 188.236 227.144 173.734 275.066H120.194Z" fill="#60BFE1"/>
<path d="M146.323 265.299C146.26 265.299 146.197 265.287 146.134 265.264C145.87 265.159 145.739 264.86 145.844 264.596L158.428 232.679C158.533 232.415 158.829 232.287 159.095 232.39C159.359 232.495 159.489 232.793 159.384 233.057L146.801 264.974C146.722 265.175 146.528 265.299 146.323 265.299Z" fill="#303030"/>
<path d="M123.031 200.362L78.0122 314.548L47.6021 312.415C40.3664 311.909 35.3335 304.995 37.0765 297.949C38.6491 291.588 41.0058 283.806 44.3844 276.475C49.4244 265.537 62.022 240.766 72.2116 222.377C81.9812 204.747 102.232 195.427 121.837 200.064C122.236 200.157 122.632 200.257 123.031 200.36V200.362Z" fill="#60BFE1"/>
<path d="M95.1178 248.527L107.267 218.76L74.0339 229.263L64.199 254.372C60.286 264.358 67.5986 275.166 78.3156 275.241C93.9488 275.348 113.39 275.465 128.158 275.448C129.728 265.009 134.523 254.556 137.33 249.103C115.777 248.79 95.1178 248.529 95.1178 248.529V248.527Z" fill="#60BFE1"/>
<path d="M102.794 249.04H95.1178C94.9474 249.04 94.7864 248.954 94.6908 248.814C94.5951 248.674 94.5764 248.492 94.6418 248.333L106.791 218.567C106.899 218.303 107.2 218.179 107.461 218.284C107.725 218.392 107.851 218.69 107.743 218.954L95.8831 248.013H102.797C103.081 248.013 103.31 248.244 103.31 248.527C103.31 248.809 103.079 249.04 102.797 249.04H102.794Z" fill="#303030"/>
<path d="M125.435 275.962C110.497 275.962 91.5641 275.843 78.3109 275.752C73.0329 275.714 68.3079 273.187 65.3493 268.815C62.428 264.503 61.819 259.031 63.7206 254.183L73.5579 229.074C73.6629 228.81 73.9616 228.679 74.2229 228.782C74.4866 228.885 74.6172 229.183 74.5146 229.447L64.6773 254.556C62.8736 259.157 63.429 264.146 66.2009 268.238C68.9683 272.326 73.3852 274.69 78.3202 274.723C92.3901 274.821 112.87 274.949 128.158 274.93C128.442 274.93 128.671 275.161 128.671 275.444C128.671 275.728 128.442 275.957 128.158 275.957C127.269 275.957 126.359 275.957 125.435 275.957V275.962Z" fill="#303030"/>
<path d="M169.124 249.672C162.751 249.495 150.336 249.29 137.33 249.101C134.523 254.554 129.726 265.007 128.158 275.446C140.279 275.432 149.253 275.332 150.385 275.063C154.034 274.2 153.962 270.086 153.962 270.086C159.298 269.064 156.337 264.783 156.337 264.783C164.462 260.347 157.287 257.309 157.287 257.309L169.432 255.706C170.783 255.529 171.847 254.47 172.036 253.121C172.285 251.331 170.93 249.719 169.124 249.67V249.672Z" fill="white"/>
<path d="M87.6745 249.53C87.3992 249.53 87.1728 249.313 87.1612 249.035C87.1495 248.751 87.3712 248.513 87.6535 248.501L92.9455 248.296C93.2255 248.277 93.4681 248.506 93.4798 248.788C93.4915 249.073 93.2698 249.311 92.9875 249.322L87.6955 249.528C87.6955 249.528 87.6815 249.528 87.6745 249.528V249.53Z" fill="#303030"/>
<path d="M158.304 169.819C158.304 169.819 166.107 161.736 159.811 153.901C152.947 145.357 146.25 156.414 142.398 155.744C138.548 155.075 132.934 155.621 130.008 161.944C125.822 170.993 135.095 181.812 135.095 181.812L158.306 169.819H158.304Z" fill="#303030"/>
<path d="M146.474 205.234L144.234 204.229L149.626 191.108C149.626 191.108 151.659 173.646 135.092 181.81L125.995 200.96L124.464 200.649C124.464 200.649 135.218 217.379 146.472 205.232L146.474 205.234Z" fill="white"/>
<path d="M137.82 210.16C132.33 210.16 127.766 205.598 125.717 203.16C125.535 202.943 125.563 202.619 125.78 202.437C125.997 202.255 126.324 202.283 126.503 202.5C129.677 206.28 136.037 211.959 142.988 207.535C143.229 207.383 143.546 207.453 143.697 207.694C143.849 207.934 143.779 208.251 143.539 208.403C141.57 209.656 139.642 210.16 137.815 210.16H137.82Z" fill="#303030"/>
<path d="M146.474 205.748C146.404 205.748 146.332 205.734 146.264 205.703L144.024 204.698C143.77 204.583 143.653 204.289 143.758 204.033L149.122 190.98C149.192 190.243 149.708 183.67 146.136 181.15C143.828 179.523 140.244 179.873 135.48 182.19L126.459 201.179C126.359 201.391 126.123 201.506 125.892 201.464L123.939 201.069C123.661 201.013 123.482 200.743 123.538 200.463C123.594 200.185 123.862 200.003 124.144 200.061L125.703 200.376L134.628 181.588C134.677 181.483 134.761 181.399 134.866 181.348C140.076 178.781 144.066 178.431 146.731 180.312C150.998 183.322 150.175 190.847 150.137 191.167C150.133 191.213 150.121 191.26 150.102 191.302L144.899 203.963L146.684 204.763C146.943 204.88 147.06 205.183 146.943 205.442C146.857 205.633 146.67 205.745 146.474 205.745V205.748Z" fill="#303030"/>
<path d="M140.725 184.33C142.09 186.563 143.933 188.544 146.227 189.799C148.521 191.055 151.288 191.533 153.805 190.828C158.019 189.648 160.789 185.385 161.508 181.066C162.229 176.747 160.948 171.072 159.977 166.802C159.977 166.802 157.448 161.881 152.298 160.509C152.874 170.083 135.571 165.701 141.952 178.282C141.952 178.282 138.422 175.155 136.579 175.657C134.586 176.198 133.174 178.301 133.387 180.354C133.599 182.41 135.295 184.178 137.311 184.619C138.45 184.867 139.533 184.981 140.725 184.33Z" fill="white"/>
<path d="M151.376 191.668C149.563 191.668 147.688 191.185 145.98 190.25C143.898 189.111 142.022 187.298 140.534 184.99C139.302 185.506 138.177 185.331 137.202 185.121C134.924 184.624 133.104 182.643 132.873 180.408C132.635 178.074 134.203 175.771 136.443 175.162C137.678 174.826 139.397 175.76 140.66 176.63C139.955 174.717 139.836 173.123 140.3 171.795C141.112 169.462 143.562 168.333 145.931 167.241C149.062 165.797 152.02 164.434 151.785 160.542C151.775 160.376 151.845 160.218 151.971 160.113C152.1 160.008 152.27 159.97 152.429 160.015C157.739 161.431 160.325 166.361 160.432 166.569C160.451 166.606 160.467 166.648 160.476 166.69C161.438 170.916 162.756 176.705 162.014 181.152C161.174 186.194 158.005 190.189 153.943 191.325C153.119 191.556 152.254 191.671 151.376 191.671V191.668ZM140.725 183.817C140.898 183.817 141.068 183.905 141.164 184.062C142.594 186.402 144.43 188.231 146.474 189.349C148.779 190.609 151.402 190.971 153.668 190.334C157.854 189.162 160.367 184.792 161.001 180.982C161.706 176.758 160.432 171.121 159.492 166.984C159.216 166.485 156.981 162.63 152.823 161.205C152.699 165.251 149.342 166.798 146.362 168.172C144.087 169.219 141.941 170.209 141.271 172.129C140.76 173.594 141.133 175.531 142.41 178.049C142.522 178.268 142.461 178.536 142.265 178.688C142.069 178.84 141.796 178.83 141.609 178.667C140.324 177.528 137.848 175.841 136.712 176.152C134.971 176.625 133.709 178.485 133.895 180.3C134.082 182.106 135.564 183.709 137.419 184.115C138.606 184.374 139.486 184.419 140.475 183.877C140.552 183.833 140.639 183.814 140.72 183.814L140.725 183.817Z" fill="#303030"/>
<path d="M139.871 182.141C139.782 182.141 139.689 182.118 139.607 182.069C138.686 181.516 137.864 180.823 137.162 180.009C136.975 179.794 137.001 179.47 137.216 179.283C137.43 179.096 137.755 179.12 137.941 179.337C138.571 180.067 139.311 180.69 140.137 181.187C140.38 181.334 140.459 181.649 140.312 181.892C140.216 182.053 140.046 182.141 139.871 182.141Z" fill="#303030"/>
<path d="M111.885 369.012C111.691 369.012 111.505 368.9 111.418 368.714L96.5225 336.325C96.4035 336.066 96.5155 335.762 96.7745 335.643C97.0335 335.524 97.3368 335.636 97.4558 335.895L112.352 368.284C112.471 368.543 112.359 368.847 112.1 368.966C112.03 368.998 111.957 369.012 111.885 369.012Z" fill="#303030"/>
<path d="M6.43297 416.983C6.36063 416.983 6.2883 416.969 6.2183 416.936C5.96164 416.817 5.8473 416.512 5.9663 416.255L42.9261 335.895C43.0451 335.636 43.3484 335.524 43.6074 335.643C43.8664 335.762 43.9784 336.068 43.8594 336.325L6.90196 416.684C6.81563 416.873 6.62897 416.983 6.4353 416.983H6.43297Z" fill="#303030"/>
<path d="M34.8878 339.262H105.494C109.261 339.262 112.314 336.209 112.314 332.442V332.204C112.314 328.437 109.261 325.384 105.494 325.384H34.8878C31.1211 325.384 28.0675 328.437 28.0675 332.204V332.442C28.0675 336.209 31.1211 339.262 34.8878 339.262Z" fill="white"/>
<path d="M105.494 339.776H34.8878C30.8442 339.776 27.5518 336.486 27.5518 332.442V332.206C27.5518 328.163 30.8418 324.87 34.8878 324.87H105.492C109.535 324.87 112.828 328.16 112.828 332.206V332.442C112.828 336.486 109.538 339.778 105.492 339.778L105.494 339.776ZM34.8901 325.897C31.4135 325.897 28.5832 328.727 28.5832 332.204V332.44C28.5832 335.916 31.4135 338.747 34.8901 338.747H105.494C108.971 338.747 111.801 335.916 111.801 332.44V332.204C111.801 328.727 108.971 325.897 105.494 325.897H34.8878H34.8901Z" fill="#303030"/>
<path d="M323.713 275.92H75.9309V282.985H323.713V275.92Z" fill="#303030"/>
<path d="M366.775 417.146C366.581 417.146 366.394 417.034 366.308 416.848L305.663 284.989C305.544 284.73 305.656 284.427 305.915 284.308C306.174 284.189 306.479 284.303 306.596 284.56L367.241 416.418C367.36 416.677 367.248 416.981 366.989 417.1C366.919 417.132 366.847 417.146 366.775 417.146Z" fill="#303030"/>
<path d="M53.8996 417.146C53.8273 417.146 53.755 417.132 53.685 417.1C53.426 416.981 53.314 416.675 53.433 416.418L114.078 284.56C114.197 284.303 114.501 284.189 114.76 284.308C115.019 284.427 115.131 284.733 115.012 284.989L54.3663 416.848C54.28 417.037 54.0933 417.146 53.8996 417.146Z" fill="#303030"/>
<path d="M232.177 318.781L198.143 417.72C196.666 422.011 199.854 426.482 204.39 426.482H247.106L280.075 324.997L232.177 318.781Z" fill="white"/>
<path d="M247.106 426.998H204.39C202.061 426.998 199.949 425.91 198.596 424.013C197.24 422.114 196.9 419.76 197.658 417.555L231.692 318.615C231.771 318.384 231.997 318.237 232.245 318.272L280.143 324.488C280.295 324.507 280.43 324.593 280.512 324.724C280.593 324.852 280.614 325.011 280.565 325.158L247.596 426.643C247.528 426.855 247.33 426.998 247.108 426.998H247.106ZM232.527 319.345L198.629 417.888C197.98 419.776 198.272 421.792 199.431 423.416C200.589 425.038 202.397 425.969 204.39 425.969H246.732L279.394 325.426L232.527 319.343V319.345Z" fill="#303030"/>
<path d="M150.366 283.106L142.571 303.32C137.141 317.397 147.578 332.526 162.656 332.435C198.377 332.218 251.817 332.003 251.817 332.652C251.817 333.476 228.327 400.223 221.14 420.625C220.132 423.486 222.256 426.482 225.287 426.482H296.175C298.544 426.482 299.521 423.446 297.601 422.06L280.071 409.418C280.071 409.418 299.505 369.47 313.157 330.706C321.343 307.462 304.057 283.104 279.429 283.104H150.364L150.366 283.106Z" fill="white"/>
<path d="M296.178 426.998H225.289C223.674 426.998 222.214 426.242 221.28 424.926C220.347 423.61 220.121 421.979 220.657 420.457C234.622 380.812 249.593 338.112 251.175 333.051C246.9 332.673 215.006 332.636 162.658 332.953C162.614 332.953 162.569 332.953 162.525 332.953C155.329 332.953 148.6 329.425 144.505 323.494C140.38 317.521 139.477 309.912 142.09 303.136L149.885 282.922C149.962 282.724 150.151 282.593 150.364 282.593H279.429C291.348 282.593 302.137 288.177 309.032 297.911C315.918 307.634 317.598 319.651 313.643 330.879C300.851 367.199 282.763 405.02 280.722 409.257L297.902 421.647C298.961 422.413 299.386 423.71 298.985 424.954C298.583 426.197 297.48 427 296.175 427L296.178 426.998ZM220.188 331.705C251.604 331.705 251.954 332.057 252.176 332.279C252.274 332.375 252.335 332.517 252.335 332.655C252.335 333.464 235.637 381.034 221.63 420.798C221.206 422.002 221.385 423.29 222.123 424.333C222.86 425.376 224.015 425.971 225.291 425.971H296.18C297.214 425.971 297.804 425.283 298.012 424.636C298.219 423.99 298.145 423.085 297.305 422.48L279.774 409.838C279.571 409.691 279.504 409.421 279.613 409.197C279.807 408.798 299.192 368.83 312.677 330.538C316.52 319.628 314.886 307.954 308.197 298.506C301.5 289.047 291.016 283.622 279.434 283.622H150.721L143.054 303.507C140.527 310.061 141.367 317.133 145.357 322.911C149.316 328.644 155.567 331.924 162.523 331.924C162.567 331.924 162.611 331.924 162.656 331.924C188.684 331.768 207.127 331.705 220.188 331.705Z" fill="#303030"/>
<path d="M272.833 333.303H254.897C254.612 333.303 254.383 333.072 254.383 332.79C254.383 332.507 254.614 332.276 254.897 332.276H272.833C273.118 332.276 273.346 332.507 273.346 332.79C273.346 333.072 273.115 333.303 272.833 333.303Z" fill="#303030"/>
<path d="M241.982 416.983C241.788 416.983 241.601 416.871 241.515 416.684L204.555 336.325C204.436 336.066 204.548 335.763 204.807 335.644C205.066 335.525 205.372 335.637 205.489 335.896L242.448 416.255C242.567 416.514 242.455 416.817 242.196 416.936C242.126 416.969 242.054 416.983 241.982 416.983Z" fill="#303030"/>
<path d="M114.468 416.983C114.396 416.983 114.323 416.969 114.253 416.936C113.994 416.817 113.882 416.512 114.001 416.255L150.961 335.896C151.08 335.637 151.384 335.525 151.643 335.644C151.902 335.763 152.014 336.068 151.895 336.325L114.935 416.684C114.848 416.873 114.662 416.983 114.468 416.983Z" fill="#303030"/>
<path d="M142.923 339.263H213.529C217.296 339.263 220.349 336.209 220.349 332.442V332.204C220.349 328.437 217.296 325.384 213.529 325.384H142.923C139.156 325.384 136.103 328.437 136.103 332.204V332.442C136.103 336.209 139.156 339.263 142.923 339.263Z" fill="white"/>
<path d="M213.527 339.776H142.923C138.879 339.776 135.587 336.486 135.587 332.442V332.207C135.587 328.163 138.877 324.871 142.923 324.871H213.527C217.571 324.871 220.863 328.161 220.863 332.207V332.442C220.863 336.486 217.573 339.776 213.527 339.776ZM142.923 325.897C139.446 325.897 136.616 328.728 136.616 332.204V332.44C136.616 335.917 139.446 338.747 142.923 338.747H213.527C217.004 338.747 219.834 335.917 219.834 332.44V332.204C219.834 328.728 217.004 325.897 213.527 325.897H142.923Z" fill="#303030"/>
<path d="M313.349 256.859L319.588 268.819L308.012 261.787L253.506 202.53C251.863 200.742 251.726 198.192 253.198 196.83C254.673 195.469 257.2 195.815 258.842 197.602L313.349 256.859Z" fill="white"/>
<path d="M319.588 269.333C319.497 269.333 319.404 269.307 319.322 269.258L307.746 262.226C307.704 262.2 307.667 262.17 307.634 262.134L253.128 202.878C251.294 200.885 251.17 198.003 252.85 196.454C253.569 195.789 254.544 195.441 255.599 195.49C256.917 195.544 258.238 196.188 259.223 197.257L313.729 256.514C313.759 256.546 313.785 256.584 313.806 256.623L320.045 268.584C320.153 268.789 320.111 269.039 319.94 269.197C319.842 269.288 319.716 269.337 319.588 269.337V269.333ZM308.341 261.386L318.279 267.422L312.924 257.155L258.462 197.947C257.664 197.079 256.602 196.557 255.555 196.512C254.768 196.477 254.071 196.72 253.546 197.205C252.281 198.372 252.433 200.603 253.884 202.18L308.341 261.383V261.386Z" fill="#303030"/>
<path d="M314.184 265.536L319.588 268.819L316.676 263.236L314.184 265.536Z" fill="#303030"/>
<path d="M263.49 202.654L258.201 207.539C257.774 207.934 257.109 207.906 256.717 207.479L256.574 207.325C256.18 206.898 256.208 206.23 256.635 205.838L261.925 200.953C262.352 200.558 263.017 200.586 263.409 201.013L263.551 201.167C263.945 201.594 263.917 202.262 263.49 202.654Z" fill="white"/>
<path d="M257.489 208.33C257.468 208.33 257.447 208.33 257.424 208.33C257.006 208.314 256.619 208.134 256.336 207.826L256.194 207.672C255.611 207.038 255.65 206.046 256.285 205.46L261.575 200.574C261.883 200.29 262.282 200.15 262.699 200.162C263.117 200.18 263.502 200.357 263.787 200.665L263.929 200.819C264.512 201.456 264.473 202.448 263.838 203.034L258.548 207.92C258.257 208.188 257.883 208.335 257.489 208.335V208.33ZM262.634 201.186C262.499 201.186 262.373 201.237 262.272 201.328L256.983 206.214C256.763 206.415 256.752 206.758 256.952 206.977L257.095 207.131C257.193 207.236 257.323 207.297 257.468 207.304C257.608 207.306 257.748 207.259 257.853 207.161L263.143 202.275C263.362 202.075 263.376 201.732 263.173 201.512L263.031 201.358C262.933 201.253 262.802 201.19 262.657 201.186C262.65 201.186 262.643 201.186 262.634 201.186Z" fill="#303030"/>
<path d="M265.077 204.378L259.787 209.264C259.36 209.658 258.695 209.63 258.303 209.203L258.161 209.049C257.767 208.622 257.795 207.955 258.222 207.563L263.511 202.677C263.938 202.282 264.603 202.31 264.995 202.737L265.138 202.891C265.532 203.318 265.504 203.986 265.077 204.378Z" fill="white"/>
<path d="M259.076 210.055C259.055 210.055 259.031 210.055 259.01 210.055C258.593 210.038 258.205 209.859 257.923 209.551L257.781 209.394C257.197 208.76 257.237 207.768 257.872 207.182L263.161 202.296C263.469 202.012 263.868 201.876 264.286 201.883C264.704 201.902 265.089 202.079 265.373 202.387L265.516 202.541C266.101 203.176 266.059 204.17 265.427 204.756L260.137 209.642C259.846 209.91 259.472 210.057 259.078 210.057L259.076 210.055ZM264.221 202.91C264.085 202.91 263.959 202.961 263.859 203.052L258.569 207.938C258.35 208.139 258.336 208.482 258.539 208.701L258.681 208.855C258.779 208.96 258.912 209.021 259.055 209.028C259.195 209.028 259.335 208.984 259.44 208.886L264.729 204C264.949 203.799 264.96 203.456 264.76 203.237L264.617 203.083C264.519 202.978 264.389 202.915 264.244 202.91C264.237 202.91 264.23 202.91 264.221 202.91Z" fill="#303030"/>
<path d="M308.344 261.864C308.099 261.864 307.882 261.689 307.837 261.439C307.728 260.807 307.914 260.212 308.353 259.808C308.792 259.405 309.396 259.267 310.017 259.428C310.292 259.5 310.455 259.78 310.383 260.056C310.311 260.331 310.028 260.492 309.755 260.422C309.482 260.35 309.223 260.401 309.048 260.562C308.871 260.723 308.799 260.977 308.848 261.26C308.897 261.54 308.71 261.806 308.43 261.855C308.4 261.859 308.369 261.862 308.341 261.862L308.344 261.864Z" fill="#303030"/>
<path d="M309.902 260.427C309.657 260.427 309.44 260.252 309.396 260.002C309.286 259.37 309.473 258.775 309.912 258.371C310.35 257.967 310.955 257.83 311.575 257.991C311.851 258.063 312.014 258.343 311.942 258.618C311.869 258.894 311.589 259.055 311.314 258.985C311.041 258.912 310.782 258.964 310.607 259.125C310.43 259.286 310.357 259.54 310.406 259.822C310.455 260.102 310.269 260.368 309.989 260.417C309.958 260.422 309.928 260.424 309.9 260.424L309.902 260.427Z" fill="#303030"/>
<path d="M311.459 258.987C311.214 258.987 310.997 258.812 310.952 258.562C310.843 257.93 311.029 257.335 311.468 256.931C311.907 256.528 312.511 256.39 313.132 256.551C313.407 256.623 313.57 256.903 313.498 257.179C313.426 257.454 313.146 257.615 312.87 257.545C312.597 257.473 312.338 257.524 312.163 257.685C311.988 257.846 311.914 258.1 311.963 258.383C312.012 258.663 311.825 258.929 311.545 258.978C311.515 258.982 311.484 258.985 311.456 258.985L311.459 258.987Z" fill="#303030"/>
<path d="M274.28 230.327C282.887 225.828 292.479 221.194 301.911 223.499C302.97 223.758 304.193 224.311 304.319 225.396C304.496 226.89 302.559 227.608 301.068 227.797C298.618 228.11 296.168 228.423 293.721 228.735L293.333 228.831C295.132 229.636 296.971 230.632 297.995 232.317C299.02 234.004 298.856 236.554 297.172 237.579C298.301 238.65 298.824 240.323 298.504 241.846C298.182 243.37 297.029 244.691 295.562 245.213C296.255 246.144 296.045 247.493 295.475 248.503C294.551 250.146 292.75 251.257 290.867 251.343C289.059 251.427 287.241 250.559 286.151 249.117C286.175 249.07 286.203 249.024 286.226 248.975L286.018 248.937C286.06 248.998 286.107 249.056 286.151 249.115C284.21 252.913 281.739 256.439 278.827 259.556C278.204 260.224 277.555 260.868 276.897 261.502L262.991 237.345C266.65 234.755 270.36 232.371 274.277 230.324L274.28 230.327Z" fill="white"/>
<path d="M276.9 262.018C276.764 262.018 276.631 261.964 276.529 261.859C276.33 261.654 276.337 261.329 276.543 261.134C277.303 260.401 277.912 259.787 278.454 259.206C281.263 256.201 283.65 252.82 285.554 249.154C285.479 248.996 285.491 248.809 285.587 248.657C285.699 248.482 285.904 248.394 286.109 248.431L286.317 248.468C286.476 248.496 286.613 248.599 286.686 248.746C286.73 248.835 286.746 248.933 286.737 249.026C287.745 250.216 289.285 250.909 290.844 250.83C292.547 250.75 294.19 249.738 295.025 248.251C295.452 247.491 295.741 246.317 295.146 245.519C295.048 245.388 295.02 245.218 295.067 245.062C295.114 244.905 295.233 244.782 295.387 244.726C296.689 244.264 297.713 243.09 297.998 241.739C298.282 240.386 297.818 238.899 296.815 237.95C296.698 237.84 296.64 237.681 296.656 237.523C296.672 237.364 296.763 237.222 296.901 237.138C298.329 236.27 298.422 234.018 297.552 232.583C296.6 231.013 294.859 230.077 293.119 229.298C292.918 229.207 292.797 229.001 292.818 228.784C292.836 228.565 292.993 228.383 293.205 228.332L293.592 228.236C293.611 228.231 293.632 228.227 293.653 228.224L301.001 227.286C302.107 227.146 303.941 226.6 303.805 225.455C303.703 224.591 302.496 224.171 301.785 223.996C292.792 221.798 283.753 225.952 274.513 230.779C270.971 232.63 267.403 234.851 263.285 237.765C263.052 237.929 262.732 237.875 262.569 237.644C262.405 237.413 262.459 237.091 262.69 236.928C266.846 233.985 270.45 231.743 274.034 229.869C283.456 224.946 292.685 220.716 302.025 222.998C303.7 223.408 304.692 224.237 304.823 225.333C305.037 227.151 302.965 228.07 301.127 228.304L295.027 229.081C296.378 229.806 297.62 230.716 298.427 232.046C299.449 233.729 299.433 236.284 297.928 237.642C298.896 238.822 299.314 240.451 298.999 241.947C298.684 243.442 297.643 244.765 296.283 245.454C296.745 246.562 296.411 247.873 295.916 248.751C294.911 250.54 292.934 251.758 290.886 251.854C289.173 251.933 287.46 251.243 286.252 250.02C284.338 253.616 281.968 256.938 279.196 259.906C278.64 260.499 278.022 261.124 277.247 261.871C277.147 261.967 277.019 262.016 276.89 262.016L276.9 262.018Z" fill="#303030"/>
<path d="M296.208 237.439C296.103 237.439 295.998 237.406 295.907 237.341C294.463 236.295 292.888 235.432 291.229 234.776C290.965 234.671 290.834 234.373 290.939 234.109C291.044 233.843 291.343 233.715 291.607 233.82C293.345 234.506 294.995 235.411 296.511 236.508C296.742 236.673 296.791 236.995 296.626 237.226C296.525 237.364 296.369 237.439 296.208 237.439Z" fill="#303030"/>
<path d="M294.82 245.449C294.703 245.449 294.584 245.409 294.488 245.328C293.399 244.404 292.19 243.627 290.897 243.022C290.641 242.901 290.531 242.595 290.65 242.339C290.771 242.082 291.075 241.97 291.334 242.091C292.71 242.735 293.994 243.561 295.153 244.544C295.37 244.728 295.396 245.052 295.214 245.267C295.111 245.386 294.967 245.449 294.822 245.449H294.82Z" fill="#303030"/>
<path d="M286.009 249.208C285.731 249.208 285.503 248.986 285.496 248.706C285.489 248.422 285.713 248.186 285.997 248.179L289.766 248.083C290.046 248.088 290.284 248.3 290.293 248.585C290.3 248.87 290.076 249.105 289.791 249.112L286.023 249.208H286.009Z" fill="#303030"/>
<path d="M137.321 295.69C143.243 278.031 166.578 229.389 170.178 221.885C171.445 219.246 172.75 216.551 174.819 214.481C179.586 209.716 187.095 209.373 193.827 209.625C202.285 209.94 215.59 209.875 223.093 213.79C229.263 217.01 241.396 239.816 245.468 247.656C251.588 243.767 257.585 241.177 262.991 237.35L276.897 261.507C275.785 262.58 274.637 263.616 273.465 264.627C270.684 267.027 267.791 269.333 264.566 271.092C256.782 275.336 247.185 276.102 238.827 273.145C230.469 270.189 223.485 263.558 220.097 255.361L220.013 255.193C218.494 263.28 216.514 271.281 214.087 279.142C213.8 280.075 213.469 281.062 212.71 281.676C211.803 282.411 210.529 282.425 209.362 282.404C206.912 282.36 204.46 282.318 202.01 282.273C199.189 288.639 196.368 295.004 193.549 301.369C192.38 304.008 191.157 306.724 189.06 308.708C186.512 311.118 182.97 312.161 179.512 312.74C169.877 314.352 160.019 312.978 150.366 311.48C147.419 311.022 144.419 310.537 141.756 309.188C139.094 307.84 136.779 305.469 136.264 302.529C135.86 300.235 136.576 297.904 137.318 295.697L137.321 295.69Z" fill="#60BFE1"/>
<path d="M219.806 255.494C219.752 255.494 219.699 255.487 219.645 255.468C219.374 255.38 219.227 255.09 219.316 254.82C220.403 251.499 221.544 248.146 222.704 244.856C222.832 244.495 223.007 243.998 223.434 243.671C224.118 243.151 225.051 243.277 226.211 244.042C226.449 244.198 226.512 244.518 226.358 244.754C226.201 244.992 225.884 245.055 225.646 244.901C225.126 244.558 224.428 244.208 224.059 244.49C223.889 244.621 223.784 244.887 223.674 245.199C222.517 248.482 221.378 251.828 220.293 255.139C220.223 255.356 220.02 255.494 219.806 255.494Z" fill="#303030"/>
<path d="M225.742 170.904C225.742 170.904 234.697 189.89 226.591 197.156C218.483 204.425 203.79 193.544 203.79 193.544C203.79 193.544 216.359 165.437 225.742 170.902V170.904Z" fill="white"/>
<path d="M219.568 200.194C212.024 200.194 203.942 194.296 203.487 193.957C203.293 193.813 203.225 193.554 203.323 193.334C203.699 192.497 212.598 172.78 221.206 170.01C222.925 169.455 224.542 169.607 226.003 170.458C226.094 170.512 226.164 170.589 226.208 170.682C226.582 171.471 235.234 190.1 226.934 197.539C224.778 199.473 222.204 200.194 219.568 200.194ZM204.436 193.372C206.658 194.907 219.208 203.081 226.248 196.774C233.614 190.17 226.145 173.039 225.345 171.27C224.169 170.631 222.916 170.542 221.518 170.99C213.977 173.417 205.736 190.576 204.436 193.374V193.372Z" fill="#303030"/>
<path d="M215.844 159.429C215.844 159.429 227.23 159.597 228.234 167.472C229.239 175.347 216.847 183.054 216.847 183.054C216.847 183.054 208.811 182.886 211.49 188.752C211.49 188.752 214 197.576 207.136 202.157C207.136 202.157 211.88 208.076 206.466 214.724C206.466 214.724 211.322 221.542 203.62 226.066C203.62 226.066 208.643 234.662 199.154 237.455C199.154 237.455 201.443 247.393 188.381 249.404C188.381 249.404 185.926 243.377 194.13 236.34C194.13 236.34 188.549 227.961 195.915 225.616C195.915 225.616 189.72 218.411 195.579 214.39C195.579 214.39 189.44 209.196 195.747 201.153C195.747 201.153 192.231 197.803 194.072 189.592C194.072 189.592 195.803 199.534 188.77 201.041C188.77 201.041 193.906 209.243 183.859 212.762C183.859 212.762 187.375 221.038 178.835 222.377C178.835 222.377 180.9 229.694 174.035 230.866C174.035 230.866 171.634 245.722 158.911 246.058C158.911 246.058 162.929 232.457 169.628 229.106C169.628 229.106 165.274 222.359 172.306 219.678C172.306 219.678 168.288 210.918 176.66 209.075C176.66 209.075 171.303 201.489 179.171 197.971C179.171 197.971 175.487 187.751 184.696 181.215C184.696 181.215 182.186 161.443 203.281 157.59C213.912 155.649 215.839 159.434 215.839 159.434L215.844 159.429Z" fill="#303030"/>
<path d="M635.408 423.078C635.167 423.078 634.953 422.91 634.904 422.665L599.309 245.965C599.253 245.687 599.432 245.416 599.712 245.36C599.99 245.302 600.263 245.484 600.317 245.764L635.912 422.464C635.968 422.742 635.788 423.012 635.508 423.068C635.473 423.075 635.44 423.078 635.405 423.078H635.408Z" fill="#303030"/>
<path d="M545.178 423.078C545.145 423.078 545.11 423.075 545.075 423.068C544.798 423.012 544.616 422.742 544.672 422.464L580.267 245.764C580.323 245.486 580.593 245.304 580.871 245.36C581.148 245.416 581.33 245.687 581.274 245.965L545.68 422.665C545.631 422.91 545.416 423.078 545.176 423.078H545.178Z" fill="#303030"/>
<path d="M473.081 163.704C472.682 163.986 472.276 164.261 471.87 164.537C462.252 150.609 456.085 137.374 456.085 137.374C448.413 133.394 452.039 130.181 452.039 130.181C450.312 126.013 453.763 125.11 453.763 125.11C454.022 119.739 458.983 121.207 458.983 121.207C454.361 116.193 451.15 107.349 463.876 117.119C471.319 122.833 481.406 133.928 490.508 143.889C486.542 151.85 480.314 158.589 473.081 163.704Z" fill="white"/>
<path d="M470.971 163.739C470.808 163.739 470.649 163.662 470.549 163.519C467.049 158.5 464.214 153.383 461.211 147.965C459.464 144.813 457.658 141.553 455.681 138.259C455.32 137.717 454.617 137.202 453.871 136.656C453.012 136.026 452.039 135.314 451.306 134.346C450.392 133.398 450.224 131.588 451.407 130.078C450.452 129.049 451.15 127.714 451.547 126.956C451.589 126.877 451.628 126.802 451.666 126.73C451.946 125.911 452.513 124.973 453.112 123.979C453.537 123.276 453.976 122.551 454.335 121.83C454.344 121.811 454.356 121.792 454.368 121.774C455.082 120.703 456.216 120.565 457.345 120.6C457.324 120.542 457.312 120.483 457.308 120.425C457.294 120.234 457.366 120.059 457.501 119.944C457.329 119.718 457.149 119.489 456.967 119.256C455.432 117.294 453.691 115.068 454.767 112.559C454.848 112.37 455.033 112.247 455.238 112.247C458.696 112.247 461.235 114.172 463.687 116.034C464.207 116.428 464.732 116.827 465.271 117.212C465.287 117.224 465.301 117.235 465.315 117.247C473.258 124.396 481.037 132.374 489.801 142.354C489.988 142.566 489.967 142.893 489.755 143.079C489.542 143.266 489.216 143.245 489.029 143.033C480.3 133.093 472.553 125.148 464.648 118.031C464.109 117.646 463.584 117.247 463.064 116.853C460.731 115.084 458.523 113.409 455.59 113.283C455.028 115.112 456.363 116.82 457.774 118.621C458.365 119.377 458.978 120.159 459.426 120.945C459.438 120.966 459.447 120.987 459.457 121.008C459.48 121.064 459.492 121.123 459.494 121.183C459.494 121.237 459.489 121.291 459.475 121.344C459.464 121.389 459.443 121.433 459.419 121.473C459.398 121.508 459.373 121.538 459.345 121.566C459.303 121.61 459.251 121.645 459.198 121.669C459.149 121.692 459.097 121.706 459.041 121.713C459.018 121.718 458.992 121.718 458.967 121.718C458.673 121.711 458.372 121.69 458.068 121.669C456.654 121.571 455.758 121.566 455.238 122.317C454.862 123.064 454.419 123.797 453.99 124.508C453.411 125.465 452.865 126.37 452.625 127.089C452.618 127.112 452.608 127.136 452.597 127.157C452.552 127.245 452.506 127.336 452.454 127.432C451.857 128.575 451.719 129.131 452.422 129.597C452.55 129.684 452.634 129.821 452.648 129.975C452.662 130.129 452.608 130.281 452.501 130.388C451.358 131.532 451.381 132.969 452.058 133.646C452.076 133.662 452.09 133.681 452.104 133.702C452.748 134.56 453.628 135.204 454.475 135.827C455.294 136.429 456.071 136.996 456.545 137.708C458.544 141.038 460.355 144.307 462.107 147.466C465.096 152.861 467.922 157.957 471.389 162.929C471.55 163.162 471.494 163.482 471.261 163.645C471.17 163.708 471.069 163.739 470.967 163.739H470.971Z" fill="#303030"/>
<path d="M470.446 138.975C469.417 138.975 468.323 138.478 467.469 137.582C466.725 136.803 466.23 135.86 465.752 134.948C465.637 134.726 465.521 134.507 465.402 134.287C464.905 133.377 464.198 132.267 463.143 131.749C462.641 131.501 462.074 131.389 461.472 131.27C461.176 131.212 460.882 131.154 460.59 131.079C459.316 130.755 458.448 130.125 458.075 129.259C457.44 127.784 458.511 126.095 459.869 125.5C461.16 124.935 462.583 125.089 463.932 125.341C467.408 125.99 470.4 127.129 472.817 128.725C473.055 128.881 473.118 129.201 472.964 129.436C472.808 129.674 472.49 129.737 472.252 129.583C469.947 128.062 467.086 126.977 463.743 126.354C462.557 126.132 461.318 125.99 460.282 126.443C459.37 126.842 458.635 127.957 459.02 128.853C459.326 129.562 460.182 129.915 460.847 130.085C461.12 130.155 461.398 130.209 461.673 130.265C462.312 130.391 462.975 130.521 463.598 130.829C464.912 131.476 465.735 132.754 466.305 133.8C466.426 134.024 466.545 134.248 466.664 134.474C467.131 135.363 467.569 136.203 468.213 136.877C468.911 137.608 470.061 138.196 471.067 137.853C471.338 137.762 471.627 137.906 471.718 138.175C471.809 138.443 471.664 138.735 471.396 138.826C471.093 138.928 470.773 138.977 470.446 138.977V138.975Z" fill="#303030"/>
<path d="M461.708 133.716C461.039 133.716 460.413 133.494 459.958 133.3C456.939 132.026 454.641 129.245 453.959 126.039C453.901 125.761 454.078 125.489 454.356 125.43C454.636 125.372 454.907 125.549 454.965 125.827C455.576 128.708 457.644 131.21 460.357 132.355C461.108 132.673 461.676 132.759 462.147 132.633C462.583 132.514 463.017 132.052 462.917 131.632C462.851 131.357 463.024 131.079 463.299 131.014C463.57 130.951 463.852 131.119 463.918 131.396C464.158 132.421 463.335 133.375 462.415 133.625C462.177 133.69 461.939 133.716 461.708 133.716Z" fill="#303030"/>
<path d="M458.383 134.829C457.938 134.829 457.527 134.74 457.212 134.656C455.184 134.122 453.404 132.78 452.328 130.979C452.184 130.736 452.263 130.419 452.508 130.274C452.753 130.129 453.068 130.209 453.213 130.454C454.151 132.026 455.705 133.198 457.473 133.664C458.087 133.825 458.549 133.844 458.927 133.725C459.324 133.599 459.632 133.261 459.643 132.936C459.653 132.652 459.905 132.414 460.175 132.439C460.46 132.449 460.682 132.687 460.672 132.971C460.647 133.732 460.056 134.446 459.24 134.705C458.953 134.796 458.663 134.831 458.386 134.831L458.383 134.829Z" fill="#303030"/>
<path d="M456.215 136.938C456.022 136.938 455.826 136.91 455.639 136.854C455.369 136.772 455.215 136.485 455.296 136.212C455.378 135.942 455.665 135.788 455.938 135.869C456.295 135.977 456.724 135.865 456.981 135.596C457.24 135.328 457.333 134.894 457.209 134.542C457.116 134.273 457.256 133.982 457.524 133.886C457.795 133.793 458.084 133.935 458.18 134.201C458.43 134.915 458.246 135.762 457.723 136.308C457.336 136.712 456.773 136.938 456.215 136.938Z" fill="#303030"/>
<path d="M603.254 252.647C594.451 253.028 575.556 252.811 561.854 252.575C553.125 252.426 545.827 245.909 544.693 237.25C543.346 226.965 540.521 212.213 534.582 195.621C525.704 197.714 504.982 198.514 490.942 187.051C481.835 179.615 471.44 167.663 464.025 152.207C471.356 150.852 478.375 146.04 485.104 137.995C485.104 137.995 498.953 151.619 507.311 159.028C510.419 161.781 514.518 163.137 518.653 162.789C528.742 161.94 547.63 160.36 551.385 160.134C561.446 159.525 579.147 159.049 594.721 161.671C600.104 162.579 604.685 166.095 606.955 171.061C611.111 180.149 618.113 195.801 622.852 208.207C626.03 216.528 621.895 225.996 613.514 229.004C612.991 229.191 612.485 229.34 612 229.443C612 229.443 613.451 235.978 612.912 243.274C612.534 248.398 608.381 252.428 603.25 252.65L603.254 252.647Z" fill="#DB1F35"/>
<path d="M589.129 253.368C580.493 253.368 570.345 253.235 561.85 253.091C552.936 252.939 545.344 246.158 544.189 237.32C542.945 227.807 540.213 212.986 534.258 196.225C525.051 198.267 504.721 198.96 490.623 187.45C484.327 182.309 472.441 170.923 463.568 152.431C463.498 152.287 463.5 152.119 463.573 151.976C463.645 151.834 463.78 151.734 463.937 151.703C471.032 150.39 478.023 145.667 484.715 137.666C484.808 137.556 484.941 137.489 485.083 137.482C485.223 137.475 485.366 137.528 485.468 137.629C485.606 137.764 499.403 151.328 507.654 158.645C510.638 161.289 514.633 162.614 518.613 162.278C529.251 161.382 547.649 159.844 551.357 159.62C560.779 159.051 578.953 158.493 594.81 161.163C600.366 162.098 605.081 165.717 607.426 170.846C611.3 179.316 618.517 195.409 623.335 208.023C624.931 212.199 624.775 216.922 622.91 220.984C621.069 224.993 617.796 228.012 613.691 229.485C613.316 229.62 612.952 229.732 612.606 229.825C612.928 231.498 613.883 237.171 613.43 243.309C613.033 248.692 608.668 252.927 603.278 253.161C599.813 253.31 594.796 253.368 589.126 253.368H589.129ZM534.587 195.108C534.799 195.108 534.995 195.241 535.07 195.448C541.16 212.47 543.944 227.541 545.206 237.185C546.298 245.521 553.459 251.917 561.866 252.062C575.927 252.302 594.516 252.51 603.233 252.134C608.103 251.924 612.046 248.097 612.406 243.235C612.933 236.095 611.519 229.615 611.505 229.552C611.475 229.419 611.5 229.277 611.575 229.163C611.65 229.048 611.766 228.967 611.902 228.939C612.345 228.845 612.833 228.705 613.346 228.519C617.187 227.14 620.253 224.312 621.977 220.555C623.729 216.742 623.874 212.309 622.376 208.389C617.567 195.803 610.359 179.731 606.493 171.273C604.29 166.455 599.859 163.055 594.642 162.178C578.885 159.525 560.8 160.08 551.422 160.647C547.724 160.871 529.335 162.406 518.702 163.302C514.441 163.662 510.167 162.243 506.975 159.413C499.492 152.779 487.473 141.031 485.146 138.749C478.611 146.439 471.765 151.09 464.784 152.581C473.536 170.543 485.111 181.621 491.274 186.652C504.277 197.268 524.23 197.534 534.47 195.119C534.51 195.11 534.55 195.105 534.589 195.105L534.587 195.108Z" fill="#303030"/>
<path d="M561.836 213.968L555.253 214.43C554.402 214.491 553.606 214.003 553.27 213.219L540.203 182.711C539.66 181.441 540.53 180.016 541.907 179.918L548.489 179.456C549.341 179.395 550.136 179.883 550.472 180.667L563.539 211.175C564.083 212.444 563.212 213.87 561.836 213.968Z" fill="white"/>
<path d="M555.113 214.948C554.112 214.948 553.195 214.351 552.799 213.42L539.732 182.911C539.405 182.151 539.466 181.311 539.898 180.604C540.329 179.899 541.048 179.46 541.872 179.404L548.454 178.942C549.523 178.861 550.524 179.477 550.946 180.464L564.013 210.972C564.339 211.733 564.279 212.573 563.847 213.28C563.415 213.984 562.697 214.423 561.873 214.481L555.291 214.943C555.232 214.948 555.172 214.95 555.113 214.95V214.948ZM548.631 179.962C548.596 179.962 548.561 179.962 548.526 179.967L541.944 180.429C541.456 180.464 541.032 180.723 540.775 181.14C540.521 181.558 540.483 182.057 540.677 182.508L553.744 213.016C553.993 213.599 554.591 213.947 555.218 213.917L561.801 213.455C562.288 213.42 562.715 213.161 562.97 212.743C563.224 212.325 563.261 211.826 563.068 211.376L550.001 180.867C549.765 180.317 549.224 179.962 548.631 179.962Z" fill="#303030"/>
<path d="M611.304 230.329C603.336 232.329 594.817 230.422 587.383 226.927C579.949 223.432 573.351 218.425 566.549 213.814C563.268 211.59 559.456 209.357 555.585 210.193C554.584 210.41 553.431 210.797 552.624 210.167C551.851 209.565 551.917 208.3 552.514 207.523C553.111 206.746 554.068 206.35 554.994 206.03C555.921 205.708 556.891 205.412 557.617 204.754C555.531 204.985 553.445 205.216 551.357 205.447C550.923 205.496 550.463 205.54 550.069 205.356C549.131 204.922 549.18 203.442 549.924 202.724C550.668 202.005 551.779 201.856 552.808 201.767C553.839 201.678 554.941 201.592 555.753 200.955C553.186 201.158 550.622 201.363 548.055 201.566C547.577 201.604 547.073 201.636 546.646 201.417C545.754 200.957 545.722 199.595 546.328 198.794C546.935 197.994 547.936 197.621 548.881 197.287C547.84 197.324 547.068 197.014 546.821 196.211C546.573 195.409 547.082 194.86 547.749 194.352C548.417 193.843 549.264 193.64 550.09 193.488C558.973 191.86 568.049 194.769 576.305 198.428C584.56 202.087 592.584 206.576 601.432 208.38L611.307 230.327L611.304 230.329Z" fill="white"/>
<path d="M604.538 231.657C597.876 231.657 591.663 229.506 587.166 227.392C581.212 224.592 575.721 220.779 570.411 217.095C569.029 216.136 567.65 215.179 566.262 214.239C562.876 211.943 559.25 209.927 555.694 210.694C555.568 210.722 555.442 210.75 555.314 210.781C554.376 211 553.209 211.271 552.309 210.573C551.266 209.761 551.361 208.179 552.106 207.211C552.74 206.387 553.706 205.941 554.677 205.596L551.413 205.958C550.981 206.004 550.388 206.072 549.852 205.822C549.338 205.584 548.984 205.099 548.881 204.488C548.75 203.718 549.021 202.88 549.567 202.355C549.747 202.182 549.94 202.038 550.148 201.916L548.097 202.08C547.626 202.117 546.982 202.168 546.412 201.874C545.932 201.627 545.596 201.174 545.465 200.598C545.302 199.879 545.477 199.07 545.922 198.484C546.268 198.029 546.713 197.698 547.182 197.441C546.662 197.131 546.433 196.685 546.333 196.363C545.939 195.087 546.991 194.284 547.441 193.943C548.186 193.376 549.112 193.148 549.999 192.984C559.586 191.227 569.204 194.72 576.515 197.961C578.451 198.82 580.404 199.737 582.294 200.626C588.452 203.519 594.817 206.511 601.535 207.88C601.812 207.936 601.992 208.207 601.936 208.487C601.88 208.765 601.609 208.944 601.329 208.888C594.49 207.495 588.067 204.476 581.856 201.559C579.97 200.675 578.022 199.758 576.097 198.904C568.922 195.724 559.491 192.294 550.183 193.999C549.471 194.13 548.664 194.307 548.062 194.765C547.285 195.357 547.199 195.689 547.313 196.064C547.371 196.253 547.56 196.813 548.865 196.778C549.128 196.753 549.341 196.946 549.387 197.196C549.434 197.446 549.294 197.693 549.054 197.777C548.26 198.057 547.271 198.407 546.739 199.112C546.482 199.45 546.373 199.959 546.466 200.376C546.51 200.57 546.618 200.831 546.881 200.967C547.166 201.114 547.546 201.097 548.013 201.06L555.711 200.449C555.935 200.43 556.147 200.563 556.231 200.775C556.313 200.988 556.247 201.228 556.07 201.366C555.146 202.091 553.947 202.192 552.887 202.283C551.891 202.367 550.904 202.497 550.279 203.099C549.98 203.389 549.821 203.89 549.894 204.322C549.926 204.516 550.02 204.775 550.281 204.894C550.538 205.013 550.878 204.987 551.298 204.94L557.556 204.247C557.783 204.224 557.99 204.345 558.081 204.548C558.172 204.751 558.123 204.992 557.958 205.141C557.213 205.815 556.285 206.133 555.386 206.443L555.158 206.522C554.35 206.802 553.443 207.159 552.918 207.843C552.484 208.408 552.4 209.35 552.936 209.768C553.447 210.165 554.276 209.973 555.076 209.787C555.209 209.756 555.342 209.724 555.473 209.696C559.407 208.846 563.259 210.972 566.834 213.394C568.224 214.337 569.608 215.298 570.989 216.257C576.265 219.918 581.72 223.705 587.598 226.468C593.471 229.23 602.328 232.056 611.176 229.837C611.449 229.769 611.731 229.935 611.799 230.21C611.869 230.486 611.701 230.766 611.426 230.833C609.109 231.414 606.796 231.664 604.533 231.664L604.538 231.657Z" fill="#303030"/>
<path d="M597.811 208.051C597.582 208.051 597.372 207.897 597.314 207.666L594.253 195.749C594.183 195.474 594.348 195.194 594.624 195.124C594.899 195.054 595.179 195.22 595.249 195.495L598.31 207.411C598.38 207.687 598.215 207.967 597.939 208.037C597.895 208.048 597.853 208.053 597.811 208.053V208.051Z" fill="#303030"/>
<path d="M549.784 197.772C549.539 197.772 549.32 197.595 549.278 197.345C549.229 197.065 549.418 196.799 549.698 196.753C551.532 196.438 553.403 196.239 555.26 196.165C555.531 196.148 555.783 196.375 555.795 196.657C555.806 196.942 555.585 197.18 555.302 197.191C553.489 197.264 551.662 197.457 549.873 197.765C549.845 197.77 549.814 197.772 549.786 197.772H549.784Z" fill="#303030"/>
<path d="M582.423 224.475C582.355 224.475 582.287 224.461 582.222 224.435C581.961 224.326 581.837 224.022 581.949 223.761C584.611 217.449 587.003 210.932 589.061 204.397C589.147 204.126 589.434 203.977 589.705 204.061C589.975 204.147 590.127 204.434 590.041 204.705C587.973 211.273 585.57 217.818 582.896 224.16C582.814 224.356 582.623 224.475 582.423 224.475Z" fill="#303030"/>
<path d="M573.204 218.541C573.101 218.541 572.998 218.511 572.907 218.448C572.676 218.285 572.62 217.963 572.784 217.732C574.998 214.6 578.514 212.461 582.301 211.908C580.738 208.438 580.192 204.499 580.761 200.736C580.803 200.456 581.067 200.26 581.347 200.304C581.627 200.346 581.821 200.607 581.779 200.89C581.205 204.686 581.828 208.669 583.533 212.106C583.608 212.258 583.606 212.437 583.522 212.584C583.44 212.731 583.288 212.829 583.12 212.846C579.357 213.189 575.808 215.237 573.624 218.324C573.523 218.467 573.365 218.541 573.204 218.541Z" fill="#303030"/>
<path d="M574.377 142.69L575.682 160.015C577.434 161.086 577.275 163.699 575.395 164.523C572.268 165.892 566.964 167.318 562.263 164.236C560.825 163.293 560.622 161.265 561.857 160.068L562.557 146.677L574.377 142.687V142.69Z" fill="white"/>
<path d="M568.572 166.578C566.435 166.578 564.146 166.084 561.983 164.665C561.164 164.128 560.641 163.263 560.548 162.287C560.461 161.389 560.755 160.512 561.355 159.849L562.046 146.649C562.057 146.439 562.195 146.257 562.396 146.19L574.216 142.2C574.366 142.148 574.534 142.172 574.664 142.258C574.797 142.347 574.881 142.489 574.893 142.648L576.179 159.725C577.019 160.346 577.488 161.349 577.415 162.406C577.336 163.561 576.659 164.527 575.605 164.989C573.936 165.72 571.386 166.574 568.574 166.574L568.572 166.578ZM563.054 147.053L562.372 160.096C562.365 160.227 562.309 160.348 562.216 160.439C561.742 160.899 561.507 161.536 561.57 162.194C561.633 162.854 561.987 163.445 562.545 163.809C566.92 166.674 571.836 165.524 575.189 164.054C575.887 163.748 576.337 163.109 576.389 162.341C576.442 161.564 576.076 160.859 575.413 160.453C575.273 160.367 575.182 160.218 575.168 160.054L573.913 143.387L563.051 147.053H563.054Z" fill="#303030"/>
<path d="M584.466 135.307C584.56 133.947 584.574 129.404 576.522 121.557C569.974 115.177 566.068 111.367 562.295 112.564C557.022 114.237 556.25 124.343 556.058 126.832C555.806 130.139 555.223 134.217 557.939 137.458C560.38 140.37 563.961 142.102 567.597 143.205C569.832 143.882 572.161 144.358 574.492 144.223C579.637 143.922 584.098 140.662 584.469 135.307H584.466Z" fill="#303030"/>
<path d="M576.011 140.174C577.133 140.639 577.819 141.901 577.758 143.114C577.698 144.328 576.972 145.45 575.985 146.159C574.998 146.866 573.773 147.191 572.56 147.254C571.93 147.286 571.253 147.265 570.73 147.618C570.002 148.108 569.867 149.099 569.538 149.914C568.81 151.722 566.906 152.851 564.979 153.134C563.051 153.416 561.094 152.977 559.227 152.424C558.03 152.07 556.835 151.659 555.774 151.001C554.714 150.341 553.786 149.41 553.328 148.248C552.507 146.164 553.31 143.828 554.108 141.735C555.813 137.265 557.521 132.796 559.227 128.326C562.169 130.778 565.903 132.267 569.725 132.516C570.446 132.563 571.314 132.656 571.629 133.305C571.839 133.739 571.703 134.255 571.563 134.717C571.171 136.012 570.782 137.307 570.39 138.602C570.191 139.257 569.991 139.953 570.154 140.618C570.268 141.084 570.674 141.614 571.176 141.698C571.811 141.805 572.081 141.248 572.548 140.895C573.516 140.165 574.821 139.687 576.006 140.177L576.011 140.174Z" fill="white"/>
<path d="M563.74 153.731C562.099 153.731 560.492 153.332 559.082 152.914C557.895 152.562 556.639 152.14 555.505 151.435C554.616 150.882 553.438 149.914 552.852 148.432C551.987 146.232 552.761 143.826 553.632 141.549L558.751 128.139C558.809 127.985 558.94 127.866 559.101 127.824C559.262 127.782 559.432 127.819 559.561 127.927C562.421 130.311 566.045 131.756 569.762 131.998C570.415 132.04 571.631 132.12 572.093 133.076C572.403 133.718 572.186 134.434 572.058 134.864L570.884 138.746C570.714 139.309 570.523 139.943 570.656 140.492C570.728 140.786 570.994 141.143 571.262 141.187C571.437 141.217 571.533 141.147 571.829 140.851C571.948 140.734 572.081 140.599 572.24 140.48C573.558 139.486 575.003 139.199 576.204 139.696C577.495 140.228 578.344 141.642 578.269 143.135C578.204 144.442 577.46 145.728 576.281 146.572C575.299 147.275 574.023 147.688 572.585 147.762L572.338 147.774C571.832 147.795 571.353 147.814 571.017 148.04C570.616 148.311 570.439 148.857 570.247 149.438C570.175 149.664 570.1 149.888 570.014 150.103C569.272 151.944 567.37 153.299 565.053 153.638C564.615 153.703 564.174 153.731 563.737 153.731H563.74ZM559.46 129.163L554.593 141.915C553.762 144.09 553.079 146.197 553.811 148.056C554.292 149.277 555.293 150.091 556.049 150.562C557.08 151.204 558.259 151.598 559.376 151.93C561.054 152.427 563.021 152.896 564.909 152.623C566.838 152.34 568.469 151.202 569.064 149.72C569.141 149.526 569.207 149.326 569.274 149.123C569.498 148.437 569.753 147.657 570.446 147.191C571.022 146.803 571.701 146.775 572.298 146.75L572.534 146.738C573.775 146.673 574.865 146.327 575.686 145.739C576.613 145.074 577.196 144.083 577.245 143.086C577.296 142.036 576.694 141.012 575.815 140.648C574.599 140.146 573.344 140.94 572.863 141.304C572.751 141.388 572.653 141.488 572.557 141.584C572.242 141.896 571.813 142.323 571.097 142.204C570.359 142.081 569.816 141.374 569.659 140.739C569.459 139.918 569.704 139.106 569.902 138.452L571.076 134.567C571.197 134.166 571.295 133.786 571.171 133.527C570.985 133.142 570.313 133.067 569.697 133.027C566.003 132.787 562.396 131.422 559.463 129.166L559.46 129.163Z" fill="#303030"/>
<path d="M571.283 145.368C571.111 145.368 570.945 145.282 570.847 145.126C570.698 144.885 570.77 144.568 571.013 144.419C572.042 143.779 573.269 143.516 574.466 143.677C574.748 143.714 574.944 143.973 574.907 144.255C574.87 144.535 574.611 144.731 574.328 144.696C573.379 144.57 572.368 144.785 571.556 145.291C571.472 145.345 571.379 145.368 571.286 145.368H571.283Z" fill="#303030"/>
<path d="M464.692 409.285C465.334 408.856 465.906 408.329 466.386 407.724L555.368 296.243C561.033 289.147 572.095 296.264 567.989 304.363L508.762 421.16C508.645 421.388 508.524 421.612 508.384 421.827C506.527 424.646 503.372 426.354 499.979 426.354H469.882C460.672 426.354 457.041 414.416 464.692 409.285Z" fill="white"/>
<path d="M607.578 240.729C607.788 236.664 604.5 233.281 600.433 233.376C592.374 233.565 579.679 233.808 571.727 233.682C566.897 233.605 562.251 235.511 558.856 238.948C547.815 250.127 525.013 273.278 508.281 290.697C498.302 301.082 497.338 317.173 506.004 328.678C507.264 330.351 508.575 332.087 509.922 333.865C488.67 370.391 468.902 403.258 466.022 408.039C467.523 408.336 501.727 415.637 510.787 417.349C510.885 417.368 510.981 417.384 511.079 417.403L539.118 371.131C543.402 376.278 547.026 380.368 549.439 382.608C552.026 381.267 554.565 379.836 557.031 378.285C564.349 373.681 571.122 367.939 576.645 361.27C577.401 360.358 578.139 359.418 578.841 358.452L560.965 335.081L596.35 276.69C601.889 267.548 605.492 257.391 606.962 246.849C607.013 246.49 607.027 246.133 607.025 245.78C607.298 244.117 607.489 242.434 607.576 240.736L607.578 240.729Z" fill="white"/>
<path d="M511.079 417.914C511.049 417.914 511.016 417.912 510.985 417.905L510.691 417.851C503.832 416.556 482.328 412.006 471.993 409.82C468.556 409.094 466.286 408.613 465.924 408.541C465.759 408.508 465.621 408.399 465.553 408.245C465.486 408.091 465.497 407.916 465.584 407.771C467.812 404.07 487.935 370.629 509.306 333.901C508.032 332.218 506.79 330.573 505.593 328.987C496.729 317.217 497.704 300.963 507.913 290.34C524.421 273.157 546.688 250.54 558.492 238.587C561.903 235.131 566.612 233.166 571.451 233.166C571.547 233.166 571.643 233.166 571.736 233.166C579.473 233.29 591.606 233.068 600.422 232.861C602.484 232.83 604.526 233.638 605.977 235.131C607.429 236.624 608.201 238.673 608.094 240.754C608.01 242.381 607.825 244.084 607.543 245.813C607.543 246.217 607.522 246.576 607.475 246.912C605.984 257.608 602.391 267.714 596.793 276.949L561.591 335.039L579.251 358.132C579.389 358.312 579.394 358.561 579.258 358.746C578.591 359.665 577.865 360.596 577.042 361.592C571.645 368.112 565.004 373.873 557.304 378.717C554.929 380.21 552.432 381.633 549.674 383.061C549.483 383.162 549.247 383.129 549.089 382.982C546.905 380.952 543.575 377.263 539.186 372.008L511.52 417.664C511.427 417.821 511.259 417.912 511.081 417.912L511.079 417.914ZM466.837 407.682C467.821 407.888 469.704 408.287 472.203 408.816C482.503 410.996 503.906 415.522 510.82 416.831L538.677 370.863C538.764 370.72 538.913 370.629 539.079 370.618C539.24 370.604 539.405 370.674 539.513 370.802C543.925 376.103 547.29 379.862 549.523 381.986C552.129 380.625 554.497 379.272 556.756 377.851C564.363 373.065 570.919 367.377 576.248 360.944C576.967 360.078 577.606 359.261 578.199 358.459L560.557 335.392C560.429 335.224 560.417 334.995 560.524 334.813L595.909 276.422C601.432 267.308 604.981 257.333 606.451 246.777C606.493 246.478 606.512 246.151 606.509 245.783C606.509 245.752 606.509 245.724 606.516 245.696C606.796 243.988 606.978 242.311 607.062 240.708C607.156 238.885 606.507 237.161 605.235 235.854C603.966 234.55 602.258 233.845 600.443 233.897C591.616 234.104 579.468 234.326 571.715 234.202C567.051 234.13 562.501 235.992 559.218 239.315C547.416 251.266 525.153 273.878 508.648 291.056C498.792 301.313 497.851 317.01 506.41 328.373C507.67 330.046 508.981 331.782 510.325 333.558C510.451 333.723 510.465 333.947 510.36 334.127C489.818 369.435 470.39 401.774 466.832 407.685L466.837 407.682Z" fill="#303030"/>
<path d="M513.16 328.8C513.074 328.8 512.985 328.779 512.903 328.73C512.658 328.588 512.575 328.273 512.717 328.028C534.354 290.718 549.646 263.129 558.172 246.023C558.298 245.769 558.606 245.664 558.861 245.792C559.115 245.918 559.218 246.226 559.092 246.48C550.556 263.605 535.252 291.212 513.606 328.541C513.51 328.704 513.337 328.798 513.16 328.798V328.8Z" fill="#303030"/>
<path d="M541.26 368.107C541.169 368.107 541.078 368.084 540.994 368.032C540.752 367.885 540.675 367.568 540.822 367.325L559.666 336.229C559.813 335.986 560.13 335.909 560.373 336.056C560.615 336.203 560.692 336.521 560.545 336.763L541.701 367.86C541.603 368.018 541.435 368.107 541.26 368.107Z" fill="#303030"/>
<path d="M76.5632 70.3356C76.3532 70.3356 76.1572 70.2073 76.0802 69.9996L73.4716 62.9063C72.0179 58.9537 73.3106 54.4504 76.6146 51.9584C84.4195 46.0691 87.2639 35.6228 83.5329 26.5555C79.2162 16.0649 67.4353 10.7333 56.7137 14.4153C47.2054 17.6819 41.1574 27.2929 42.3288 37.2678C42.3614 37.5501 42.1608 37.8045 41.8784 37.8371C41.5984 37.8698 41.3418 37.6691 41.3091 37.3868C40.0818 26.9359 46.4214 16.8652 56.3824 13.4423C67.6196 9.58061 79.9629 15.1689 84.4872 26.1612C88.3955 35.6625 85.4135 46.6057 77.2376 52.775C74.2929 54.9964 73.1426 59.0167 74.4399 62.5493L77.0486 69.6426C77.1466 69.9086 77.0089 70.2049 76.7429 70.3029C76.6846 70.3239 76.6239 70.3356 76.5656 70.3356H76.5632Z" fill="#303030"/>
<path d="M79.9093 79.4332C79.6993 79.4332 79.5033 79.3048 79.4263 79.0972L77.4849 73.8192C77.3869 73.5532 77.5246 73.2569 77.7906 73.1589C78.0589 73.0609 78.3529 73.1985 78.4509 73.4645L80.3923 78.7425C80.4903 79.0085 80.3526 79.3048 80.0866 79.4028C80.0283 79.4238 79.9676 79.4355 79.9093 79.4355V79.4332Z" fill="#303030"/>
<path d="M103.637 137.806C103.427 137.806 103.231 137.678 103.154 137.47L101.639 133.352C100.762 130.967 101.544 128.251 103.536 126.748C107.991 123.388 109.612 117.427 107.484 112.251C105.02 106.264 98.2958 103.224 92.1779 105.324C86.7505 107.188 83.2972 112.674 83.9669 118.367C83.9996 118.649 83.7989 118.904 83.5166 118.936C83.2389 118.969 82.9799 118.768 82.9472 118.486C82.2216 112.317 85.9642 106.371 91.8442 104.353C98.4778 102.073 105.765 105.373 108.434 111.862C110.742 117.469 108.98 123.93 104.155 127.572C102.519 128.806 101.882 131.039 102.603 133.002L104.117 137.12C104.215 137.386 104.078 137.682 103.812 137.78C103.753 137.801 103.693 137.813 103.634 137.813L103.637 137.806Z" fill="#303030"/>
<path d="M105.578 143.088C105.368 143.088 105.172 142.96 105.095 142.752L103.968 139.689C103.87 139.423 104.008 139.126 104.274 139.028C104.542 138.93 104.836 139.068 104.934 139.334L106.061 142.398C106.159 142.664 106.021 142.96 105.755 143.058C105.697 143.079 105.636 143.091 105.578 143.091V143.088Z" fill="#303030"/>
</svg>
