<svg width="730" height="361" viewBox="0 0 730 361" fill="none" xmlns="http://www.w3.org/2000/svg">
<path d="M728.723 326.277H299.441C299.118 326.277 298.855 326.013 298.855 325.691V199.317C298.855 198.995 299.118 198.731 299.441 198.731C299.763 198.731 300.026 198.995 300.026 199.317V325.105H728.137V104.119C728.137 103.797 728.401 103.534 728.723 103.534C729.045 103.534 729.309 103.797 729.309 104.119V325.691C729.309 326.013 729.045 326.277 728.723 326.277Z" fill="white"/>
<path d="M614.6 86.8883C601.811 78.2904 593.52 76.7969 592.179 65.089C590.591 51.2551 588.564 49.1759 578.856 41.3042C567.308 31.939 554.542 34.9261 550.652 35.623C538.149 37.8604 525.922 44.7363 522.425 46.8448C516.648 50.3297 507.69 54.8395 506.764 66.1433C506.143 73.7338 515.91 82.3844 515.81 91.8901C515.681 103.616 520.573 105.384 521.036 113.965C521.792 127.91 525.998 134.903 518.728 144.128C505.944 160.345 504.432 175.029 504.731 177.102C505.592 183.105 562.481 199.358 597.727 199.194C603.885 199.165 622.293 195.68 639.992 192.014C667.663 186.28 671.231 147.759 644.849 137.638C644.474 137.492 644.093 137.357 643.712 137.222C623.675 130.235 639.676 103.744 614.6 86.8825V86.8883Z" fill="#303030"/>
<path d="M576.577 51.3839C589.548 51.7529 604.734 46.183 605.847 25.8069C606.96 5.4308 583.361 -0.619365 573.73 12.7168C564.092 26.0529 566.933 38.0361 571.011 45.568C575.089 53.1 576.577 51.3839 576.577 51.3839Z" fill="#303030"/>
<path d="M561.537 98.9477L586.443 149.329C586.443 149.329 606.749 146.383 600.68 153.358C590.245 165.347 549.176 189.999 534.611 189.062C511.574 187.58 515.869 161.534 533.035 153.446L545.338 151.566L529.678 109.478L561.537 98.9594V98.9477Z" fill="white"/>
<path d="M546.264 155.66C546.024 155.66 545.801 155.513 545.713 155.273L529.127 109.666C529.074 109.519 529.08 109.35 529.15 109.209C529.221 109.068 529.344 108.957 529.496 108.91L561.356 98.3913C561.661 98.2859 561.994 98.4557 562.094 98.7661C562.194 99.0707 562.03 99.4045 561.719 99.5041L530.428 109.836L546.809 154.875C546.92 155.18 546.762 155.513 546.457 155.625C546.393 155.648 546.322 155.66 546.258 155.66H546.264Z" fill="#303030"/>
<path d="M512.787 85.5003C512.008 92.0834 512.383 99.3518 514.521 105.414C516.66 111.476 521.159 116.876 527.164 119.172C532.373 121.163 538.337 120.683 543.481 118.539C548.625 116.39 555.398 108.612 558.971 104.336C564.467 106.286 571.158 104.014 574.327 99.1176C576.155 96.2945 576.794 92.5403 575.306 89.5298C573.817 86.5194 569.535 84.8443 566.236 85.512C564.449 85.8751 563.465 86.7244 561.696 87.4682C559.727 88.2999 555.427 87.6849 553.411 86.988C548.221 85.1957 527.293 73.2008 520.55 57.3463C517.081 64.0875 513.695 77.9098 512.793 85.5062L512.787 85.5003Z" fill="white"/>
<path d="M534.247 121.011C531.699 121.011 529.221 120.583 526.953 119.716C521.153 117.502 516.296 112.225 513.964 105.607C511.961 99.92 511.334 92.757 512.201 85.43C513.162 77.3475 516.607 63.7127 520.016 57.071C520.122 56.8718 520.345 56.7371 520.561 56.7547C520.79 56.7606 520.989 56.9011 521.077 57.112C527.744 72.785 548.806 84.7799 553.593 86.4257C555.573 87.1109 559.721 87.6556 561.461 86.9177C562.076 86.66 562.598 86.3847 563.102 86.1211C564.022 85.635 564.895 85.1782 566.113 84.9322C569.845 84.1766 574.286 86.1563 575.827 89.2604C577.315 92.2709 576.928 96.1657 574.813 99.428C571.603 104.395 564.795 106.796 559.159 105.01C556.446 108.248 549.199 116.776 543.703 119.066C540.616 120.355 537.376 121.005 534.247 121.005V121.011ZM513.367 85.5706C512.517 92.7218 513.127 99.6974 515.072 105.215C517.292 111.511 521.891 116.524 527.375 118.615C532.144 120.437 537.933 120.208 543.258 117.988C548.672 115.728 556.089 106.866 558.526 103.955C558.684 103.768 558.942 103.698 559.17 103.78C564.385 105.63 570.829 103.446 573.835 98.7954C575.692 95.9197 576.067 92.3821 574.778 89.7817C573.483 87.1578 569.54 85.43 566.353 86.0801C565.293 86.2968 564.531 86.6951 563.652 87.1578C563.125 87.4331 562.586 87.7201 561.924 88.0012C559.792 88.9032 555.421 88.294 553.218 87.5326C548.262 85.8224 527.926 74.3957 520.526 58.7226C517.433 65.4405 514.263 78.0386 513.373 85.5647L513.367 85.5706Z" fill="#303030"/>
<path d="M559.78 99.7442C559.698 99.7442 559.61 99.7267 559.533 99.6915C559.241 99.5509 559.118 99.2054 559.252 98.9125C560.658 95.9197 563.974 93.9518 567.249 94.1099C567.572 94.1275 567.824 94.4027 567.806 94.7249C567.788 95.047 567.507 95.2988 567.191 95.2813C564.349 95.1407 561.52 96.8392 560.313 99.4104C560.213 99.6212 560.002 99.7501 559.78 99.7501V99.7442Z" fill="#303030"/>
<path d="M299.775 67.3029C301.825 63.5428 305.715 65.3936 305.715 65.3936C305.926 59.3493 319.437 66.0086 319.437 66.0086C316.742 59.361 322.923 62.8751 333.345 67.5431C343.768 72.211 359.821 68.076 369.406 77.1835C373.835 81.3946 407.88 146.511 407.88 146.511L430.056 185.876C407.763 213.034 373.911 177.366 362.381 167.877C352.287 140.42 343.563 107.809 341.77 102.474C339.011 94.2622 336.251 90.8417 327.305 87.6556C318.359 84.4695 302.628 79.743 302.388 76.2405C302.212 73.6166 305.71 74.0911 305.71 74.0911C305.71 74.0911 297.724 71.0689 299.769 67.3088L299.775 67.3029Z" fill="white"/>
<path d="M349.562 129.468C349.304 129.468 349.07 129.298 349 129.04C348.941 128.83 342.983 107.915 341.213 102.655C338.559 94.7542 336.028 91.3806 327.111 88.2062C325.682 87.6966 324.077 87.1461 322.389 86.5721C310.467 82.4957 302.013 79.3681 301.808 76.2757C301.737 75.2449 302.153 74.6241 302.516 74.2844C302.804 74.0149 303.143 73.8334 303.495 73.7104C301.854 72.8436 299.71 71.4262 299.054 69.6633C298.72 68.7672 298.79 67.8769 299.253 67.0218C300.829 64.1285 303.536 64.0817 305.229 64.5854C305.417 63.824 305.85 63.2207 306.506 62.8341C309.301 61.1649 315.634 63.6483 318.423 64.8899C318.066 63.5955 318.165 62.7521 318.716 62.2192C320.122 60.8721 323.708 62.512 330.222 65.4815C331.283 65.9676 332.408 66.4771 333.585 67.0042C337.692 68.8433 342.666 69.2826 347.933 69.7511C355.802 70.4481 363.94 71.1685 369.81 76.7501C370.595 77.4939 376.009 86.8005 383.9 100.547L385.4 103.153C385.564 103.434 385.465 103.791 385.183 103.955C384.902 104.113 384.545 104.02 384.381 103.739L382.881 101.132C378.991 94.3559 369.88 78.4896 368.996 77.5994C363.418 72.3047 355.491 71.6019 347.822 70.9166C342.456 70.4422 337.382 69.9913 333.099 68.0702C331.921 67.5431 330.797 67.0277 329.73 66.5416C324.909 64.3394 320.356 62.2602 319.524 63.0567C319.413 63.1621 319.12 63.6717 319.97 65.7743C320.063 65.9969 320.005 66.2604 319.823 66.4244C319.647 66.5884 319.384 66.6294 319.167 66.524C316.642 65.2823 309.553 62.3715 307.104 63.8298C306.582 64.1402 306.319 64.6556 306.289 65.4053C306.284 65.6044 306.178 65.7802 306.008 65.8856C305.838 65.9851 305.633 65.9969 305.452 65.9149C305.311 65.8504 302.036 64.3569 300.278 67.5724C299.98 68.1229 299.933 68.6735 300.144 69.2416C300.888 71.2446 304.555 73.0134 305.909 73.5288C306.184 73.6342 306.342 73.9329 306.266 74.2199C306.19 74.5069 305.915 74.6943 305.622 74.6592C305.176 74.6006 303.899 74.5713 303.302 75.1336C303.044 75.3796 302.932 75.7193 302.962 76.1878C303.132 78.7414 314.943 82.7827 322.758 85.4534C324.452 86.0333 326.057 86.5838 327.492 87.0934C337.001 90.4786 339.649 94.3442 342.315 102.274C344.09 107.563 350.054 128.502 350.113 128.712C350.201 129.023 350.019 129.345 349.709 129.439C349.656 129.456 349.603 129.462 349.55 129.462L349.562 129.468Z" fill="#303030"/>
<path d="M331.435 74.0794C331.353 74.0794 331.265 74.0618 331.189 74.0267C326.778 71.9709 322.665 69.3411 318.956 66.2136C318.71 66.0027 318.675 65.6337 318.886 65.3877C319.097 65.1418 319.466 65.1066 319.712 65.3175C323.338 68.3748 327.369 70.9518 331.687 72.9666C331.98 73.1013 332.109 73.4527 331.968 73.7455C331.869 73.9564 331.658 74.0852 331.435 74.0852V74.0794Z" fill="#303030"/>
<path d="M324.95 78.431C324.862 78.431 324.78 78.4134 324.692 78.3724C318.704 75.4733 312.834 72.1641 307.25 68.5446C306.723 68.2049 306.067 67.7773 305.628 67.1389C305.083 66.3541 305.007 65.3877 305.434 64.6849C305.598 64.4096 305.962 64.3159 306.237 64.4858C306.512 64.6556 306.6 65.0129 306.436 65.2882C306.225 65.6396 306.366 66.1491 306.588 66.4712C306.899 66.9222 307.426 67.2619 307.889 67.5606C313.431 71.1509 319.261 74.4366 325.207 77.3182C325.5 77.4588 325.618 77.8102 325.477 78.103C325.377 78.3139 325.166 78.431 324.95 78.431Z" fill="#303030"/>
<path d="M322.378 81.6874C322.319 81.6874 322.255 81.6757 322.196 81.6581C316.29 79.7254 310.514 77.2655 305.024 74.3488C304.737 74.1965 304.631 73.8451 304.784 73.5581C304.936 73.2711 305.288 73.1657 305.575 73.3179C311 76.1995 316.718 78.636 322.559 80.5453C322.864 80.6449 323.034 80.9787 322.934 81.2833C322.852 81.5293 322.624 81.6874 322.378 81.6874Z" fill="#303030"/>
<path d="M583.719 333.715C580.613 334.389 578.159 332.239 576.747 329.943C573.723 325.041 572.552 318.106 572.552 318.106L586.173 309.96L586.337 331.472L583.724 333.715H583.719Z" fill="#3162AC"/>
<path d="M365.621 325.691H561.719C562.879 325.691 564.045 325.392 565 324.737C567.244 323.196 568.023 320.438 567.133 318.071C564.818 313.228 560.038 311.523 552.972 311.523H352.749L355.345 318.575C356.944 322.856 361.039 325.691 365.615 325.691H365.621Z" fill="#303030"/>
<path d="M364.514 325.691C360.594 325.691 357.067 323.302 355.614 319.664L320.901 232.631C319.981 230.324 320.263 227.705 321.663 225.65C323.063 223.594 325.389 222.358 327.873 222.358H448.393C455.658 222.358 462.132 226.927 464.558 233.767L497.144 325.691H364.52H364.514Z" fill="#303030"/>
<path d="M481.179 312.958H361.69C361.368 312.958 361.104 312.695 361.104 312.373C361.104 312.051 361.368 311.787 361.69 311.787H481.179C481.501 311.787 481.765 312.051 481.765 312.373C481.765 312.695 481.501 312.958 481.179 312.958Z" fill="white"/>
<path d="M488.725 212.905C488.725 212.905 421.578 221.087 387.955 195.452C366.641 179.199 340.932 142.529 340.932 142.529C340.932 142.529 361.192 105.191 388.98 104.119L407.851 130.973C416.276 142.798 429.786 149.961 444.304 150.313L535.173 151.999L488.731 212.905H488.725Z" fill="#42A2C4"/>
<path d="M664.452 291.194C677.131 264.182 674.6 284.166 674.506 254.331C674.459 239.536 654.616 182.73 645.962 170.724C636.594 157.733 620.576 150.98 604.722 148.597C598.336 147.636 586.443 149.323 586.443 149.323C586.443 149.323 569.834 153.885 545.332 151.548C537.441 150.272 517.017 155.308 510.789 160.31C504.561 165.312 499.945 172.024 495.75 178.818C489.141 189.507 488.813 212.899 488.813 212.899C490.272 213.637 500.806 314.217 500.806 314.217C500.806 314.217 574.872 303.74 580.168 308.027C588.207 314.54 659.062 302.679 664.458 291.188L664.452 291.194Z" fill="#42A2C4"/>
<path d="M583.151 333.803C583.151 333.803 678.549 327.179 678.549 281.226C678.549 270.73 676.504 257.605 673.768 247.771C673.768 247.771 586.267 254.905 556.382 271.497C555.691 271.884 569.465 279.732 581.791 314.212C588.23 332.222 583.151 333.797 583.151 333.797V333.803Z" fill="#42A2C4"/>
<path d="M556.745 271.802C556.522 271.802 556.306 271.673 556.206 271.45C556.077 271.158 556.206 270.806 556.505 270.677C571.222 264.188 587.955 259.596 609.152 256.234C609.474 256.182 609.773 256.404 609.819 256.72C609.872 257.043 609.65 257.341 609.333 257.388C588.236 260.738 571.597 265.301 556.974 271.749C556.897 271.784 556.815 271.796 556.739 271.796L556.745 271.802Z" fill="#303030"/>
<path d="M609.246 257.394C608.982 257.394 608.748 257.218 608.677 256.955L597.376 213.005C597.294 212.688 597.481 212.372 597.798 212.29C598.114 212.208 598.43 212.396 598.512 212.712L609.814 256.662C609.896 256.978 609.708 257.294 609.392 257.376C609.345 257.388 609.292 257.394 609.246 257.394Z" fill="#303030"/>
<path d="M583.613 333.756C583.379 333.756 583.162 333.616 583.068 333.387C582.951 333.088 583.097 332.749 583.396 332.626C585.834 331.665 583.965 324.783 583.121 322.452C583.01 322.148 583.168 321.814 583.472 321.703C583.777 321.591 584.111 321.749 584.222 322.054C584.597 323.085 587.767 332.163 583.83 333.715C583.76 333.744 583.683 333.756 583.613 333.756Z" fill="#303030"/>
<path d="M489.299 211.552C488.977 211.552 488.713 211.283 488.719 210.961C488.79 203.077 487.131 195.106 483.927 187.902C483.798 187.609 483.927 187.258 484.226 187.129C484.524 187 484.87 187.129 484.999 187.428C488.274 194.784 489.961 202.925 489.891 210.972C489.891 211.294 489.627 211.552 489.305 211.552H489.299Z" fill="#303030"/>
<path d="M498.029 341.745C498.029 341.745 493.957 345.786 490.53 340.907C487.442 336.515 493.424 306.422 542.104 278.684C547.072 275.855 553.675 272.932 558.35 271.456C567.021 281.483 581.574 300.46 586.888 321.785C569.388 324.362 550.424 328.696 540.393 340.152C522.671 360.387 530.228 338.377 530.228 338.377C530.228 338.377 519.237 354.94 515.394 352.451C510.285 349.142 518.605 335.396 522.372 329.715C523.432 328.192 524.071 327.232 524.071 327.232C524.071 327.232 523.385 328.186 522.372 329.715C518.048 335.917 506.588 351.555 501.679 350.554C495.562 349.306 498.04 341.745 498.04 341.745H498.029Z" fill="white"/>
<path d="M498.96 340.989C498.866 340.989 498.773 340.966 498.685 340.919C498.398 340.767 498.292 340.415 498.445 340.128C501.843 333.733 507.344 324.584 514.234 317.31C514.457 317.076 514.826 317.064 515.06 317.287C515.294 317.509 515.306 317.878 515.083 318.112C508.281 325.293 502.845 334.348 499.476 340.679C499.37 340.878 499.165 340.989 498.96 340.989Z" fill="#303030"/>
<path d="M519.249 334.91C519.144 334.91 519.032 334.881 518.939 334.822C518.663 334.652 518.581 334.289 518.751 334.014C520.579 331.097 523.924 326.283 525.266 324.643C525.471 324.391 525.84 324.356 526.092 324.561C526.344 324.766 526.379 325.135 526.174 325.387C524.856 326.997 521.558 331.753 519.747 334.635C519.636 334.81 519.443 334.91 519.249 334.91Z" fill="#303030"/>
<path d="M530.058 339.449C529.941 339.449 529.83 339.414 529.73 339.344C529.461 339.162 529.396 338.799 529.578 338.529C531.968 335.05 532.642 334.336 534.892 331.976L535.654 331.167C535.876 330.933 536.245 330.921 536.48 331.144C536.714 331.366 536.726 331.735 536.503 331.97L535.736 332.778C533.48 335.15 532.877 335.788 530.539 339.191C530.428 339.355 530.24 339.443 530.053 339.443L530.058 339.449Z" fill="#303030"/>
<path d="M516.244 353.283C515.816 353.283 515.423 353.178 515.066 352.949C514.152 352.358 513.566 351.461 513.32 350.278C512.717 347.397 514.24 343.069 516.343 338.84C511.299 345.2 505.622 351.186 502.101 351.192C501.907 351.192 501.726 351.175 501.55 351.139C499.827 350.788 498.562 349.939 497.788 348.615C496.757 346.84 496.863 344.621 497.103 343.151C496.312 343.596 495.234 344.006 494.027 343.894C492.521 343.76 491.18 342.869 490.043 341.253C488.11 338.5 488.479 327.647 498.081 313.89C498.269 313.626 498.632 313.562 498.896 313.743C499.159 313.931 499.224 314.294 499.042 314.557C489.153 328.719 489.698 338.723 490.998 340.574C491.93 341.897 492.978 342.623 494.127 342.723C496.025 342.887 497.589 341.347 497.607 341.335C497.8 341.147 498.093 341.112 498.327 341.253C498.556 341.394 498.661 341.675 498.579 341.932C498.568 341.967 497.402 345.628 498.802 348.024C499.4 349.043 500.401 349.704 501.784 349.986C504.907 350.618 512.582 342.723 521.88 329.387C522.882 327.876 523.579 326.904 523.585 326.898C523.772 326.64 524.129 326.576 524.393 326.757C524.657 326.939 524.727 327.296 524.545 327.565C524.545 327.565 523.907 328.532 522.84 330.06C519.976 334.389 513.414 345.019 514.468 350.044C514.65 350.923 515.054 351.555 515.705 351.971C518.019 353.47 525.301 344.738 529.73 338.061C529.894 337.815 530.211 337.727 530.48 337.862C530.744 337.991 530.873 338.301 530.773 338.576C529.613 341.956 528.494 347.303 529.766 348.041C530.222 348.305 532.308 348.492 539.942 339.771C550.183 328.081 567.666 324.098 585.031 321.545C585.347 321.492 585.646 321.72 585.693 322.037C585.74 322.353 585.517 322.651 585.201 322.698C568.058 325.223 550.816 329.129 540.821 340.538C532.877 349.611 530.369 349.74 529.174 349.048C527.516 348.088 527.973 344.509 528.652 341.663C525.453 346.114 519.753 353.277 516.238 353.283H516.244Z" fill="#303030"/>
<path d="M556.804 152.286L584.539 137.96L594.792 148.304C591.528 162.823 577.743 172.171 561.133 171.333L556.804 152.286Z" fill="white"/>
<path d="M556.804 152.286L540.188 142.529L535.167 151.636C533.55 156.779 536.855 166.114 548.344 170.56L556.804 152.281V152.286Z" fill="white"/>
<path d="M556.804 152.872C556.698 152.872 556.599 152.843 556.505 152.79L540.399 143.337L535.671 151.636C535.513 151.917 535.15 152.017 534.874 151.859C534.593 151.701 534.494 151.343 534.652 151.062L539.673 142.242C539.749 142.107 539.878 142.008 540.03 141.967C540.182 141.926 540.341 141.949 540.475 142.025L556.815 151.619L584.264 137.439C584.492 137.322 584.768 137.363 584.949 137.545L595.202 147.888C595.43 148.116 595.43 148.491 595.202 148.714C594.973 148.942 594.599 148.942 594.376 148.714L584.428 138.675L557.073 152.802C556.991 152.843 556.897 152.866 556.804 152.866V152.872Z" fill="#303030"/>
<path d="M365.633 0.294312H317.62C309.741 0.294312 303.354 6.67941 303.354 14.5558V37.2923C303.354 45.1687 309.741 51.5538 317.62 51.5538H365.633C373.512 51.5538 379.899 45.1687 379.899 37.2923V14.5558C379.899 6.67941 373.512 0.294312 365.633 0.294312Z" fill="white"/>
<path d="M337.657 9.78248C337.563 10.0578 337.3 10.2335 336.901 10.2686C336.731 10.2803 336.585 10.3916 336.526 10.5556C335.642 13.1385 334.599 15.7506 333.468 18.2515C333.357 18.4975 333.497 18.7845 333.761 18.8489L333.937 18.8899C334.353 18.9836 334.394 19.5869 333.978 19.7099C333.978 19.7099 333.972 19.7099 333.966 19.7099C333.784 19.7626 333.656 19.9208 333.656 20.114V43.0496C333.656 43.2839 333.468 43.4771 333.234 43.483L329.66 43.565C329.42 43.565 329.22 43.3776 329.22 43.1316V27.5347C329.22 27.1071 328.67 26.9432 328.43 27.2946C327.978 27.9564 327.516 28.5889 327.053 29.1805C326.871 29.4148 326.514 29.3972 326.356 29.1453C325.752 28.1848 324.844 26.8377 324.176 25.9768C324.053 25.8186 324.059 25.6019 324.188 25.4496C327.387 21.549 330.504 14.9541 332.414 8.59939C332.484 8.37097 332.724 8.24212 332.953 8.3124L337.651 9.78248H337.657ZM358.965 15.3699C358.831 16.5765 358.379 19.95 357.524 23.5344C357.471 23.757 357.255 23.8976 357.032 23.8624L355.608 23.6223C355.263 23.5637 354.993 23.921 355.151 24.2373C356.968 27.8568 358.508 32.2612 359.159 35.4298C359.2 35.6348 359.088 35.8398 358.889 35.9159L355.579 37.2161C355.327 37.3157 355.046 37.1576 354.999 36.894C354.425 33.6083 352.837 28.9228 351.056 25.2798C350.945 25.0514 351.056 24.7761 351.29 24.6883L354.612 23.4466L354.167 23.3763C353.933 23.3412 353.775 23.1245 353.81 22.8902C353.95 21.9179 354.097 20.7056 354.261 19.4405C354.296 19.1828 354.091 18.9544 353.827 18.9544L350.294 18.9778C350.06 18.9778 349.867 19.1711 349.867 19.4112V38.1415C349.867 41.4799 349.17 43.0847 343.147 43.2897C342.942 43.2956 342.754 43.155 342.713 42.95C342.491 41.8841 342.039 40.496 341.565 39.4359C341.436 39.1548 341.647 38.8326 341.957 38.8326C343.258 38.8326 344.465 38.8033 344.904 38.7975C345.379 38.7858 345.525 38.6394 345.525 38.1532V19.4522C345.525 19.2121 345.332 19.0188 345.092 19.0188L341.875 19.0422C341.706 19.0422 341.559 19.1418 341.489 19.2941C340.422 21.631 339.233 23.757 337.921 25.5082C337.768 25.7132 337.464 25.7308 337.282 25.5551C336.556 24.8581 335.472 23.9561 334.628 23.3529C334.429 23.2123 334.394 22.9312 334.546 22.7379C337.089 19.4698 339.18 14.058 340.376 8.7341C340.428 8.49397 340.668 8.34755 340.903 8.41197L345.607 9.66534C345.52 9.90548 345.291 10.0929 344.916 10.1398C344.734 10.1632 344.582 10.2862 344.541 10.4619C344.207 11.7621 343.82 13.0565 343.387 14.3333C343.293 14.6144 343.498 14.9014 343.791 14.9014L356.675 14.8428L358.549 14.8955C358.801 14.9014 358.995 15.124 358.965 15.3758V15.3699ZM344.5 25.1744C344.442 25.4087 344.201 25.5785 343.862 25.6429C343.692 25.6722 343.551 25.7893 343.51 25.9592C342.444 30.0707 340.704 34.5571 338.682 37.55C338.548 37.7491 338.278 37.796 338.079 37.6554C337.323 37.1224 336.239 36.4664 335.39 36.0096C335.161 35.8866 335.097 35.5938 335.243 35.3771C337.118 32.7005 338.659 28.4308 339.549 24.3954C339.602 24.1611 339.837 24.0147 340.071 24.0733L344.488 25.1744H344.5Z" fill="#42A2C3"/>
<path d="M195.055 27.1364L116.788 53.6857L38.5212 27.1364L116.788 0.587158L195.055 27.1364Z" fill="white"/>
<path d="M116.788 54.2714C116.724 54.2714 116.659 54.2597 116.601 54.2421L38.3278 27.6928C38.0876 27.6108 37.9294 27.3883 37.9294 27.1364C37.9294 26.8846 38.0876 26.662 38.3278 26.58L116.601 0.0307486C116.724 -0.0102495 116.853 -0.0102495 116.976 0.0307486L195.243 26.58C195.483 26.662 195.641 26.8846 195.641 27.1364C195.641 27.3883 195.483 27.6108 195.243 27.6928L116.976 54.2421C116.917 54.2655 116.853 54.2714 116.788 54.2714ZM40.3432 27.1364L116.788 53.0707L193.233 27.1364L116.788 1.20798L40.3432 27.1364Z" fill="#303030"/>
<path d="M158.005 59.1091H75.572V35.0725C75.572 30.6037 78.683 26.7498 83.0478 25.7893C105.54 20.8402 128.037 20.8402 150.529 25.7893C154.894 26.7498 158.005 30.6095 158.005 35.0725V59.1091Z" fill="white"/>
<path d="M158.005 59.6948H75.572C75.2497 59.6948 74.9861 59.4313 74.9861 59.1091V35.0725C74.9861 30.3753 78.3256 26.2286 82.9188 25.2153C105.393 20.2663 128.184 20.2663 150.652 25.2153C155.251 26.2286 158.585 30.3753 158.585 35.0725V59.1091C158.585 59.4313 158.321 59.6948 157.999 59.6948H158.005ZM76.1578 58.5234H157.419V35.0725C157.419 30.9199 154.466 27.2535 150.406 26.3574C128.102 21.4494 105.481 21.4494 83.1766 26.3574C79.1106 27.2535 76.1637 30.9141 76.1637 35.0725V58.5234H76.1578Z" fill="#303030"/>
<path d="M116.788 66.6176C139.551 66.6176 158.005 63.256 158.005 59.1091C158.005 54.9623 139.551 51.6006 116.788 51.6006C94.0252 51.6006 75.572 54.9623 75.572 59.1091C75.572 63.256 94.0252 66.6176 116.788 66.6176Z" fill="white"/>
<path d="M116.788 67.2033C96.5228 67.2033 74.9861 64.3686 74.9861 59.1091C74.9861 53.8496 96.5228 51.0149 116.788 51.0149C137.054 51.0149 158.59 53.8496 158.59 59.1091C158.59 64.3686 137.054 67.2033 116.788 67.2033ZM116.788 52.1863C92.8435 52.1863 76.1578 55.8351 76.1578 59.1091C76.1578 62.3831 92.8435 66.0319 116.788 66.0319C140.733 66.0319 157.419 62.3831 157.419 59.1091C157.419 55.8351 140.733 52.1863 116.788 52.1863Z" fill="#303030"/>
<path d="M54.3222 65.4873C54 65.4873 53.7363 65.2237 53.7363 64.9016V37.1634C53.7363 36.8413 54 36.5777 54.3222 36.5777C54.6444 36.5777 54.9081 36.8413 54.9081 37.1634V64.9016C54.9081 65.2237 54.6444 65.4873 54.3222 65.4873Z" fill="#303030"/>
<path d="M59.9761 91.5387H48.6628L54.3224 68.3806L59.9761 91.5387Z" fill="white"/>
<path d="M59.976 92.1244H48.6627C48.4811 92.1244 48.3112 92.0424 48.1999 91.9019C48.0886 91.7613 48.0476 91.5739 48.0886 91.404L53.7423 68.2459C53.8067 67.9823 54.0411 67.8008 54.3106 67.8008C54.5801 67.8008 54.8144 67.9882 54.8789 68.2459L60.5325 91.404C60.5736 91.5797 60.5325 91.7613 60.4212 91.9019C60.3099 92.0424 60.14 92.1244 59.9584 92.1244H59.976ZM49.4068 90.953H59.226L54.3164 70.8522L49.4068 90.953Z" fill="#303030"/>
<path d="M196.444 133.087H116.788C116.466 133.087 116.202 132.824 116.202 132.502V89.0906C116.202 88.7684 116.466 88.5049 116.788 88.5049C117.11 88.5049 117.374 88.7684 117.374 89.0906V131.916H196.444C196.766 131.916 197.03 132.18 197.03 132.502C197.03 132.824 196.766 133.087 196.444 133.087Z" fill="white"/>
<path d="M302.909 168.797H262.103C261.781 168.797 261.517 168.533 261.517 168.211C261.517 167.889 261.781 167.626 262.103 167.626H302.909C303.231 167.626 303.495 167.889 303.495 168.211C303.495 168.533 303.231 168.797 302.909 168.797Z" fill="white"/>
<path d="M251.598 168.797H206.574C206.251 168.797 205.988 168.533 205.988 168.211C205.988 167.889 206.251 167.626 206.574 167.626H251.598C251.92 167.626 252.184 167.889 252.184 168.211C252.184 168.533 251.92 168.797 251.598 168.797Z" fill="white"/>
<path d="M269.532 182.016H206.615C206.292 182.016 206.029 181.752 206.029 181.43C206.029 181.108 206.292 180.845 206.615 180.845H269.532C269.854 180.845 270.118 181.108 270.118 181.43C270.118 181.752 269.854 182.016 269.532 182.016Z" fill="white"/>
<path d="M303.36 155.426H206.574C206.251 155.426 205.988 155.162 205.988 154.84C205.988 154.518 206.251 154.254 206.574 154.254H303.36C303.682 154.254 303.946 154.518 303.946 154.84C303.946 155.162 303.682 155.426 303.36 155.426Z" fill="white"/>
<path d="M268 135.234C269.459 131.07 267.265 126.512 263.099 125.054C258.934 123.596 254.374 125.789 252.916 129.954C251.457 134.118 253.651 138.675 257.817 140.134C261.982 141.592 266.541 139.398 268 135.234Z" fill="#E2EAFF"/>
<path d="M244.508 135.594C246.182 131.512 244.23 126.845 240.146 125.171C236.063 123.497 231.395 125.449 229.72 129.531C228.046 133.613 229.998 138.28 234.082 139.954C238.165 141.628 242.833 139.676 244.508 135.594Z" fill="#E2EAFF"/>
<path d="M219.457 138.225C222.578 135.105 222.578 130.047 219.457 126.927C216.336 123.807 211.276 123.807 208.156 126.927C205.035 130.047 205.035 135.105 208.156 138.225C211.276 141.344 216.336 141.344 219.457 138.225Z" fill="#D3D3D3"/>
<path d="M243.724 487.001C243.402 487.001 243.138 486.738 243.138 486.416V353.295H0.585875C0.263644 353.295 0 353.031 0 352.709C0 352.387 0.263644 352.123 0.585875 352.123H243.724C244.046 352.123 244.31 352.387 244.31 352.709V486.416C244.31 486.738 244.046 487.001 243.724 487.001Z" fill="#303030"/>
<path d="M124.897 217.848C124.897 217.848 152.099 216.642 174.198 226.897C204.171 240.807 252.401 284.218 240.502 308.952C225.503 340.128 154.366 309.555 154.366 309.555L95.4331 310.762C95.4331 310.762 19.3749 341.341 3.63239 316.191C-12.2331 290.848 37.7244 245.206 68.2368 229.31C94.8707 215.435 124.903 217.848 124.903 217.848H124.897Z" fill="white"/>
<path d="M29.2645 326.739C16.1526 326.739 7.39961 323.325 3.12858 316.502C-0.216766 311.166 -0.878804 304.677 1.14832 297.221C8.10266 271.655 44.4152 241.053 67.9556 228.789C94.0153 215.213 123.684 217.169 124.903 217.257C126.051 217.216 152.831 216.331 174.438 226.364C199.221 237.867 232.616 266.824 240.918 289.988C243.566 297.379 243.601 303.845 241.023 309.204C234.766 322.218 217.705 326.476 191.692 321.515C173.026 317.96 155.831 310.809 154.243 310.141L95.5386 311.342C94.0095 311.945 75.5544 319.184 55.5468 323.477C45.417 325.65 36.6406 326.734 29.2527 326.734L29.2645 326.739ZM119.677 218.282C109.957 218.282 88.18 219.576 68.5005 229.826C45.1475 241.99 9.14551 272.288 2.27906 297.525C0.339815 304.653 0.960842 310.826 4.12457 315.875C19.4335 340.322 94.4547 310.516 95.2105 310.211C95.275 310.188 95.3453 310.17 95.4156 310.17L154.349 308.964C154.431 308.964 154.519 308.976 154.589 309.011C154.765 309.087 172.558 316.677 191.927 320.367C209.655 323.741 232.381 324.461 239.963 308.694C242.4 303.628 242.353 297.467 239.81 290.38C231.608 267.485 198.512 238.828 173.94 227.424C152.228 217.35 125.184 218.416 124.909 218.428C124.885 218.428 124.862 218.428 124.838 218.428C124.762 218.422 122.87 218.282 119.665 218.282H119.677Z" fill="#303030"/>
<path d="M217.834 281.636C211.917 281.636 166.564 275.99 164.637 275.749C164.315 275.708 164.086 275.416 164.127 275.094C164.168 274.771 164.461 274.549 164.783 274.584C165.252 274.643 211.993 280.464 217.84 280.464C219.182 280.464 220.072 280.119 220.477 279.439C221.244 278.157 220.301 275.79 219.873 274.988C219.721 274.701 219.826 274.35 220.113 274.197C220.4 274.045 220.752 274.151 220.904 274.438C220.98 274.578 222.75 277.922 221.484 280.043C220.851 281.103 219.627 281.636 217.84 281.636H217.834Z" fill="#303030"/>
<path d="M26.8975 281.636C25.1105 281.636 23.8861 281.097 23.2533 280.043C21.9878 277.928 23.7572 274.584 23.8333 274.438C23.9857 274.151 24.343 274.045 24.6243 274.197C24.9113 274.35 25.0168 274.707 24.8645 274.988C24.4368 275.79 23.4935 278.157 24.261 279.439C24.6711 280.119 25.5558 280.464 26.8975 280.464C32.7445 280.464 79.4797 274.643 79.9543 274.584C80.2765 274.549 80.5695 274.771 80.6105 275.094C80.6515 275.416 80.423 275.708 80.1008 275.749C78.1732 275.99 32.8207 281.636 26.9033 281.636H26.8975Z" fill="#303030"/>
<path d="M173.249 303.499H71.0374V361.049H173.249V303.499Z" fill="white"/>
<path d="M171.861 308.003H74.0254C72.1916 308.003 70.598 306.732 70.1821 304.946L57.1991 248.527C56.6308 246.055 58.5056 243.701 61.0424 243.701H184.844C187.38 243.701 189.255 246.061 188.687 248.527L175.704 304.946C175.294 306.738 173.7 308.003 171.861 308.003Z" fill="#42A2C4"/>
<path d="M126.162 270.543C126.162 272.938 124.721 274.883 122.946 274.883C121.171 274.883 119.729 272.938 119.729 270.543C119.729 268.147 121.171 266.203 122.946 266.203C124.721 266.203 126.162 268.147 126.162 270.543Z" fill="white"/>
<path d="M212.491 479.464L157.571 485.854C142.502 487.605 127.715 480.74 119.079 467.978L43.4368 356.235C28.8953 334.752 42.0014 305.157 67.3639 302.205C79.5442 300.788 91.5195 306.246 98.6437 316.461L193.198 452.053L215.35 464.247C222.193 468.013 220.207 478.562 212.491 479.458V479.464Z" fill="white"/>
<path d="M152.896 486.709C139.292 486.709 126.461 479.92 118.593 468.3L42.9505 356.557C35.8966 346.137 34.8303 333.071 40.0973 321.591C45.2003 310.469 55.3652 303.007 67.2995 301.619C79.6849 300.178 91.8828 305.737 99.1242 316.121L193.602 451.602L215.637 463.732C219.006 465.589 220.699 469.267 219.943 473.109C219.205 476.887 216.305 479.604 212.561 480.038L157.641 486.427C156.054 486.615 154.472 486.703 152.896 486.703V486.709ZM71.1721 302.568C69.9301 302.568 68.6822 302.638 67.4284 302.785C55.9101 304.126 46.085 311.342 41.1578 322.083C36.0665 333.182 37.0977 345.827 43.9172 355.901L119.56 467.644C128.09 480.243 142.625 486.996 157.501 485.268L212.421 478.878C215.649 478.503 218.151 476.149 218.789 472.886C219.445 469.554 217.981 466.368 215.063 464.763L192.911 452.569C192.835 452.528 192.765 452.463 192.712 452.393L98.1575 316.8C91.8945 307.816 81.7999 302.574 71.1721 302.574V302.568Z" fill="#303030"/>
<path d="M37.3261 479.633L92.2929 485.555C107.373 487.177 122.108 480.184 130.644 467.352L205.378 354.97C219.744 333.364 206.398 303.88 181.012 301.145C168.82 299.833 156.891 305.391 149.849 315.664L56.3963 452.059L34.344 464.441C27.5361 468.265 29.6042 478.796 37.3261 479.628V479.633Z" fill="white"/>
<path d="M96.6284 486.369C95.1695 486.369 93.699 486.293 92.2285 486.135L37.2617 480.213C33.5179 479.809 30.5944 477.115 29.8211 473.349C29.036 469.513 30.694 465.817 34.0511 463.931L55.9862 451.614L149.363 315.336C156.522 304.887 168.668 299.224 181.07 300.565C193.011 301.854 203.234 309.227 208.431 320.303C213.792 331.735 212.831 344.82 205.865 355.298L131.131 467.68C123.292 479.464 110.361 486.375 96.6284 486.375V486.369ZM37.3847 479.048L92.3515 484.969C107.233 486.568 121.721 479.698 130.146 467.024L204.88 354.642C211.618 344.509 212.55 331.852 207.365 320.795C202.349 310.094 192.472 302.966 180.942 301.725C168.978 300.436 157.243 305.901 150.324 315.998L56.8709 452.393C56.8182 452.469 56.7537 452.528 56.6717 452.575L34.6194 464.956C31.7134 466.584 30.2781 469.788 30.9635 473.115C31.6314 476.371 34.1507 478.702 37.3789 479.048H37.3847Z" fill="#303030"/>
<path d="M142.608 200.617C142.608 200.617 152.357 172.592 140.252 174.039C140.252 174.039 133.556 161.177 121.827 170.823C121.827 170.823 114.275 164.557 108.006 175.644C108.006 175.644 101.151 174.197 100.29 184.487C99.4346 194.778 105.539 203.833 105.539 203.833L142.608 200.617Z" fill="#303030"/>
<path d="M124.604 234.388C118.382 234.388 113.502 229.058 114.046 222.856L115.007 202.544H134.201L135.161 222.856C135.706 229.053 130.82 234.388 124.604 234.388Z" fill="white"/>
<path d="M124.604 234.974C121.475 234.974 118.47 233.65 116.361 231.348C114.246 229.041 113.191 225.931 113.466 222.809L114.427 202.521C114.445 202.21 114.697 201.964 115.013 201.964H134.206C134.517 201.964 134.775 202.21 134.792 202.521L135.753 222.833C136.023 225.925 134.968 229.041 132.853 231.348C130.738 233.656 127.732 234.974 124.61 234.974H124.604ZM115.564 203.13L114.632 222.885C114.386 225.702 115.329 228.49 117.222 230.552C119.114 232.614 121.803 233.802 124.604 233.802C127.404 233.802 130.094 232.619 131.986 230.552C133.878 228.484 134.822 225.697 134.581 222.909L133.644 203.13H115.564Z" fill="#303030"/>
<path d="M141.248 198.403C134.862 198.567 136.28 188.88 136.28 188.88C130.252 196.436 123.022 190.169 123.022 190.169C112.476 200.137 106.922 188.318 107.654 191.457C108.756 196.154 106.776 198.737 105.996 199.54C103.295 197.818 98.9248 196.008 99.5166 202.831C100.179 210.451 105.012 207.558 107.115 205.906C109.207 212.729 113.554 220.179 123.748 219.863C133.597 219.553 138.542 212.36 140.475 205.35C142.778 206.978 146.89 208.835 147.5 201.847C148.074 195.217 143.961 196.746 141.248 198.415V198.403Z" fill="white"/>
<path d="M123.122 220.449C115.283 220.449 109.799 215.88 106.811 206.855C105.235 207.962 103.219 208.899 101.532 208.167C100.062 207.528 99.1885 205.748 98.9366 202.878C98.7023 200.178 99.1827 198.497 100.413 197.753C101.661 196.998 103.501 197.343 105.885 198.778C106.735 197.736 107.988 195.44 107.086 191.586C107.01 191.246 106.875 190.684 107.332 190.415C107.795 190.139 108.176 190.473 108.756 190.989C110.531 192.552 115.253 196.711 122.624 189.747C122.84 189.542 123.18 189.53 123.409 189.729C123.438 189.753 126.479 192.336 130.088 191.996C132.214 191.797 134.148 190.625 135.829 188.523C135.993 188.318 136.274 188.248 136.52 188.353C136.761 188.458 136.907 188.71 136.866 188.974C136.86 189.027 136.128 194.245 138.261 196.652C138.964 197.443 139.889 197.829 141.084 197.835C143.51 196.371 145.373 196.014 146.627 196.787C147.845 197.537 148.32 199.212 148.092 201.9C147.845 204.729 146.996 206.498 145.561 207.159C144.313 207.739 142.684 207.435 140.821 206.281C139.368 210.972 135.085 220.097 123.772 220.449C123.555 220.455 123.338 220.46 123.122 220.46V220.449ZM107.121 205.315C107.18 205.315 107.238 205.32 107.297 205.344C107.479 205.402 107.625 205.549 107.684 205.73C110.555 215.09 115.798 219.5 123.737 219.271C134.529 218.932 138.507 210.305 139.919 205.192C139.971 205.01 140.106 204.858 140.288 204.799C140.469 204.735 140.668 204.764 140.821 204.869C141.84 205.59 143.738 206.703 145.068 206.094C146.076 205.625 146.721 204.137 146.92 201.795C147.107 199.651 146.791 198.263 146.012 197.777C145.168 197.255 143.586 197.66 141.559 198.907C141.471 198.96 141.372 198.989 141.266 198.995C139.661 199.024 138.343 198.509 137.382 197.419C135.73 195.557 135.513 192.476 135.571 190.543C133.96 192.101 132.156 192.98 130.187 193.161C126.865 193.466 124.082 191.697 123.063 190.936C115.681 197.636 110.531 194.034 108.416 192.236C109.131 196.588 107.291 199.054 106.424 199.944C106.231 200.143 105.92 200.178 105.692 200.032C103.565 198.679 101.907 198.222 101.028 198.755C100.243 199.235 99.9209 200.623 100.108 202.773C100.313 205.151 100.97 206.644 102.001 207.089C103.536 207.757 105.844 206.152 106.764 205.432C106.869 205.35 106.998 205.309 107.127 205.309L107.121 205.315Z" fill="#303030"/>
<path d="M142.496 203.241C142.356 203.241 142.215 203.194 142.104 203.095C141.864 202.878 141.84 202.509 142.057 202.269L144.84 199.159C145.057 198.919 145.426 198.901 145.666 199.112C145.906 199.329 145.93 199.698 145.713 199.938L142.93 203.048C142.813 203.177 142.655 203.241 142.49 203.241H142.496Z" fill="#303030"/>
<path d="M104.836 204.225C104.678 204.225 104.514 204.161 104.397 204.032L101.614 200.922C101.397 200.682 101.421 200.313 101.661 200.096C101.901 199.879 102.27 199.903 102.487 200.143L105.27 203.253C105.487 203.493 105.463 203.862 105.223 204.079C105.112 204.178 104.971 204.225 104.83 204.225H104.836Z" fill="#303030"/>
<path d="M376.7 478.936C373.788 478.936 371.005 477.894 368.796 475.955C366.383 473.841 364.935 470.907 364.725 467.703C364.707 467.404 364.701 467.094 364.707 466.76C360.395 465.94 356.229 464.529 352.31 462.561C352.111 462.83 351.917 463.076 351.718 463.299C349.603 465.718 346.668 467.164 343.469 467.375C340.264 467.592 337.171 466.537 334.751 464.423C329.765 460.054 329.262 452.44 333.632 447.45C333.825 447.227 334.042 446.999 334.288 446.765C331.822 443.139 329.877 439.192 328.494 435.027C328.16 435.08 327.855 435.115 327.557 435.133C324.352 435.344 321.258 434.295 318.839 432.175C316.425 430.055 314.978 427.126 314.767 423.923C314.328 417.304 319.354 411.565 325.975 411.125C326.274 411.108 326.584 411.102 326.918 411.108C327.738 406.791 329.15 402.627 331.119 398.709C330.849 398.51 330.603 398.316 330.381 398.117C325.395 393.748 324.891 386.134 329.262 381.144C331.377 378.725 334.306 377.279 337.511 377.068C340.71 376.851 343.809 377.905 346.228 380.02C346.457 380.219 346.68 380.43 346.908 380.676C350.535 378.21 354.478 376.259 358.643 374.877C358.59 374.543 358.555 374.239 358.538 373.934C358.098 367.316 363.131 361.576 369.745 361.137C372.956 360.926 376.044 361.975 378.463 364.089C380.877 366.203 382.324 369.137 382.535 372.341C382.553 372.64 382.559 372.95 382.553 373.29C386.871 374.11 391.03 375.521 394.95 377.489C395.149 377.22 395.342 376.974 395.542 376.751C397.657 374.333 400.586 372.886 403.791 372.675C406.995 372.458 410.089 373.513 412.508 375.627C417.494 379.996 417.998 387.61 413.627 392.6C413.434 392.823 413.217 393.051 412.971 393.285C415.438 396.911 417.383 400.853 418.766 405.023C419.1 404.97 419.41 404.935 419.703 404.917C422.902 404.706 426.001 405.755 428.421 407.869C430.835 409.983 432.282 412.918 432.493 416.121C432.932 422.74 427.905 428.479 421.285 428.919C420.986 428.936 420.676 428.948 420.342 428.936C419.521 433.253 418.109 437.417 416.141 441.335C416.41 441.534 416.656 441.728 416.879 441.927C421.865 446.296 422.369 453.91 417.998 458.9C415.883 461.319 412.948 462.766 409.743 462.976C406.538 463.193 403.445 462.139 401.025 460.025C400.803 459.825 400.574 459.609 400.346 459.369C396.725 461.834 392.782 463.785 388.611 465.167C388.663 465.501 388.699 465.805 388.716 466.11C389.155 472.728 384.129 478.468 377.508 478.907C377.239 478.925 376.969 478.936 376.7 478.936ZM352.122 461.214C352.216 461.214 352.304 461.237 352.392 461.278C356.487 463.392 360.869 464.88 365.41 465.694C365.703 465.747 365.908 466.01 365.89 466.303C365.861 466.795 365.861 467.223 365.89 467.621C366.084 470.514 367.384 473.162 369.57 475.071C371.749 476.98 374.544 477.935 377.438 477.736C383.408 477.343 387.949 472.16 387.55 466.186C387.527 465.782 387.468 465.366 387.374 464.88C387.322 464.587 387.492 464.306 387.773 464.212C392.173 462.807 396.321 460.757 400.1 458.121C400.34 457.951 400.674 457.992 400.873 458.209C401.201 458.572 401.506 458.883 401.805 459.146C403.984 461.055 406.779 462.004 409.673 461.811C412.567 461.618 415.209 460.312 417.119 458.133C421.062 453.629 420.611 446.759 416.106 442.811C415.807 442.548 415.461 442.284 415.057 442.009C414.811 441.845 414.729 441.523 414.87 441.259C416.985 437.159 418.467 432.778 419.281 428.233C419.334 427.941 419.592 427.73 419.89 427.753C420.383 427.777 420.81 427.782 421.209 427.753C427.179 427.361 431.713 422.177 431.321 416.203C431.128 413.31 429.827 410.663 427.642 408.753C425.462 406.844 422.668 405.889 419.773 406.089C419.375 406.112 418.947 406.171 418.467 406.264C418.18 406.317 417.887 406.147 417.799 405.866C416.393 401.467 414.348 397.315 411.712 393.537C411.542 393.297 411.583 392.963 411.8 392.764C412.169 392.43 412.467 392.132 412.731 391.833C416.674 387.329 416.223 380.459 411.723 376.511C409.544 374.602 406.749 373.653 403.855 373.846C400.961 374.04 398.319 375.346 396.409 377.525C396.145 377.829 395.887 378.157 395.606 378.573C395.442 378.819 395.114 378.901 394.85 378.766C390.755 376.652 386.378 375.17 381.832 374.35C381.539 374.297 381.334 374.034 381.352 373.741C381.381 373.243 381.381 372.821 381.352 372.417C381.158 369.524 379.858 366.877 377.672 364.967C375.493 363.058 372.692 362.103 369.804 362.302C363.834 362.695 359.293 367.878 359.692 373.852C359.721 374.256 359.774 374.672 359.868 375.164C359.92 375.457 359.75 375.738 359.469 375.832C355.069 377.238 350.921 379.287 347.142 381.923C346.902 382.093 346.568 382.058 346.369 381.835C346.035 381.46 345.736 381.162 345.438 380.898C343.258 378.989 340.463 378.046 337.569 378.233C334.675 378.426 332.033 379.733 330.123 381.911C326.18 386.415 326.631 393.285 331.136 397.233C331.441 397.496 331.775 397.754 332.185 398.035C332.431 398.205 332.513 398.527 332.373 398.785C330.258 402.885 328.775 407.266 327.961 411.811C327.908 412.104 327.65 412.32 327.352 412.291C326.865 412.268 326.432 412.262 326.033 412.291C320.063 412.683 315.523 417.867 315.921 423.841C316.114 426.734 317.415 429.381 319.6 431.291C321.78 433.2 324.575 434.149 327.463 433.956C327.861 433.926 328.289 433.874 328.769 433.78C329.062 433.727 329.344 433.897 329.437 434.178C330.843 438.577 332.888 442.723 335.525 446.507C335.694 446.747 335.653 447.081 335.437 447.28C335.062 447.614 334.769 447.913 334.505 448.211C330.562 452.715 331.013 459.585 335.519 463.533C337.698 465.442 340.487 466.391 343.387 466.198C346.281 466.004 348.923 464.698 350.833 462.52C351.097 462.221 351.361 461.875 351.636 461.471C351.747 461.307 351.929 461.214 352.122 461.214ZM373.595 441.857C368.304 441.857 363.26 439.965 359.247 436.445C354.864 432.603 352.234 427.279 351.853 421.463C351.062 409.45 360.184 399.031 372.194 398.234C378.012 397.854 383.631 399.757 388.013 403.599C392.401 407.441 395.026 412.765 395.407 418.581C396.198 430.594 387.076 441.013 375.065 441.81C374.573 441.845 374.081 441.857 373.595 441.857ZM373.659 399.353C373.196 399.353 372.733 399.371 372.265 399.4C360.899 400.15 352.263 410.013 353.013 421.381C353.376 426.886 355.86 431.923 360.014 435.56C364.162 439.198 369.482 441.001 374.983 440.638C386.349 439.889 394.985 430.026 394.235 418.657C393.872 413.152 391.388 408.115 387.234 404.478C383.437 401.151 378.657 399.353 373.653 399.353H373.659Z" fill="#303030"/>
</svg>
