<svg width="418" height="277" viewBox="0 0 418 277" fill="none" xmlns="http://www.w3.org/2000/svg">
<path d="M417.665 0.335205H119.467V197.807H417.665V0.335205Z" fill="white"/>
<path d="M417.665 198.142H119.467C119.282 198.142 119.132 197.992 119.132 197.807V0.335147C119.132 0.150816 119.282 0 119.467 0H417.665C417.849 0 418 0.150816 418 0.335147V197.807C418 197.992 417.849 198.142 417.665 198.142ZM119.802 197.472H417.329V0.670294H119.802V197.472Z" fill="black"/>
<path d="M281.648 157.332H278.028C276.416 157.332 275.109 156.021 275.109 154.412V140.048C275.109 139.448 274.874 138.882 274.448 138.456L269.206 133.214C268.653 132.661 268.351 131.931 268.351 131.15V125.442C268.351 124.202 267.342 123.193 266.102 123.193H253.827C253.045 123.193 252.311 122.888 251.762 122.339L245.215 115.793C244.662 115.24 244.36 114.51 244.36 113.729V105.632C244.36 104.851 244.665 104.117 245.215 103.567L253.505 95.2757C253.93 94.85 254.165 94.287 254.165 93.6837V89.3268C254.165 87.7148 255.476 86.4077 257.085 86.4077H265.689C267.298 86.4077 268.609 87.7181 268.609 89.3268V92.2158C268.609 93.4558 269.618 94.4646 270.858 94.4646H280.636C281.236 94.4646 281.803 94.23 282.228 93.8044L283.026 93.0067C283.683 92.3499 283.868 91.4114 283.516 90.5535C283.16 89.6955 282.362 89.1659 281.437 89.1659H273.228C272.447 89.1659 271.713 88.861 271.163 88.3113L264.171 81.3202C263.618 80.7672 263.316 80.0365 263.316 79.2556V72.8912C263.316 72.1103 263.621 71.3763 264.171 70.8267L281.984 53.0136C282.537 52.4606 283.268 52.159 284.049 52.159H303.028C303.628 52.159 304.194 51.9244 304.62 51.4988L319.738 36.3836C320.07 36.0518 320.284 35.6362 320.365 35.1737L321.132 30.7163C321.32 29.6203 322.067 28.7657 323.127 28.4272C324.186 28.0921 325.289 28.3602 326.077 29.1444L333.283 36.3501C333.709 36.7757 334.272 37.0103 334.876 37.0103H370.796C371.396 37.0103 371.963 36.7757 372.388 36.3501L378.077 30.6626C378.63 30.1097 379.361 29.808 380.142 29.808H394.358C395.97 29.808 397.277 31.1184 397.277 32.7272V46.867C397.277 47.6479 396.972 48.3819 396.423 48.9315L389.578 55.7752C389.152 56.2009 388.917 56.7639 388.917 57.3672V65.8732C388.917 67.0764 388.227 68.112 387.114 68.5712C386.001 69.0337 384.781 68.789 383.929 67.9377L380.145 64.1539C379.592 63.6009 379.29 62.8703 379.29 62.0894V59.2541C379.29 58.3257 378.757 57.5314 377.902 57.1761C377.044 56.8209 376.106 57.0086 375.449 57.6655L370.32 62.7932C369.894 63.2188 369.66 63.7819 369.66 64.3852V67.4451C369.66 68.6851 370.669 69.6939 371.909 69.6939H375.841C377.45 69.6939 378.761 71.0043 378.761 72.613V83.2841C378.761 84.065 378.456 84.799 377.906 85.3486L356.285 106.966C355.859 107.391 355.625 107.954 355.625 108.558V113.035C355.625 114.238 354.934 115.274 353.821 115.733C352.709 116.192 351.488 115.951 350.637 115.1L343.222 107.686C342.797 107.261 342.233 107.026 341.63 107.026C341.027 107.026 340.463 107.261 340.038 107.686L332.127 115.596C330.987 116.735 329.134 116.735 327.997 115.596L321.179 108.779C320.753 108.353 320.19 108.119 319.587 108.119H312.048C310.808 108.119 309.799 109.127 309.799 110.367V111.614C309.799 113.223 308.488 114.533 306.879 114.533H303.97C303.189 114.533 302.455 114.228 301.905 113.679L296.927 108.702C296.27 108.045 295.332 107.86 294.473 108.212C293.615 108.568 293.082 109.365 293.082 110.29V114.02C293.082 114.62 293.317 115.187 293.743 115.612L298.945 120.814C299.371 121.24 299.934 121.474 300.537 121.474C301.741 121.474 302.776 122.165 303.236 123.277C303.695 124.39 303.454 125.61 302.602 126.461L297.551 131.512C297.125 131.937 296.89 132.5 296.89 133.104V142.079C296.89 142.86 296.585 143.594 296.035 144.144L283.707 156.47C283.154 157.023 282.423 157.325 281.642 157.325L281.648 157.332ZM257.088 87.078C255.848 87.078 254.839 88.0868 254.839 89.3268V93.6837C254.839 94.4646 254.534 95.1986 253.984 95.7482L245.694 104.04C245.269 104.465 245.034 105.028 245.034 105.632V113.729C245.034 114.329 245.269 114.895 245.694 115.321L252.241 121.866C252.667 122.292 253.23 122.527 253.833 122.527H266.108C267.721 122.527 269.028 123.837 269.028 125.446V131.153C269.028 131.753 269.263 132.32 269.688 132.745L274.931 137.987C275.484 138.54 275.786 139.27 275.786 140.051V154.416C275.786 155.656 276.795 156.665 278.035 156.665H281.655C282.255 156.665 282.822 156.43 283.247 156.004L295.576 143.678C296.002 143.252 296.237 142.689 296.237 142.086V133.11C296.237 132.33 296.542 131.596 297.091 131.046L302.143 125.995C302.8 125.338 302.984 124.4 302.632 123.542C302.277 122.684 301.479 122.154 300.554 122.154C299.773 122.154 299.039 121.85 298.489 121.3L293.287 116.098C292.734 115.545 292.432 114.815 292.432 114.034V110.304C292.432 109.101 293.123 108.065 294.235 107.606C295.348 107.147 296.568 107.388 297.42 108.239L302.398 113.216C302.823 113.642 303.39 113.876 303.99 113.876H306.899C308.14 113.876 309.149 112.868 309.149 111.628V110.381C309.149 108.769 310.459 107.462 312.068 107.462H319.607C320.388 107.462 321.122 107.767 321.672 108.316L328.49 115.133C329.368 116.011 330.796 116.011 331.674 115.133L339.585 107.224C340.725 106.084 342.579 106.084 343.715 107.224L351.13 114.637C351.787 115.294 352.725 115.478 353.583 115.126C354.442 114.771 354.971 113.974 354.971 113.049V108.571C354.971 107.79 355.276 107.056 355.826 106.506L377.447 84.8895C377.872 84.4638 378.107 83.9008 378.107 83.2975V72.6264C378.107 71.3864 377.098 70.3776 375.858 70.3776H371.926C370.313 70.3776 369.006 69.0672 369.006 67.4585V64.3986C369.006 63.6177 369.311 62.8837 369.861 62.3341L374.99 57.2063C375.841 56.355 377.061 56.1137 378.174 56.5729C379.287 57.032 379.977 58.0676 379.977 59.2708V62.1062C379.977 62.7061 380.212 63.2725 380.638 63.6981L384.422 67.4819C385.079 68.1388 386.018 68.3231 386.876 67.9712C387.734 67.616 388.264 66.8183 388.264 65.8933V57.3873C388.264 56.6064 388.569 55.8724 389.118 55.3228L395.963 48.4791C396.389 48.0534 396.624 47.4904 396.624 46.8871V32.7473C396.624 31.5072 395.615 30.4984 394.374 30.4984H380.158C379.558 30.4984 378.992 30.733 378.566 31.1587L372.878 36.8461C372.325 37.3991 371.594 37.7007 370.813 37.7007H334.892C334.111 37.7007 333.377 37.3958 332.828 36.8461L325.621 29.6404C325.014 29.0338 324.166 28.826 323.348 29.0875C322.53 29.3455 321.957 30.0058 321.809 30.8503L321.042 35.3078C320.938 35.9043 320.656 36.4473 320.227 36.8763L305.109 51.9914C304.556 52.5444 303.826 52.846 303.045 52.846H284.065C283.465 52.846 282.899 53.0806 282.473 53.5063L264.657 71.316C264.231 71.7416 263.997 72.3047 263.997 72.908V79.2724C263.997 79.8723 264.231 80.4387 264.657 80.8644L271.649 87.8555C272.075 88.2812 272.638 88.5158 273.242 88.5158H281.451C282.654 88.5158 283.69 89.2062 284.149 90.3189C284.608 91.4315 284.367 92.6515 283.516 93.5028L282.718 94.3004C282.165 94.8534 281.434 95.155 280.653 95.155H270.875C269.263 95.155 267.955 93.8446 267.955 92.2359V89.3469C267.955 88.1069 266.946 87.0981 265.706 87.0981H257.101L257.088 87.078Z" fill="black"/>
<path d="M388.056 168.727H380.219C379.09 168.727 378.174 167.808 378.174 166.679V160.271C378.174 159.513 377.558 158.893 376.797 158.893H365.396C365.028 158.893 364.682 159.037 364.424 159.295L362.007 161.712C361.411 162.308 360.556 162.479 359.778 162.154C359.001 161.833 358.515 161.109 358.515 160.264V150.29C358.515 149.744 358.729 149.231 359.115 148.842L372.074 135.885C372.459 135.5 372.975 135.286 373.522 135.286H379.244C380.3 135.286 381.174 136.076 381.282 137.129L381.922 143.527C381.952 143.842 382.093 144.14 382.318 144.361L382.669 144.713C383.149 145.192 383.759 145.182 384.168 145.011C384.58 144.841 385.016 144.418 385.016 143.741C385.016 142.897 385.499 142.173 386.28 141.851C387.057 141.529 387.915 141.697 388.509 142.293L396.198 149.982C396.584 150.367 396.798 150.883 396.798 151.43V159.983C396.798 160.529 396.584 161.042 396.198 161.43L389.508 168.12C389.122 168.505 388.606 168.72 388.06 168.72L388.056 168.727ZM365.396 158.226H376.797C377.926 158.226 378.845 159.145 378.845 160.274V166.682C378.845 167.44 379.462 168.06 380.219 168.06H388.056C388.425 168.06 388.77 167.915 389.028 167.657L395.719 160.968C395.98 160.71 396.121 160.361 396.121 159.996V151.443C396.121 151.074 395.977 150.729 395.719 150.471L388.029 142.783C387.55 142.304 386.94 142.314 386.531 142.484C386.119 142.655 385.683 143.078 385.683 143.755C385.683 144.599 385.2 145.323 384.419 145.645C383.642 145.967 382.787 145.799 382.19 145.203L381.838 144.851C381.506 144.519 381.295 144.076 381.248 143.607L380.608 137.209C380.538 136.502 379.948 135.969 379.24 135.969H373.518C373.15 135.969 372.804 136.113 372.546 136.371L359.587 149.328C359.326 149.59 359.185 149.935 359.185 150.3V160.274C359.185 160.951 359.624 161.377 360.033 161.544C360.442 161.715 361.052 161.725 361.531 161.246L363.948 158.83C364.334 158.444 364.85 158.23 365.396 158.23V158.226Z" fill="black"/>
<path d="M206.104 182.796C204.964 182.796 203.861 182.347 203.006 181.489L199.604 178.087C198.769 177.253 198.31 176.143 198.31 174.96V151.922C198.31 150.743 198.769 149.63 199.604 148.795L201.146 147.254C201.853 146.546 202.245 145.605 202.245 144.603C202.245 143.601 201.857 142.659 201.146 141.952L192.679 133.486C191.844 132.651 191.385 131.542 191.385 130.359C191.385 129.176 191.844 128.066 192.679 127.232L203.305 116.608C204.769 115.143 207.019 114.888 208.775 115.984L232.645 130.902C233.946 131.716 234.723 133.117 234.723 134.652V142.535C234.723 143.714 234.264 144.827 233.429 145.662L211.658 167.429C210.951 168.137 210.558 169.078 210.558 170.081V178.359C210.558 180.182 209.513 181.747 207.83 182.444C207.267 182.679 206.683 182.793 206.11 182.793L206.104 182.796ZM206.425 115.981C205.46 115.981 204.505 116.356 203.777 117.084L193.151 127.708C192.444 128.415 192.052 129.357 192.052 130.359C192.052 131.361 192.441 132.303 193.151 133.01L201.619 141.476C202.453 142.31 202.912 143.42 202.912 144.603C202.912 145.786 202.453 146.895 201.619 147.73L200.077 149.271C199.369 149.978 198.977 150.92 198.977 151.922V174.96C198.977 175.962 199.366 176.904 200.077 177.611L203.479 181.013C204.572 182.106 206.14 182.417 207.568 181.827C208.996 181.234 209.885 179.907 209.885 178.362V170.084C209.885 168.904 210.344 167.791 211.179 166.957L232.95 145.189C233.657 144.482 234.05 143.54 234.05 142.538V134.655C234.05 133.355 233.389 132.165 232.286 131.475L208.417 116.557C207.8 116.172 207.109 115.981 206.425 115.981Z" fill="black"/>
<path d="M186.89 118.967C186.749 118.967 186.605 118.96 186.461 118.94L185.851 118.87L178.929 118.357C178.379 118.317 177.843 118.146 177.373 117.861L167.304 111.772C166.258 111.141 165.611 109.989 165.611 108.769V92.2157C165.611 91.4583 165.316 90.7444 164.78 90.2082L159.832 85.2614C159.168 84.5978 158.803 83.7164 158.803 82.7813C158.803 81.8462 159.168 80.9648 159.832 80.3012L160.791 79.3427C161.327 78.8065 161.622 78.0926 161.622 77.3352V67.4282C161.622 66.6708 161.327 65.9569 160.791 65.4207L156.628 61.2581C155.521 60.1522 153.721 60.1522 152.615 61.2581L148.593 65.2799C147.929 65.9435 147.051 66.3088 146.112 66.3088C144.667 66.3088 143.424 65.4776 142.871 64.1438C142.318 62.8065 142.609 61.3419 143.632 60.3197L144.376 59.5757C145.482 58.4697 145.482 56.67 144.376 55.564L140.886 52.0751C139.519 50.7077 139.519 48.4823 140.886 47.1149L162.185 25.8197C162.849 25.1561 163.731 24.7908 164.666 24.7908C165.601 24.7908 166.483 25.1561 167.146 25.8197L184.456 43.1267C184.993 43.6629 185.707 43.9578 186.464 43.9578C187.222 43.9578 187.936 43.6629 188.472 43.1267L196.095 35.5054C197.462 34.138 199.688 34.138 201.056 35.5054L220.075 54.5217C220.739 55.1853 221.104 56.0667 221.104 57.0018C221.104 57.9368 220.739 58.8183 220.075 59.4819L217.866 61.6905C217.202 62.3541 216.324 62.7194 215.386 62.7194C214.447 62.7194 213.569 62.3541 212.905 61.6905L207.421 56.2075C206.885 55.6712 206.171 55.3763 205.413 55.3763C204.656 55.3763 203.942 55.6712 203.405 56.2075L197.352 62.2602C196.815 62.7965 196.52 63.5103 196.52 64.2678C196.52 65.0252 196.815 65.7391 197.352 66.2753L203.834 72.757C204.941 73.863 206.741 73.863 207.847 72.757L209.627 70.9774C210.29 70.3138 211.172 69.9485 212.107 69.9485C213.042 69.9485 213.924 70.3138 214.588 70.9774L220.92 77.3083C221.583 77.9719 221.949 78.8534 221.949 79.7884C221.949 80.7235 221.583 81.6049 220.92 82.2685L199.312 103.875C198.649 104.539 197.767 104.904 196.832 104.904H184.795C183.229 104.904 181.956 106.178 181.956 107.743V108.32C181.956 109.885 183.229 111.158 184.795 111.158H186.079C187.014 111.158 187.895 111.524 188.559 112.187L189.357 112.985C190.43 114.057 190.694 115.632 190.034 116.996C189.437 118.23 188.234 118.977 186.893 118.977L186.89 118.967ZM154.62 59.7634C155.518 59.7634 156.416 60.1052 157.1 60.7889L161.263 64.9515C161.927 65.6151 162.292 66.4931 162.292 67.4316V77.3385C162.292 78.2769 161.927 79.155 161.263 79.8186L160.305 80.7771C159.768 81.3134 159.473 82.0272 159.473 82.7846C159.473 83.5421 159.768 84.2559 160.305 84.7922L165.252 89.739C165.916 90.4025 166.281 91.284 166.281 92.219V108.772C166.281 109.761 166.808 110.689 167.652 111.202L177.722 117.291C178.101 117.523 178.536 117.66 178.982 117.694L185.918 118.206L186.541 118.28C188.023 118.454 189.002 117.576 189.427 116.698C189.853 115.82 189.933 114.506 188.881 113.454L188.083 112.656C187.547 112.12 186.833 111.825 186.075 111.825H184.791C182.857 111.825 181.282 110.25 181.282 108.316V107.74C181.282 105.806 182.857 104.231 184.791 104.231H196.829C197.586 104.231 198.3 103.936 198.836 103.4L220.444 81.7926C220.98 81.2564 221.275 80.5425 221.275 79.7851C221.275 79.0276 220.98 78.3138 220.444 77.7775L214.112 71.4466C213.575 70.9104 212.861 70.6155 212.104 70.6155C211.346 70.6155 210.632 70.9104 210.096 71.4466L208.316 73.2262C206.948 74.5937 204.723 74.5937 203.355 73.2262L196.872 66.7445C196.208 66.0809 195.843 65.1995 195.843 64.2644C195.843 63.3293 196.208 62.4479 196.872 61.7843L202.926 55.7316C203.59 55.068 204.471 54.7027 205.406 54.7027C206.342 54.7027 207.223 55.068 207.887 55.7316L213.371 61.2146C213.907 61.7508 214.621 62.0457 215.379 62.0457C216.136 62.0457 216.85 61.7508 217.387 61.2146L219.596 59.006C220.132 58.4697 220.427 57.7559 220.427 56.9984C220.427 56.241 220.132 55.5271 219.596 54.9909L200.576 35.9746C199.47 34.8686 197.67 34.8686 196.564 35.9746L188.941 43.5959C188.278 44.2595 187.399 44.6248 186.461 44.6248C185.522 44.6248 184.644 44.2595 183.98 43.5959L166.67 26.2889C166.134 25.7526 165.42 25.4577 164.662 25.4577C163.905 25.4577 163.191 25.7526 162.655 26.2889L141.356 47.5841C140.249 48.6901 140.249 50.4899 141.356 51.5958L144.845 55.0847C146.213 56.4521 146.213 58.6775 144.845 60.0449L144.101 60.7889C143.273 61.6167 143.038 62.7998 143.484 63.8823C143.933 64.9615 144.936 65.6352 146.105 65.6352C146.863 65.6352 147.577 65.3402 148.113 64.804L152.136 60.7822C152.82 60.0985 153.718 59.7567 154.616 59.7567L154.62 59.7634Z" fill="black"/>
<path d="M231.787 63.8489C231.375 63.8489 230.953 63.7651 230.547 63.5975C229.334 63.0948 228.579 61.9654 228.579 60.6516V41.947C228.579 41.2734 228.318 40.6399 227.842 40.1674L225.237 37.5633C223.994 36.3199 223.994 34.2956 225.237 33.0522L229.226 29.0606C229.702 28.5847 229.964 27.9513 229.964 27.281C229.964 26.6107 229.702 25.9772 229.226 25.5013C228.75 25.0254 228.117 24.764 227.446 24.764C226.776 24.764 226.139 25.0254 225.666 25.5013L213.985 37.1812C212.741 38.4246 210.716 38.4246 209.473 37.1812L204.451 32.1607C203.613 31.3228 203.312 30.1431 203.647 29.007C203.982 27.8708 204.87 27.0397 206.03 26.7883L213.207 25.2265C213.68 25.1226 214.109 24.888 214.454 24.5462L222.717 16.2848C223.32 15.6815 224.121 15.3497 224.973 15.3497C225.824 15.3497 226.625 15.6815 227.229 16.2848L236.443 25.498C237.425 26.48 239.024 26.48 240.007 25.498L244.046 21.4595C245.289 20.2161 247.314 20.2161 248.558 21.4595L256.13 29.0304C257.373 30.2738 257.373 32.2981 256.13 33.5415L248.655 41.0153C248.179 41.4912 247.917 42.1246 247.917 42.7949V47.6948C247.917 48.5461 247.586 49.3471 246.982 49.9503L234.026 62.9038C233.41 63.5204 232.612 63.8455 231.791 63.8455L231.787 63.8489ZM227.443 24.0937C228.261 24.0937 229.076 24.4054 229.699 25.0254C230.302 25.6287 230.634 26.4297 230.634 27.281C230.634 28.1322 230.302 28.9332 229.699 29.5365L225.71 33.5281C224.728 34.5101 224.728 36.1087 225.71 37.0907L228.315 39.6948C228.918 40.2981 229.25 41.0991 229.25 41.9504V60.6549C229.25 61.6939 229.846 62.5854 230.805 62.9809C231.764 63.3797 232.816 63.1685 233.55 62.4346L246.506 49.4811C246.982 49.0052 247.244 48.3718 247.244 47.7015V42.8016C247.244 41.9504 247.575 41.1494 248.179 40.5461L255.654 33.0723C256.636 32.0903 256.636 30.4917 255.654 29.5097L248.082 21.9387C247.099 20.9567 245.501 20.9567 244.518 21.9387L240.479 25.9773C239.236 27.2206 237.211 27.2206 235.967 25.9773L226.753 16.7641C226.277 16.2881 225.643 16.0267 224.973 16.0267C224.302 16.0267 223.665 16.2881 223.193 16.7641L214.93 25.0254C214.497 25.4578 213.951 25.7561 213.354 25.8868L206.178 27.4485C205.263 27.6463 204.559 28.3032 204.297 29.2014C204.032 30.0996 204.27 31.0313 204.934 31.6915L209.955 36.712C210.938 37.694 212.537 37.694 213.519 36.712L225.201 25.0321C225.824 24.4088 226.639 24.1004 227.456 24.1004L227.443 24.0937Z" fill="black"/>
<path d="M106.045 0.660278L64.0208 40.8612H99.0764L113.557 8.16087C115.119 4.63177 112.535 0.660278 108.673 0.660278H106.045Z" fill="white"/>
<path d="M99.0764 41.193H64.0207C63.8833 41.193 63.7592 41.1092 63.7089 40.9818C63.6587 40.8545 63.6888 40.7104 63.7894 40.6165L105.814 0.415619C105.878 0.355292 105.958 0.321777 106.045 0.321777H108.673C110.601 0.321777 112.377 1.287 113.43 2.89906C114.482 4.51447 114.643 6.5287 113.862 8.29158L99.3814 40.9919C99.3278 41.1125 99.2071 41.193 99.0764 41.193ZM64.8553 40.5227H98.8585L113.249 8.02011C113.936 6.46503 113.795 4.68875 112.867 3.26437C111.938 1.83999 110.373 0.98872 108.673 0.98872H106.179L64.8553 40.5193V40.5227Z" fill="black"/>
<path d="M0.335205 13.9991L10.6763 35.3179C15.7881 45.8549 26.4677 52.5444 38.1798 52.5444H168.306C171.313 52.5444 172.972 49.0522 171.072 46.7229L167.301 42.0979C160.841 34.175 151.164 29.5801 140.943 29.5801H21.3224L12.245 17.6623C10.4885 15.3565 7.75663 14.0025 4.85711 14.0025H0.335205V13.9991Z" fill="white"/>
<path d="M168.31 52.8795H38.1832C26.4242 52.8795 15.51 46.0425 10.378 35.4653L0.0335676 14.1466C-0.0167131 14.0427 -0.010009 13.9187 0.0503278 13.8215C0.110665 13.7243 0.21793 13.6639 0.335252 13.6639H4.85381C7.83713 13.6639 10.6998 15.0816 12.5065 17.4545L21.4833 29.2416H140.943C151.311 29.2416 161.012 33.8499 167.562 41.8833L171.333 46.5084C172.295 47.6881 172.486 49.2733 171.833 50.6474C171.179 52.0215 169.828 52.8762 168.306 52.8762L168.31 52.8795ZM0.871579 14.3342L10.9813 35.1703C16.0027 45.5197 26.679 52.2059 38.1832 52.2059H168.31C169.57 52.2059 170.69 51.4987 171.229 50.3592C171.769 49.2197 171.611 47.9059 170.814 46.9307L167.042 42.3056C160.62 34.4297 151.107 29.9085 140.943 29.9085H21.3224C21.2185 29.9085 21.1179 29.8583 21.0542 29.7778L11.9769 17.86C10.2942 15.6514 7.63265 14.3342 4.85716 14.3342H0.871579Z" fill="black"/>
<path d="M99.0766 40.8578L55.0541 66.9389C49.8015 70.0491 43.808 71.6913 37.704 71.6913H31.7876L64.0209 40.8578H99.0766Z" fill="white"/>
<path d="M37.7005 72.0299H31.7841C31.6467 72.0299 31.5227 71.9461 31.4724 71.8187C31.4221 71.6914 31.4523 71.5473 31.5528 71.4501L63.7861 40.6165C63.9202 40.4892 64.1313 40.4925 64.2587 40.6266C64.3861 40.7606 64.3828 40.9718 64.2487 41.0991L32.6188 71.3562H37.7005C43.7409 71.3562 49.684 69.7274 54.8797 66.6508L98.9021 40.5696C99.063 40.4758 99.2675 40.5294 99.3613 40.6869C99.4552 40.8478 99.4016 41.0522 99.244 41.1461L55.2216 67.2272C49.922 70.3676 43.8615 72.0265 37.7005 72.0265V72.0299Z" fill="black"/>
<path d="M162.993 40.9383H150.825C145.626 40.9383 140.655 38.4582 137.531 34.3057L136.019 32.2982C135.909 32.1507 135.939 31.9396 136.086 31.829C136.234 31.7184 136.445 31.7486 136.556 31.896L138.067 33.9036C141.068 37.8885 145.837 40.268 150.829 40.268H162.997C163.181 40.268 163.332 40.4188 163.332 40.6032C163.332 40.7875 163.181 40.9383 162.997 40.9383H162.993Z" fill="black"/>
<path d="M370.087 26.3504C371.845 18.9067 367.234 11.4482 359.789 9.69136C352.344 7.93449 344.884 12.5445 343.127 19.9882C341.37 27.4319 345.981 34.8904 353.426 36.6473C360.871 38.4041 368.33 33.7941 370.087 26.3504Z" fill="white"/>
<path d="M356.624 3.38501C345.971 3.38501 337.333 12.0184 337.333 22.6727C337.333 41.2466 356.624 60.8091 356.624 60.8091C356.624 60.8091 375.915 41.0723 375.915 22.6727C375.915 12.0218 367.28 3.38501 356.624 3.38501ZM356.624 32.0971C351.66 32.0971 347.637 28.072 347.637 23.1118C347.637 18.1516 351.663 14.1265 356.624 14.1265C361.585 14.1265 365.611 18.1516 365.611 23.1118C365.611 28.072 361.585 32.0971 356.624 32.0971Z" fill="#60BFE0"/>
<path d="M193.581 58.8686C198.092 58.8686 201.75 55.2119 201.75 50.7011C201.75 46.1903 198.092 42.5336 193.581 42.5336C189.069 42.5336 185.412 46.1903 185.412 50.7011C185.412 55.2119 189.069 58.8686 193.581 58.8686Z" fill="white"/>
<path d="M194.358 38.5017C187.762 38.5017 182.415 43.8473 182.415 50.443C182.415 61.9419 194.358 74.0541 194.358 74.0541C194.358 74.0541 206.302 61.8347 206.302 50.443C206.302 43.8473 200.955 38.5017 194.358 38.5017ZM194.358 56.2779C191.285 56.2779 188.794 53.7878 188.794 50.7145C188.794 47.6412 191.285 45.151 194.358 45.151C197.432 45.151 199.923 47.6412 199.923 50.7145C199.923 53.7878 197.432 56.2779 194.358 56.2779Z" fill="#DB1F35"/>
<path d="M268.952 103.366C267.245 103.366 265.536 103.326 263.82 103.242C229.632 101.607 205.558 84.1253 194.251 73.8497C194.114 73.7257 194.104 73.5146 194.228 73.3772C194.352 73.2397 194.563 73.2297 194.7 73.3537C205.943 83.569 229.873 100.946 263.853 102.572C316.681 105.099 350.235 67.5691 356.423 60.0215C356.541 59.8774 356.752 59.8573 356.896 59.9746C357.04 60.0919 357.06 60.3031 356.943 60.4472C354.375 63.5775 344.808 74.5703 329.436 84.6213C310.396 97.0687 290.073 103.366 268.955 103.366H268.952Z" fill="#60BFE0"/>
<path d="M294.243 278.474L299.076 255.034L309.83 161.9L293.743 163.123C280.704 190.32 266.035 239.875 255.47 278.474H294.243Z" fill="#DB1F35"/>
<path d="M336.318 278.474C336.224 243.092 336.197 205.733 336.479 195.555C337.049 174.98 318.907 163.401 318.907 163.401L309.83 161.9L301.289 194.543C301.289 194.543 300.059 239.044 297.934 278.474H336.321H336.318Z" fill="#DB1F35"/>
<path d="M299.174 256.491C299.174 256.491 299.167 256.491 299.16 256.491C298.976 256.485 298.832 256.331 298.839 256.143C299.522 237.609 299.901 219.903 299.905 219.726C299.905 219.699 299.908 219.672 299.915 219.649L305.603 197.911C305.65 197.733 305.834 197.626 306.012 197.673C306.19 197.72 306.297 197.904 306.25 198.082L300.572 219.783C300.551 220.731 300.176 238.058 299.506 256.17C299.499 256.351 299.351 256.491 299.17 256.491H299.174Z" fill="black"/>
<path d="M199.356 180.339L200.56 179.548C205.078 176.576 210.281 174.803 215.674 174.39L234.013 168.582L231.254 154.687L205.242 154.53C202.497 154.707 200.017 155.733 197.171 156.688L193.906 157.781L186.719 169.611L199.356 180.339Z" fill="white"/>
<path d="M199.356 180.674C199.279 180.674 199.202 180.648 199.138 180.594L186.501 169.866C186.377 169.759 186.347 169.578 186.431 169.437L193.618 157.606C193.658 157.539 193.722 157.489 193.799 157.462L197.064 156.37C197.56 156.205 198.042 156.034 198.518 155.87C200.778 155.086 202.909 154.345 205.222 154.194L231.258 154.349C231.419 154.349 231.553 154.463 231.586 154.62L234.345 168.515C234.378 168.683 234.281 168.847 234.117 168.901L215.778 174.709C215.754 174.716 215.728 174.722 215.701 174.722C210.378 175.128 205.206 176.894 200.747 179.827L199.544 180.617C199.487 180.654 199.423 180.671 199.36 180.671L199.356 180.674ZM187.155 169.541L199.383 179.92L200.379 179.267C204.924 176.277 210.19 174.478 215.61 174.059L233.628 168.351L230.979 155.019L205.239 154.865C203.04 155.009 200.949 155.736 198.736 156.504C198.257 156.671 197.771 156.839 197.275 157.006L194.127 158.062L187.155 169.541Z" fill="black"/>
<path d="M288.222 114.017C285.085 114.268 282.245 115.981 280.12 118.303C273.078 126.012 258.526 146.697 258.526 146.697C258.526 146.697 215.027 154.168 210.337 154.533L215.674 174.725C219.934 174.343 272.401 166.421 272.401 166.421L252.684 261.542C268.224 273.701 281.106 272.015 281.106 272.015L295.03 113.91C295.03 113.91 289.918 113.88 288.219 114.017H288.222Z" fill="white"/>
<path d="M259.68 266.589C259.623 266.589 259.566 266.576 259.515 266.546C257.132 265.188 254.765 263.593 252.479 261.807C252.379 261.73 252.332 261.599 252.359 261.475L271.978 166.826C266.705 167.62 219.713 174.705 215.707 175.061C215.543 175.074 215.396 174.97 215.352 174.813L210.016 154.62C209.989 154.523 210.009 154.422 210.066 154.342C210.123 154.261 210.213 154.208 210.314 154.201C214.806 153.849 255.63 146.855 258.335 146.392C259.512 144.723 273.172 125.422 279.876 118.079C282.246 115.482 285.202 113.923 288.199 113.682C289.892 113.548 294.829 113.575 295.037 113.575C295.221 113.575 295.372 113.725 295.369 113.913C295.369 114.097 295.218 114.245 295.034 114.245C294.983 114.245 289.915 114.218 288.252 114.349C285.427 114.573 282.628 116.058 280.372 118.528C273.423 126.133 258.949 146.68 258.805 146.888C258.754 146.962 258.674 147.009 258.587 147.026C256.854 147.324 217.005 154.161 210.767 154.828L215.929 174.36C221.751 173.727 271.841 166.163 272.354 166.085C272.461 166.069 272.572 166.106 272.649 166.186C272.726 166.266 272.756 166.377 272.732 166.484L253.059 261.401C255.268 263.117 257.551 264.649 259.85 265.959C260.011 266.05 260.068 266.254 259.975 266.415C259.914 266.522 259.8 266.586 259.683 266.586L259.68 266.589Z" fill="black"/>
<path d="M272.317 167.188C272.293 167.188 272.27 167.188 272.25 167.181C272.069 167.144 271.951 166.967 271.988 166.786L274.516 154.583C274.553 154.402 274.73 154.285 274.911 154.322C275.092 154.359 275.21 154.536 275.173 154.717L272.645 166.92C272.612 167.077 272.474 167.188 272.317 167.188Z" fill="black"/>
<path d="M318.629 120.475L314.687 113.528C314.687 113.528 304.506 112.76 294.558 113.447C293.404 113.528 292.359 114.413 291.913 115.478L286.097 129.404C284.062 134.277 283.318 139.596 283.942 144.841L289.865 172.721L311.311 172.809L318.629 120.475Z" fill="#DB1F35"/>
<path d="M311.311 272.012V113.055C311.311 113.055 323.781 113.333 330.853 125.422C337.316 136.472 337.377 158.548 337.377 158.548L331.648 161.987L349.407 261.334C349.407 261.334 332.938 270.142 311.314 272.016L311.311 272.012Z" fill="white"/>
<path d="M336.207 267.089C336.066 267.089 335.935 267.002 335.888 266.861C335.831 266.687 335.925 266.496 336.099 266.435C343.209 264.062 347.986 261.686 349.032 261.15L338.386 201.584C338.352 201.403 338.473 201.229 338.657 201.196C338.841 201.162 339.012 201.286 339.046 201.467L349.736 261.274C349.762 261.418 349.692 261.559 349.565 261.629C349.514 261.656 344.409 264.367 336.314 267.069C336.28 267.082 336.244 267.085 336.207 267.085V267.089Z" fill="black"/>
<path d="M369.791 211.33H309.612V256.166H369.791V211.33Z" fill="black"/>
<path d="M345.485 238.608H333.917C333.639 238.608 333.415 238.383 333.415 238.105V228.048C333.415 227.769 333.639 227.545 333.917 227.545H345.485C345.764 227.545 345.988 227.769 345.988 228.048V238.105C345.988 238.383 345.764 238.608 345.485 238.608ZM334.42 237.603H344.982V228.55H334.42V237.603Z" fill="white"/>
<path d="M333.918 234.251C333.817 234.251 333.716 234.221 333.629 234.161L312.317 219.156C312.089 218.995 312.035 218.684 312.196 218.456C312.357 218.228 312.669 218.174 312.897 218.335L334.209 233.34C334.437 233.5 334.491 233.812 334.33 234.04C334.233 234.177 334.075 234.255 333.918 234.255V234.251Z" fill="white"/>
<path d="M345.486 234.251C345.328 234.251 345.17 234.177 345.073 234.037C344.912 233.809 344.969 233.497 345.194 233.336L366.506 218.332C366.734 218.171 367.046 218.228 367.207 218.452C367.368 218.68 367.311 218.992 367.086 219.153L345.774 234.157C345.687 234.218 345.586 234.248 345.486 234.248V234.251Z" fill="white"/>
<path d="M354.55 208.451C354.365 208.451 354.214 208.301 354.214 208.116V203.984C354.214 201.782 352.424 199.992 350.222 199.992H329.181C326.979 199.992 325.189 201.782 325.189 203.984V208.116C325.189 208.301 325.038 208.451 324.854 208.451C324.669 208.451 324.519 208.301 324.519 208.116V203.984C324.519 201.413 326.61 199.322 329.181 199.322H350.222C352.793 199.322 354.885 201.413 354.885 203.984V208.116C354.885 208.301 354.734 208.451 354.55 208.451Z" fill="black"/>
<path d="M357.684 209.953H351.415C351.231 209.953 351.08 209.802 351.08 209.618C351.08 209.433 351.231 209.283 351.415 209.283H357.684C357.868 209.283 358.019 209.433 358.019 209.618C358.019 209.802 357.868 209.953 357.684 209.953Z" fill="black"/>
<path d="M327.988 209.953H321.719C321.535 209.953 321.384 209.802 321.384 209.618C321.384 209.433 321.535 209.283 321.719 209.283H327.988C328.172 209.283 328.323 209.433 328.323 209.618C328.323 209.802 328.172 209.953 327.988 209.953Z" fill="black"/>
<path d="M350.41 199.808L350.222 199.654C350.222 199.654 339.901 151.493 330.19 126.126C327.535 119.188 320.925 112.455 313.889 113.41L311.727 113.705L319.514 168.556L328.749 201.933C329.573 204.916 332.832 206.608 335.684 205.402C336.11 205.221 336.492 204.989 336.804 204.695C336.804 204.695 339.767 207.302 343.297 205.428C343.297 205.428 346.87 207.302 349.015 205.428C349.793 204.751 350.413 204.007 350.886 203.337C351.68 202.218 351.469 200.676 350.41 199.805V199.808Z" fill="white"/>
<path d="M346.575 206.601C345.117 206.601 343.759 206.022 343.3 205.804C340.25 207.322 337.598 205.7 336.817 205.13C336.535 205.355 336.2 205.549 335.815 205.71C334.407 206.307 332.795 206.26 331.397 205.583C329.942 204.879 328.859 203.582 328.427 202.023L313.534 148.973L312.381 147.944C312.243 147.82 312.23 147.609 312.354 147.471C312.478 147.334 312.689 147.321 312.826 147.445L314.053 148.537C314.1 148.581 314.137 148.634 314.154 148.698L329.074 201.842C329.453 203.216 330.408 204.359 331.688 204.979C332.932 205.583 334.306 205.623 335.553 205.093C335.966 204.919 336.308 204.704 336.572 204.453C336.7 204.332 336.894 204.329 337.025 204.443C337.139 204.544 339.864 206.87 343.139 205.13C343.236 205.08 343.354 205.077 343.451 205.13C343.484 205.147 346.85 206.873 348.794 205.174C349.454 204.597 350.064 203.914 350.611 203.143C351.298 202.171 351.117 200.82 350.195 200.066L350.007 199.912C349.947 199.865 349.907 199.798 349.893 199.724C349.789 199.242 339.465 151.295 329.878 126.247C327.358 119.664 320.912 113.045 313.923 113.746C313.178 113.819 312.461 113.916 311.784 114.037C311.6 114.071 311.429 113.947 311.395 113.766C311.362 113.585 311.486 113.41 311.667 113.377C312.357 113.256 313.095 113.156 313.852 113.079C321.17 112.345 327.891 119.192 330.498 126.009C339.877 150.508 349.947 196.825 350.52 199.473L350.617 199.553C351.811 200.532 352.045 202.281 351.154 203.538C350.577 204.353 349.93 205.077 349.23 205.686C348.439 206.377 347.487 206.605 346.572 206.605L346.575 206.601Z" fill="black"/>
<path d="M336.217 204.627C336.113 204.627 336.012 204.581 335.945 204.49C334.581 202.617 333.576 200.532 332.949 198.3C332.898 198.122 333.002 197.938 333.18 197.888C333.361 197.837 333.542 197.941 333.592 198.119C334.196 200.274 335.168 202.285 336.485 204.095C336.592 204.245 336.562 204.453 336.411 204.564C336.351 204.607 336.284 204.627 336.214 204.627H336.217Z" fill="black"/>
<path d="M342.827 205.247C342.74 205.247 342.653 205.214 342.589 205.147C340.746 203.267 339.539 200.793 339.187 198.186C339.163 198.002 339.291 197.834 339.475 197.811C339.659 197.787 339.827 197.914 339.854 198.099C340.189 200.565 341.332 202.905 343.072 204.681C343.203 204.812 343.199 205.026 343.069 205.154C343.005 205.217 342.918 205.251 342.834 205.251L342.827 205.247Z" fill="black"/>
<path d="M349.035 203.176C348.958 203.176 348.884 203.149 348.821 203.099C346.967 201.551 345.791 199.285 345.596 196.879C345.579 196.694 345.717 196.534 345.905 196.517C346.089 196.5 346.25 196.641 346.267 196.825C346.448 199.054 347.537 201.152 349.253 202.586C349.394 202.704 349.414 202.915 349.297 203.059C349.23 203.139 349.136 203.18 349.039 203.18L349.035 203.176Z" fill="black"/>
<path d="M325.453 188.574C325.276 188.574 325.128 188.436 325.118 188.259C325.108 188.074 325.249 187.917 325.433 187.904L346.139 186.684C346.32 186.67 346.481 186.814 346.494 186.999C346.504 187.183 346.363 187.34 346.179 187.354L325.473 188.574C325.473 188.574 325.46 188.574 325.453 188.574Z" fill="black"/>
<path d="M324.233 183.966C324.056 183.966 323.905 183.825 323.898 183.644C323.891 183.459 324.032 183.302 324.22 183.295L344.483 182.437C344.667 182.427 344.825 182.571 344.832 182.759C344.838 182.943 344.698 183.101 344.51 183.108L324.247 183.966C324.247 183.966 324.237 183.966 324.233 183.966Z" fill="black"/>
<path d="M347.825 199.657C348.043 199.597 350.222 199.657 350.222 199.657H347.825Z" fill="white"/>
<path d="M350.222 199.992C350.222 199.992 350.215 199.992 350.212 199.992C349.21 199.965 348.07 199.952 347.902 199.982C347.725 200.012 347.547 199.905 347.507 199.731C347.467 199.557 347.56 199.382 347.735 199.335C347.956 199.272 349.216 199.295 350.232 199.322C350.416 199.329 350.564 199.483 350.557 199.667C350.55 199.848 350.403 199.992 350.222 199.992Z" fill="black"/>
<path d="M292.067 99.2337C292.067 99.2337 278.676 95.594 282.604 84.6715C285.491 76.6515 299.489 71.8555 307.933 82.9254C307.933 82.9254 320.888 82.4897 313.755 97.635C313.755 97.635 310.44 104.288 303.907 104.74C300.652 104.965 292.067 99.237 292.067 99.237V99.2337Z" fill="black"/>
<path d="M308.588 84.2455C312.054 81.1507 311.65 75.045 307.687 70.6081C303.723 66.1711 297.701 65.0832 294.235 68.178C290.769 71.2729 291.173 77.3786 295.137 81.8155C299.1 86.2524 305.123 87.3404 308.588 84.2455Z" fill="black"/>
<path d="M314.409 80.375C318.297 77.8341 318.81 71.7375 315.554 66.7579C312.299 61.7783 306.508 59.8013 302.62 62.3422C298.732 64.8831 298.219 70.9797 301.475 75.9593C304.73 80.9389 310.521 82.9159 314.409 80.375Z" fill="black"/>
<path d="M318.964 85.4351C321.965 81.8876 320.714 75.8977 316.171 72.0563C311.627 68.2149 305.512 67.9766 302.511 71.5241C299.511 75.0716 300.762 81.0615 305.305 84.9029C309.848 88.7443 315.964 88.9826 318.964 85.4351Z" fill="black"/>
<path d="M324.365 79.0245C327.366 75.477 326.115 69.4871 321.572 65.6456C317.029 61.8042 310.913 61.566 307.913 65.1134C304.912 68.6609 306.163 74.6508 310.706 78.4922C315.25 82.3337 321.365 82.5719 324.365 79.0245Z" fill="black"/>
<path d="M301.892 99.532L310.212 113.059L294.001 130.878L295.543 115.046L298.46 113.407L293.351 105.139L301.892 99.532Z" fill="white"/>
<path d="M297.132 114.486C297.015 114.486 296.901 114.426 296.841 114.315C296.75 114.154 296.807 113.95 296.968 113.86L297.99 113.286L293.066 105.313C292.969 105.156 293.016 104.951 293.173 104.854L301.818 99.4482C301.895 99.4013 301.986 99.3845 302.073 99.4046C302.16 99.4247 302.234 99.4783 302.281 99.5554L310.493 112.881C310.591 113.038 310.54 113.246 310.383 113.343C310.225 113.441 310.017 113.39 309.92 113.233L301.882 100.196L293.804 105.246L298.734 113.233C298.781 113.31 298.798 113.404 298.775 113.494C298.751 113.581 298.694 113.658 298.614 113.702L297.286 114.446C297.236 114.476 297.179 114.49 297.122 114.49L297.132 114.486Z" fill="black"/>
<path d="M302.928 101.161C302.928 101.161 298.627 108.145 290.146 107.089C281.689 106.037 289.09 87.6844 289.09 87.6844C289.09 87.6844 290.103 89.7959 294.487 89.4708C298.868 89.1457 301.711 90.0405 299.844 94.5047C297.977 98.9722 302.123 97.0183 302.123 97.0183C302.123 97.0183 306.132 93.1641 307.714 95.8051C309.296 98.4427 306.538 101.895 302.924 101.164L302.928 101.161Z" fill="white"/>
<path d="M291.853 107.529C291.289 107.529 290.706 107.495 290.103 107.418C288.591 107.23 287.455 106.506 286.724 105.266C283.737 100.192 288.571 88.0699 288.779 87.5538C288.829 87.4298 288.946 87.3493 289.08 87.3426C289.211 87.3393 289.335 87.413 289.392 87.5337C289.399 87.5504 290.401 89.4306 294.46 89.1323C297.598 88.9011 299.448 89.3301 300.283 90.4897C300.963 91.4348 300.923 92.7888 300.152 94.6321C299.485 96.2274 299.693 96.7603 299.874 96.9379C300.296 97.3434 301.483 96.9379 301.932 96.7368C302.284 96.4084 304.6 94.3204 306.454 94.5651C307.111 94.6522 307.631 95.0108 308.003 95.6308C308.754 96.8809 308.666 98.379 307.775 99.6425C306.749 101.094 304.926 101.821 303.082 101.529C302.355 102.578 298.55 107.532 291.849 107.532L291.853 107.529ZM289.188 88.3615C288.273 90.8181 284.83 100.725 287.304 104.924C287.931 105.99 288.876 106.59 290.187 106.751C290.76 106.821 291.313 106.855 291.849 106.855C298.925 106.855 302.606 101.043 302.643 100.98C302.717 100.859 302.857 100.799 302.995 100.829C304.651 101.164 306.313 100.544 307.228 99.2504C307.962 98.2115 308.036 96.9848 307.43 95.9693C307.165 95.5269 306.816 95.2823 306.367 95.222C304.724 95.0041 302.381 97.2295 302.358 97.2529C302.331 97.2798 302.301 97.2999 302.267 97.3133C302.063 97.4105 300.259 98.2249 299.411 97.4138C298.858 96.8843 298.899 95.8889 299.532 94.3673C300.196 92.7821 300.263 91.6057 299.737 90.8751C299.059 89.9367 297.35 89.5848 294.507 89.7959C291.326 90.0305 289.818 89.0217 289.184 88.3581L289.188 88.3615Z" fill="black"/>
<path d="M302.861 99.4784C302.774 99.4784 302.683 99.4449 302.619 99.3745C302.492 99.2404 302.495 99.0293 302.63 98.9019C303.377 98.1914 304.396 97.7557 305.428 97.7121C305.613 97.7054 305.77 97.8462 305.777 98.0339C305.784 98.2182 305.643 98.3757 305.455 98.3824C304.584 98.4193 303.722 98.788 303.089 99.3879C303.025 99.4482 302.941 99.4817 302.857 99.4817L302.861 99.4784Z" fill="black"/>
<path d="M50.636 278.584L58.4496 255.573C58.0675 257.963 55.835 274.837 55.1747 278.584L99.1032 278.574C102.894 224.743 96.9814 162.664 96.9814 162.664L42.0883 167.433C34.64 180.661 16.1233 236.49 0.757568 278.574L50.6327 278.584H50.636Z" fill="white"/>
<path d="M0.761028 278.909C0.724155 278.909 0.68393 278.903 0.647058 278.889C0.472752 278.826 0.382247 278.635 0.445935 278.46C5.04829 265.852 9.97245 251.91 14.7324 238.43C25.9651 206.608 36.5776 176.552 41.8001 167.272C41.8537 167.175 41.9543 167.111 42.0649 167.101L96.958 162.332C97.139 162.315 97.3033 162.449 97.32 162.633C97.3804 163.254 103.176 225.236 99.4385 278.44C99.4251 278.625 99.2642 278.765 99.0799 278.752C98.8955 278.739 98.7547 278.578 98.7681 278.393C102.358 227.26 97.1357 167.999 96.6831 163.029L42.2996 167.755C37.0737 177.159 26.5282 207.034 15.3659 238.652C10.606 252.135 5.68518 266.08 1.07947 278.688C1.02919 278.826 0.901813 278.909 0.76438 278.909H0.761028Z" fill="black"/>
<path d="M50.6361 278.919C50.5993 278.919 50.5657 278.913 50.5289 278.903C50.3546 278.842 50.2607 278.651 50.3177 278.477L75.0424 205.67C75.8301 203.273 77.8514 201.427 80.3151 200.86L83.9253 200.029C84.1029 199.986 84.284 200.1 84.3275 200.281C84.3678 200.462 84.2571 200.642 84.0761 200.683L80.466 201.514C78.2302 202.03 76.3932 203.706 75.6793 205.884L50.9512 278.695C50.9043 278.836 50.7736 278.923 50.6328 278.923L50.6361 278.919Z" fill="black"/>
<path d="M55.1613 279C55.1613 279 55.1312 279 55.1144 278.997C54.9301 278.97 54.8027 278.802 54.8295 278.618L58.1044 255.607C58.1313 255.422 58.3022 255.295 58.4832 255.322C58.6676 255.349 58.795 255.516 58.7681 255.701L55.4932 278.712C55.4697 278.879 55.3256 279 55.1613 279Z" fill="black"/>
<path d="M87.7667 85.2045L77.6536 102.575C82.1855 104.613 88.4203 108.031 90.4416 110.753L98.9525 95.1416C98.758 94.0356 92.3623 79.7918 87.7667 85.2011V85.2045Z" fill="white"/>
<path d="M90.4449 111.091C90.3376 111.091 90.2404 111.041 90.1767 110.957C88.2225 108.323 82.1351 104.961 77.5194 102.883C77.4322 102.843 77.3685 102.77 77.3384 102.679C77.3082 102.589 77.3216 102.491 77.3685 102.408L87.4817 85.0369C87.4917 85.0201 87.5018 85.0034 87.5152 84.99C88.4973 83.8337 89.6337 83.4215 90.894 83.7633C95.1243 84.9095 99.1367 94.2199 99.2876 95.0879C99.301 95.1617 99.2876 95.2388 99.2507 95.3058L90.7399 110.917C90.6862 111.017 90.5823 111.085 90.4683 111.091C90.4616 111.091 90.4516 111.091 90.4449 111.091ZM78.1328 102.424C82.5475 104.442 88.1454 107.555 90.3912 110.153L98.597 95.0946C98.2216 93.8378 94.3802 85.3988 90.713 84.4068C89.7208 84.1387 88.8459 84.4604 88.0415 85.3988L78.1328 102.424Z" fill="black"/>
<path d="M88.96 68.1321C90.5689 66.768 92.0539 66.2083 93.74 66.2586C95.4261 66.3089 97.1356 67.76 96.9144 69.4324C100.149 65.8464 105.465 64.2846 110.128 65.5548C113.135 66.3725 116.024 68.6247 116.437 71.7114C116.789 74.3356 115.25 76.9263 113.168 78.5551C111.083 80.1873 108.512 81.0419 105.998 81.8697C107.916 82.2317 108.781 84.4973 108.583 86.4378C108.412 88.1169 107.497 89.8462 105.854 90.9053C102.526 93.0503 97.5177 93.8312 93.6327 93.0536C90.3511 92.3967 85.2258 88.328 84.6693 84.5878C84.0325 80.318 82.7855 77.9586 84.4381 73.8262C85.4303 71.3495 87.1633 69.6503 88.96 68.1287V68.1321Z" fill="black"/>
<path d="M87.7263 87.155C87.5586 87.155 87.4145 87.031 87.3944 86.8635C87.3408 86.4345 87.0894 86.0189 86.7106 85.7273C86.3284 85.4324 85.8659 85.2983 85.4368 85.3553C85.2524 85.3788 85.0848 85.2514 85.0614 85.0671C85.0379 84.8827 85.1653 84.7152 85.3497 84.6917C85.9564 84.6113 86.6 84.7956 87.1195 85.1978C87.6391 85.6 87.9844 86.1764 88.0615 86.7797C88.0849 86.964 87.9542 87.1316 87.7698 87.155C87.7564 87.155 87.7397 87.155 87.7263 87.155Z" fill="black"/>
<path d="M89.8583 83.9275C89.5733 83.1433 89.3387 82.3423 88.7655 81.6854C87.9308 80.7235 86.637 80.2041 85.3665 80.4387C83.8615 80.7135 82.6145 81.9736 82.2491 83.4583C81.8837 84.943 82.3597 86.5819 83.3855 87.7181C84.4112 88.8542 85.9364 89.4876 87.4649 89.5312C87.4917 89.6184 87.5219 89.7088 87.5487 89.796C88.1219 89.1324 88.5644 88.3481 88.8929 87.5337C89.3622 86.3808 89.6203 85.1542 89.8549 83.9309L89.8583 83.9275Z" fill="white"/>
<path d="M87.5486 90.1278C87.5252 90.1278 87.5051 90.1278 87.4816 90.1211C87.3609 90.0976 87.2671 90.0105 87.2302 89.8932L87.2168 89.853C85.6212 89.7491 84.1463 89.0587 83.1373 87.9393C82.0043 86.6858 81.5384 84.9364 81.9239 83.3746C82.3328 81.7156 83.6938 80.4018 85.3061 80.1069C86.6536 79.8589 88.0782 80.3784 89.0202 81.4642C89.5599 82.0876 89.818 82.8149 90.0694 83.5187L90.1733 83.8136C90.1934 83.8706 90.2001 83.9309 90.1867 83.9912C89.9587 85.1844 89.6939 86.4512 89.2079 87.6577C88.8392 88.5693 88.3665 89.3603 87.8067 90.0138C87.743 90.0876 87.6492 90.1311 87.552 90.1311L87.5486 90.1278ZM85.9765 80.7168C85.7921 80.7168 85.6078 80.7336 85.4268 80.7671C84.0893 81.0118 82.9161 82.1513 82.5742 83.5354C82.2423 84.8827 82.6479 86.3976 83.6334 87.4902C84.5586 88.5124 85.9933 89.1492 87.4749 89.1927C87.5117 89.1927 87.5486 89.2028 87.5855 89.2128C87.9743 88.69 88.3095 88.0834 88.5878 87.403C89.0403 86.2836 89.295 85.0872 89.5129 83.9544L89.4358 83.7432C89.1978 83.0696 88.9699 82.4328 88.514 81.9066C87.8537 81.1492 86.9184 80.7202 85.9765 80.7202V80.7168Z" fill="black"/>
<path d="M103.085 78.6389C102.64 77.419 94.1925 79.879 95.1813 82.4697C96.3411 85.5128 93.2472 85.9552 93.3343 86.1328C94.769 89.1559 94.2461 93.9183 97.4305 94.9439C99.254 95.5304 104.302 93.3687 106.092 92.7218C106.055 91.9208 105.978 91.1198 105.884 90.3255C105.465 86.7663 104.316 82.0072 103.085 78.6423V78.6389Z" fill="white"/>
<path d="M98.2349 92.4168C95.0505 91.3913 94.7655 89.1558 93.3309 86.1328C93.2437 85.9518 93.1733 85.7675 93.0929 85.5832C93.0124 85.7139 92.9119 85.8345 92.7744 85.9351C92.0135 86.4981 90.8839 85.915 90.3878 85.1039C90.1598 84.7285 89.9989 84.3297 89.8548 83.9242C89.6201 85.1475 89.362 86.3741 88.8928 87.527C88.5609 88.3414 88.1184 89.1257 87.5486 89.7893C88.3464 92.3397 89.5196 94.7763 91.0247 96.9882C92.2314 98.7612 93.6862 100.427 95.56 101.476C97.4304 102.525 100.816 103.45 102.79 102.609C104.842 101.734 106.045 100.571 106.602 98.4126C106.96 97.0285 106.005 92.2593 105.941 90.8282C103.612 90.7813 100.058 93 98.2349 92.4135V92.4168Z" fill="black"/>
<path d="M87.3576 86.8065C87.2235 86.8065 87.0995 86.726 87.0459 86.5953C86.7207 85.7843 86.0369 85.1207 85.2157 84.819C85.0413 84.7554 84.9542 84.5643 85.0179 84.3901C85.0816 84.2158 85.2726 84.1286 85.4469 84.1923C86.4425 84.5576 87.2738 85.362 87.6694 86.3473C87.7397 86.5182 87.6559 86.7126 87.4816 86.783C87.4414 86.7998 87.3978 86.8065 87.3576 86.8065Z" fill="black"/>
<path d="M137.099 126.609C139.254 122.771 143.478 115.803 145.043 112.65C145.043 112.65 150.587 114.339 154.764 114.325C158.944 114.312 162.769 114.811 163.114 113.31C163.456 111.805 160.533 110.555 158.381 110.384C158.381 110.384 169.496 110.642 169.245 107.153C168.99 103.664 164.425 105.159 164.425 105.159C164.425 105.159 169.691 103.279 168.407 100.718C167.12 98.1579 163.245 100.615 163.245 100.615C163.245 100.615 166.225 98.5902 164.881 96.8475C163.536 95.108 157.406 99.0293 152.522 96.9815C152.522 96.9815 158.854 95.3762 158.29 93.0033C157.727 90.6305 153.262 91.9945 149.035 92.5408C144.809 93.0871 138.906 93.1977 133.324 99.9878C127.747 106.775 124.063 112.264 124.063 112.264C124.063 112.264 130.495 120.546 137.099 126.609Z" fill="white"/>
<path d="M137.099 126.944C137.015 126.944 136.935 126.914 136.871 126.857C130.321 120.844 123.862 112.556 123.795 112.472C123.707 112.358 123.701 112.201 123.781 112.08C123.818 112.026 127.536 106.503 133.063 99.78C138.249 93.4692 143.81 92.8224 147.869 92.3498C148.255 92.3062 148.63 92.2627 148.989 92.2157C149.833 92.1051 150.691 91.9644 151.519 91.827C155.046 91.2405 158.089 90.7344 158.612 92.933C159.102 94.9874 155.528 96.4118 153.648 97.0083C156.001 97.6016 158.565 97.0217 160.681 96.5425C162.766 96.0733 164.411 95.7013 165.142 96.6464C165.491 97.0955 165.621 97.5982 165.534 98.1411C165.457 98.6271 165.209 99.0863 164.911 99.4851C165.642 99.2538 166.48 99.1164 167.224 99.3209C167.881 99.5018 168.38 99.9241 168.705 100.568C168.994 101.141 169.02 101.727 168.786 102.314C168.424 103.215 167.475 103.966 166.567 104.506C167.224 104.519 167.918 104.646 168.477 105.022C169.141 105.467 169.513 106.175 169.58 107.126C169.62 107.676 169.429 108.172 169.017 108.608C167.609 110.086 163.697 110.538 161.026 110.669C161.914 111.021 162.698 111.507 163.128 112.09C163.429 112.502 163.536 112.948 163.439 113.38C163.107 114.831 160.694 114.774 157.352 114.694C156.517 114.674 155.652 114.654 154.764 114.657C154.747 114.657 154.731 114.657 154.714 114.657C151.02 114.657 146.384 113.387 145.214 113.045C144.172 115.096 142.211 118.451 140.317 121.699C139.211 123.592 138.168 125.379 137.387 126.766C137.337 126.857 137.25 126.917 137.149 126.934C137.132 126.934 137.112 126.937 137.096 126.937L137.099 126.944ZM124.478 112.251C125.467 113.504 131.169 120.64 137.015 126.076C137.769 124.742 138.731 123.1 139.74 121.367C141.711 117.992 143.749 114.503 144.745 112.502C144.819 112.355 144.986 112.284 145.144 112.331C145.197 112.348 150.685 114.02 154.768 113.994C155.663 113.994 156.534 114.01 157.372 114.03C160.05 114.094 162.581 114.154 162.789 113.236C162.846 112.992 162.779 112.747 162.591 112.492C161.901 111.55 159.856 110.84 158.354 110.719C158.173 110.706 158.036 110.548 158.046 110.367C158.056 110.186 158.203 110.042 158.388 110.049C158.468 110.049 166.563 110.213 168.531 108.145C168.813 107.85 168.937 107.532 168.91 107.177C168.856 106.429 168.591 105.906 168.102 105.578C166.842 104.733 164.549 105.467 164.529 105.478C164.354 105.534 164.167 105.441 164.106 105.266C164.046 105.092 164.136 104.904 164.311 104.841C164.344 104.831 167.515 103.678 168.162 102.062C168.323 101.657 168.306 101.268 168.105 100.869C167.867 100.393 167.519 100.098 167.046 99.9677C165.564 99.5588 163.443 100.886 163.423 100.899C163.268 100.997 163.064 100.953 162.963 100.799C162.863 100.645 162.903 100.44 163.054 100.336C163.071 100.326 164.686 99.2103 164.874 98.0305C164.931 97.6719 164.844 97.3535 164.612 97.0519C164.143 96.4453 162.608 96.7905 160.828 97.1927C158.317 97.7591 155.193 98.4662 152.388 97.2899C152.253 97.2329 152.173 97.0988 152.183 96.9547C152.193 96.8106 152.294 96.69 152.435 96.6531C153.993 96.2576 158.358 94.7495 157.959 93.0771C157.58 91.4851 154.821 91.9443 151.627 92.4772C150.792 92.6146 149.927 92.7587 149.072 92.8693C148.707 92.9162 148.332 92.9598 147.943 93.0067C143.776 93.4927 138.594 94.0959 133.579 100.199C128.669 106.175 125.189 111.198 124.472 112.247L124.478 112.251Z" fill="black"/>
<path d="M158.096 110.528C158.096 110.528 158.083 110.528 158.073 110.528L154.774 110.307C154.59 110.294 154.449 110.136 154.463 109.952C154.476 109.767 154.63 109.627 154.818 109.64L158.116 109.861C158.301 109.875 158.441 110.032 158.428 110.216C158.415 110.394 158.27 110.528 158.093 110.528H158.096Z" fill="black"/>
<path d="M160.241 105.675C158.565 105.675 156.893 105.545 155.237 105.283C155.052 105.253 154.928 105.082 154.959 104.901C154.989 104.717 155.16 104.593 155.341 104.623C158.15 105.065 161.006 105.126 163.831 104.801C164.016 104.777 164.18 104.911 164.204 105.095C164.224 105.28 164.093 105.444 163.909 105.467C162.692 105.608 161.468 105.675 160.245 105.675H160.241Z" fill="black"/>
<path d="M159.269 101.513C157.761 101.513 156.249 101.338 154.791 100.993C154.61 100.95 154.499 100.769 154.543 100.591C154.587 100.41 154.768 100.3 154.945 100.343C157.453 100.94 160.117 101.007 162.652 100.537C162.833 100.504 163.007 100.625 163.044 100.806C163.077 100.987 162.957 101.161 162.776 101.198C161.626 101.409 160.449 101.516 159.269 101.516V101.513Z" fill="black"/>
<path d="M147.296 103.688C147.225 103.688 147.152 103.664 147.091 103.617C146.944 103.504 146.917 103.292 147.031 103.148C147.681 102.307 148.067 101.258 148.436 100.243L148.603 99.7867C149.264 98.0071 150.997 96.8844 152.361 96.69C152.545 96.6632 152.713 96.7905 152.74 96.9748C152.766 97.1592 152.639 97.3267 152.455 97.3536C151.312 97.5144 149.796 98.5031 149.23 100.018L149.062 100.47C148.674 101.536 148.271 102.635 147.557 103.557C147.49 103.641 147.393 103.688 147.293 103.688H147.296Z" fill="black"/>
<path d="M144.393 112.764C144.373 112.764 144.356 112.764 144.336 112.76C143.471 112.613 142.593 112.613 141.728 112.754C141.547 112.784 141.373 112.66 141.343 112.479C141.312 112.294 141.437 112.123 141.618 112.093C142.556 111.939 143.508 111.939 144.447 112.1C144.631 112.13 144.752 112.304 144.722 112.485C144.695 112.65 144.551 112.764 144.393 112.764Z" fill="black"/>
<path d="M57.203 139.113L101.809 140.779L125.742 108.581L145.345 123.803L122.504 161.524C117.352 168.452 109.14 172.423 100.508 172.158L49.7715 170.597L57.1996 139.113H57.203Z" fill="#60BFE0"/>
<path d="M104.872 185.155C110.259 173.476 114.62 137.538 114.62 137.538C114.62 137.538 90.3177 94.2467 79.685 98.1478C45.3366 110.756 36.6917 155.87 37.0504 168.063C37.4023 180.091 99.4889 196.835 104.876 185.152L104.872 185.155Z" fill="#60BFE0"/>
<path d="M155.143 152.143H177.739C184.51 152.143 191.201 153.628 197.339 156.49L191.724 158.565L202.544 177.326C204.361 180.477 200.741 184.096 198.049 181.791C197.989 181.737 197.928 181.683 197.865 181.623C198.528 184.874 194.1 185.708 191.858 182.873C192.468 185.849 188.425 187.337 185.72 184.15C186.706 187.569 181.892 188.916 179.69 185.403C177.364 181.697 170.217 169.481 170.217 169.481H154.741L155.146 152.143H155.143Z" fill="white"/>
<path d="M183.119 187.8C181.818 187.8 180.38 187.133 179.405 185.578C177.253 182.146 170.887 171.29 170.023 169.812H154.737C154.647 169.812 154.56 169.776 154.496 169.712C154.432 169.648 154.399 169.561 154.402 169.471L154.808 152.133C154.811 151.952 154.962 151.805 155.143 151.805H177.739C184.514 151.805 191.342 153.32 197.479 156.182C197.603 156.239 197.677 156.363 197.674 156.5C197.667 156.634 197.583 156.755 197.456 156.802L192.213 158.739L202.832 177.155C203.908 179.019 203.211 181.036 201.968 182.069C200.841 183 199.437 183.098 198.264 182.36C198.227 183.366 197.697 184.18 196.762 184.612C195.552 185.176 193.681 185.015 192.24 183.755C192.146 184.696 191.596 185.487 190.691 185.926C189.505 186.503 187.742 186.412 186.183 185.082C186.156 186.147 185.576 187.042 184.557 187.498C184.125 187.692 183.632 187.796 183.119 187.796V187.8ZM155.083 169.145H170.217C170.338 169.145 170.445 169.209 170.505 169.31C170.576 169.43 177.679 181.563 179.975 185.222C181.131 187.066 183.019 187.458 184.286 186.891C185.328 186.426 185.747 185.434 185.402 184.24C185.358 184.09 185.425 183.925 185.566 183.852C185.707 183.778 185.878 183.808 185.978 183.929C187.45 185.665 189.26 185.879 190.4 185.326C191.322 184.877 191.747 183.982 191.533 182.937C191.503 182.786 191.58 182.632 191.72 182.565C191.861 182.498 192.029 182.538 192.126 182.662C193.393 184.264 195.317 184.552 196.484 184.009C197.372 183.597 197.757 182.749 197.543 181.69C197.513 181.546 197.58 181.402 197.711 181.328C197.838 181.258 197.999 181.278 198.106 181.378C198.163 181.432 198.22 181.482 198.274 181.532C199.47 182.558 200.751 182.216 201.549 181.553C202.544 180.728 203.191 179.103 202.259 177.491L191.439 158.729C191.389 158.642 191.382 158.541 191.415 158.448C191.449 158.354 191.523 158.28 191.613 158.246L196.464 156.453C190.604 153.849 184.151 152.475 177.742 152.475H155.471L155.083 169.142V169.145Z" fill="black"/>
<path d="M177.591 171.284L171.383 173.965C170.13 174.504 168.678 173.928 168.139 172.678C167.599 171.424 168.176 169.973 169.426 169.434L175.634 166.752C176.888 166.213 178.339 166.789 178.879 168.039C179.418 169.29 178.842 170.744 177.591 171.284Z" fill="white"/>
<path d="M170.405 174.504C170.056 174.504 169.704 174.437 169.369 174.307C168.672 174.032 168.125 173.499 167.83 172.812C167.532 172.125 167.522 171.361 167.8 170.667C168.075 169.97 168.608 169.424 169.295 169.129L175.503 166.447C176.925 165.834 178.577 166.491 179.191 167.912C179.804 169.333 179.147 170.985 177.726 171.599L171.518 174.28C171.162 174.434 170.784 174.511 170.408 174.511L170.405 174.504ZM176.609 166.886C176.328 166.886 176.043 166.943 175.768 167.061L169.56 169.742C169.037 169.966 168.632 170.385 168.424 170.915C168.213 171.444 168.223 172.024 168.447 172.547C168.672 173.07 169.091 173.475 169.62 173.683C170.15 173.894 170.73 173.884 171.253 173.66L177.461 170.979C178.54 170.513 179.04 169.253 178.574 168.173C178.225 167.369 177.437 166.886 176.613 166.886H176.609Z" fill="black"/>
<path d="M180.062 175.486L173.854 178.167C172.6 178.707 171.149 178.131 170.609 176.881C170.07 175.627 170.646 174.176 171.896 173.636L178.104 170.955C179.358 170.416 180.809 170.992 181.349 172.242C181.889 173.496 181.312 174.947 180.062 175.486Z" fill="white"/>
<path d="M172.879 178.7C171.793 178.7 170.757 178.067 170.301 177.008C169.687 175.587 170.344 173.935 171.766 173.321L177.974 170.64C178.661 170.342 179.425 170.332 180.119 170.61C180.816 170.885 181.363 171.418 181.658 172.105C181.956 172.792 181.966 173.556 181.688 174.25C181.413 174.947 180.88 175.493 180.193 175.788L173.985 178.469C173.623 178.623 173.247 178.697 172.879 178.697V178.7ZM179.083 171.082C178.795 171.082 178.51 171.143 178.239 171.257L172.031 173.938C170.951 174.404 170.452 175.664 170.918 176.743C171.384 177.822 172.644 178.322 173.723 177.856L179.931 175.175C180.454 174.95 180.86 174.531 181.068 174.002C181.279 173.472 181.269 172.892 181.044 172.369C180.82 171.847 180.401 171.441 179.871 171.233C179.616 171.133 179.348 171.082 179.083 171.082Z" fill="black"/>
<path d="M182.894 179.686L176.686 182.367C175.433 182.907 173.981 182.33 173.442 181.08C172.902 179.83 173.479 178.375 174.729 177.836L180.937 175.155C182.191 174.615 183.642 175.191 184.182 176.442C184.721 177.695 184.145 179.146 182.894 179.686Z" fill="white"/>
<path d="M175.711 182.903C174.625 182.903 173.589 182.27 173.133 181.211C172.835 180.524 172.825 179.759 173.103 179.066C173.378 178.369 173.911 177.822 174.598 177.527L180.806 174.846C182.228 174.233 183.88 174.89 184.493 176.311C184.792 176.998 184.802 177.762 184.524 178.456C184.249 179.153 183.716 179.699 183.029 179.994L176.821 182.675C176.459 182.829 176.083 182.903 175.714 182.903H175.711ZM181.912 175.285C181.631 175.285 181.346 175.342 181.071 175.46L174.863 178.141C174.34 178.365 173.935 178.784 173.727 179.314C173.516 179.843 173.526 180.423 173.75 180.946C174.216 182.025 175.477 182.524 176.556 182.059L182.764 179.377C183.287 179.153 183.692 178.734 183.9 178.204C184.111 177.675 184.101 177.095 183.877 176.572C183.528 175.768 182.74 175.285 181.916 175.285H181.912Z" fill="black"/>
<path d="M185.224 183.121L180.105 185.33C179.073 185.775 177.876 185.3 177.43 184.267C176.985 183.235 177.461 182.039 178.493 181.593L183.612 179.384C184.644 178.938 185.841 179.414 186.287 180.447C186.732 181.479 186.256 182.675 185.224 183.121Z" fill="white"/>
<path d="M179.301 185.832C178.383 185.832 177.508 185.296 177.122 184.401C176.871 183.821 176.861 183.175 177.095 182.588C177.33 181.998 177.779 181.536 178.359 181.288L183.478 179.079C184.678 178.563 186.076 179.116 186.595 180.316C186.846 180.896 186.857 181.542 186.622 182.129C186.387 182.719 185.938 183.181 185.358 183.429L180.24 185.638C179.935 185.769 179.616 185.832 179.304 185.832H179.301ZM184.416 179.552C184.192 179.552 183.964 179.595 183.746 179.692L178.627 181.901C178.212 182.082 177.886 182.414 177.719 182.836C177.551 183.258 177.558 183.721 177.739 184.137C178.111 184.998 179.113 185.397 179.975 185.025L185.093 182.816C185.509 182.635 185.834 182.303 186.002 181.881C186.169 181.459 186.163 180.996 185.982 180.581C185.703 179.937 185.077 179.555 184.42 179.555L184.416 179.552Z" fill="black"/>
<path d="M196.333 156.862L181.943 161.692C181.943 161.692 181.648 166.524 186.401 165.469C193.091 163.981 194.449 166.685 197.985 167.637C203.748 169.186 206.781 166.028 206.781 166.028L196.333 156.862Z" fill="white"/>
<path d="M201.093 168.405C200.141 168.405 199.075 168.277 197.898 167.962C196.829 167.674 195.951 167.232 195.099 166.799C193.038 165.757 191.087 164.772 186.474 165.797C184.959 166.132 183.759 165.935 182.908 165.207C181.483 163.991 181.604 161.765 181.607 161.672C181.614 161.534 181.708 161.417 181.839 161.373L197.067 156.37C197.241 156.313 197.432 156.406 197.489 156.584C197.546 156.758 197.452 156.949 197.275 157.006L182.274 161.936C182.284 162.483 182.408 163.907 183.344 164.701C184.028 165.281 185.03 165.432 186.327 165.144C191.174 164.068 193.323 165.154 195.398 166.203C196.256 166.635 197.067 167.047 198.069 167.315C203.573 168.793 206.506 165.827 206.536 165.797C206.664 165.663 206.878 165.66 207.009 165.787C207.143 165.915 207.147 166.129 207.019 166.26C206.915 166.367 204.904 168.405 201.089 168.405H201.093Z" fill="black"/>
<path d="M98.8889 114.5L124.16 151.289H164.284V177.708L119.853 180.276C111.218 180.276 103.129 176.053 98.1951 168.968L69.1831 127.322L98.8889 114.503V114.5Z" fill="#60BFE0"/>
<path d="M128.498 151.621H124.16C124.049 151.621 123.946 151.567 123.885 151.476L109.461 130.479C109.357 130.325 109.394 130.117 109.549 130.014C109.703 129.91 109.911 129.947 110.014 130.101L124.338 150.954H128.498C128.682 150.954 128.833 151.104 128.833 151.289C128.833 151.473 128.682 151.624 128.498 151.624V151.621Z" fill="black"/>
<path d="M108.053 177.822C108.003 177.822 107.953 177.812 107.903 177.785C103.917 175.795 100.464 172.808 97.9201 169.155L70.2792 129.477C70.1719 129.326 70.2121 129.115 70.363 129.011C70.5138 128.904 70.725 128.944 70.8289 129.095L98.4699 168.773C100.95 172.336 104.316 175.245 108.201 177.189C108.365 177.273 108.432 177.474 108.352 177.638C108.291 177.755 108.174 177.822 108.05 177.822H108.053Z" fill="black"/>
<path d="M215.979 243.143C218.869 243.143 221.212 240.8 221.212 237.911C221.212 235.022 218.869 232.679 215.979 232.679C213.089 232.679 210.747 235.022 210.747 237.911C210.747 240.8 213.089 243.143 215.979 243.143Z" fill="#E2EAFF"/>
<path d="M200.707 243.143C203.597 243.143 205.94 240.8 205.94 237.911C205.94 235.022 203.597 232.679 200.707 232.679C197.817 232.679 195.475 235.022 195.475 237.911C195.475 240.8 197.817 243.143 200.707 243.143Z" fill="#E2EAFF"/>
<path d="M185.439 243.143C188.328 243.143 190.671 240.8 190.671 237.911C190.671 235.022 188.328 232.679 185.439 232.679C182.549 232.679 180.206 235.022 180.206 237.911C180.206 240.8 182.549 243.143 185.439 243.143Z" fill="#E2EAFF"/>
<path d="M246.181 238.246H227.701C227.517 238.246 227.366 238.095 227.366 237.911C227.366 237.727 227.517 237.576 227.701 237.576H245.846V206.263C245.846 206.079 245.996 205.928 246.181 205.928C246.365 205.928 246.516 206.079 246.516 206.263V237.911C246.516 238.095 246.365 238.246 246.181 238.246Z" fill="black"/>
<path d="M147.262 238.136H118.652C118.468 238.136 118.317 237.985 118.317 237.8C118.317 237.616 118.468 237.465 118.652 237.465H147.262C147.446 237.465 147.597 237.616 147.597 237.8C147.597 237.985 147.446 238.136 147.262 238.136Z" fill="black"/>
<path d="M168.072 238.136H153.182C152.998 238.136 152.847 237.985 152.847 237.8C152.847 237.616 152.998 237.465 153.182 237.465H168.072C168.256 237.465 168.407 237.616 168.407 237.8C168.407 237.985 168.256 238.136 168.072 238.136Z" fill="black"/>
<path d="M134.538 248.371H118.652C118.468 248.371 118.317 248.22 118.317 248.036C118.317 247.851 118.468 247.701 118.652 247.701H134.538C134.722 247.701 134.873 247.851 134.873 248.036C134.873 248.22 134.722 248.371 134.538 248.371Z" fill="black"/>
<path d="M168.071 248.371H140.548C140.363 248.371 140.213 248.22 140.213 248.036C140.213 247.851 140.363 247.701 140.548 247.701H168.071C168.256 247.701 168.407 247.851 168.407 248.036C168.407 248.22 168.256 248.371 168.071 248.371Z" fill="black"/>
</svg>
