<svg width="270" height="200" viewBox="0 0 270 200" fill="none" xmlns="http://www.w3.org/2000/svg">
<path d="M130.844 199.494H82.4488C75.9719 199.494 71.5145 192.972 73.8513 186.915L101.05 116.419H151.224L124.101 186.721L132.494 195.672C133.851 197.12 132.828 199.494 130.846 199.494H130.844Z" fill="white"/>
<path d="M130.844 199.866H82.4487C79.2863 199.866 76.3299 198.305 74.5401 195.689C72.7487 193.072 72.362 189.741 73.5034 186.78L100.702 116.284C100.758 116.14 100.895 116.046 101.049 116.046H151.222C151.345 116.046 151.46 116.106 151.529 116.208C151.599 116.31 151.614 116.438 151.57 116.553L124.53 186.636L132.762 195.417C133.493 196.197 133.684 197.291 133.26 198.274C132.837 199.255 131.91 199.866 130.843 199.866H130.844ZM101.305 116.79L74.1974 187.047C73.1286 189.82 73.4764 192.816 75.153 195.266C76.8279 197.714 79.4872 199.118 82.4487 199.118H130.844C131.609 199.118 132.274 198.68 132.578 197.976C132.882 197.271 132.745 196.484 132.22 195.924L123.827 186.973C123.729 186.868 123.699 186.717 123.751 186.584L150.68 116.788H101.303L101.305 116.79Z" fill="#303030"/>
<path d="M124.003 187.017H81.6415C81.4355 187.017 81.27 186.85 81.27 186.645C81.27 186.44 81.4372 186.273 81.6415 186.273H124.003C124.209 186.273 124.374 186.44 124.374 186.645C124.374 186.85 124.207 187.017 124.003 187.017Z" fill="#303030"/>
<path d="M114.6 121.938C117.884 117.732 121.3 113.633 124.763 109.574C128.238 105.5 131.758 101.467 135.241 97.4018C135.962 96.561 136.68 95.7168 137.398 94.8709C134.367 94.118 131.22 93.7188 128.007 93.7188H33.8578L28.9495 108.006C25.2789 118.69 33.1943 129.818 44.4629 129.818H108.731C110.622 127.144 112.586 124.521 114.6 121.94V121.938Z" fill="white"/>
<path d="M108.731 130.189H44.4627C38.9736 130.189 33.9945 127.619 30.805 123.139C27.6122 118.654 26.8068 113.093 28.5965 107.883L33.5048 93.5953C33.5571 93.4447 33.6973 93.3432 33.856 93.3432H128.003C131.182 93.3432 134.373 93.734 137.484 94.5072C137.683 94.5562 137.804 94.7592 137.755 94.9589C137.706 95.1585 137.5 95.2786 137.305 95.2313C134.252 94.4733 131.123 94.0893 128.003 94.0893H34.1228L29.3006 108.125C27.5902 113.103 28.3585 118.419 31.4112 122.706C34.4588 126.988 39.2168 129.443 44.4627 129.443H108.731C108.937 129.443 109.103 129.61 109.103 129.815C109.103 130.02 108.936 130.187 108.731 130.187V130.189Z" fill="#303030"/>
<path d="M107.37 47.4048L106.779 39.8745L89.0272 36.0477L63.4424 87.7036L94.724 86.6428L107.37 47.4048Z" fill="white"/>
<path d="M86.9741 90.212L106.864 39.6626C106.864 39.6626 136.211 55.4657 125.717 90.212H86.9741Z" fill="#C8223A"/>
<path d="M105.881 83.1302C105.836 83.1302 105.79 83.1217 105.744 83.1048C105.554 83.0287 105.459 82.8121 105.535 82.621L114.641 59.4788C114.717 59.2876 114.931 59.1945 115.124 59.269C115.314 59.3451 115.409 59.5617 115.333 59.7528L106.227 82.895C106.17 83.0405 106.03 83.1302 105.881 83.1302Z" fill="#303030"/>
<path d="M89.0275 36.0473L56.4509 118.839L34.4455 117.293C29.2097 116.926 25.5677 111.913 26.829 106.804C27.967 102.192 29.6723 96.5496 32.1172 91.234C35.7642 83.3028 44.88 65.3426 52.2534 52.0095C59.3229 39.2262 73.9768 32.4691 88.163 35.8308C88.4517 35.8984 88.7388 35.9712 89.0275 36.0456V36.0473Z" fill="#C8223A"/>
<path d="M68.8289 70.9699L77.6205 49.3876L53.5722 57.0024L46.4555 75.2079C43.624 82.4488 48.9155 90.2853 56.6705 90.3394C67.983 90.4172 82.051 90.5018 92.7371 90.49C93.8734 82.9208 97.3431 75.3416 99.3743 71.3878C83.7783 71.1611 68.8289 70.9716 68.8289 70.9716V70.9699Z" fill="#C8223A"/>
<path d="M74.3833 71.3419H68.8284C68.7051 71.3419 68.5886 71.2793 68.5194 71.1778C68.4502 71.0763 68.4367 70.9443 68.4839 70.8293L77.2756 49.2469C77.3533 49.0557 77.5711 48.9661 77.7602 49.0422C77.951 49.12 78.0422 49.3366 77.9645 49.5277L69.3822 70.5975H74.385C74.591 70.5975 74.7565 70.765 74.7565 70.9697C74.7565 71.1744 74.5893 71.3419 74.385 71.3419H74.3833Z" fill="#303030"/>
<path d="M90.7664 90.8624C79.957 90.8624 66.2571 90.7761 56.6668 90.7101C52.8476 90.683 49.4285 88.8508 47.2876 85.6804C45.1736 82.5539 44.733 78.5866 46.109 75.0711L53.2275 56.8655C53.3034 56.6744 53.5196 56.5796 53.7087 56.6541C53.8995 56.7285 53.994 56.945 53.9197 57.1362L46.8013 75.3417C45.4961 78.678 45.898 82.2951 47.9038 85.2625C49.9063 88.2265 53.1025 89.9403 56.6736 89.964C66.8548 90.0351 81.6742 90.1281 92.7368 90.1146C92.9428 90.1146 93.1082 90.2821 93.1082 90.4868C93.1082 90.6932 92.9428 90.859 92.7368 90.859C92.0935 90.859 91.435 90.859 90.7664 90.859V90.8624Z" fill="#303030"/>
<path d="M122.381 71.8007C117.77 71.6721 108.785 71.5232 99.374 71.3862C97.3429 75.3399 93.8714 82.9192 92.7368 90.4883C101.508 90.4782 108.002 90.4054 108.821 90.2109C111.462 89.5849 111.409 86.6023 111.409 86.6023C115.271 85.8613 113.128 82.7568 113.128 82.7568C119.007 79.5407 113.815 77.3379 113.815 77.3379L122.604 76.1757C123.581 76.0471 124.351 75.279 124.488 74.3012C124.668 73.0036 123.687 71.8345 122.381 71.799V71.8007Z" fill="white"/>
<path d="M63.4426 71.697C63.2433 71.697 63.0796 71.5396 63.0711 71.3383C63.0627 71.1319 63.2231 70.9593 63.4274 70.9509L67.2567 70.802C67.4594 70.7884 67.635 70.9542 67.6434 71.159C67.6518 71.3654 67.4914 71.5379 67.2871 71.5464L63.4578 71.6953C63.4578 71.6953 63.4476 71.6953 63.4426 71.6953V71.697Z" fill="#303030"/>
<path d="M114.552 13.9014C114.552 13.9014 120.198 8.04103 115.643 2.35995C110.675 -3.83544 105.83 4.18202 103.042 3.69647C100.256 3.21092 96.1937 3.60681 94.0764 8.1916C91.0473 14.7524 97.7571 22.5973 97.7571 22.5973L114.554 13.9014H114.552Z" fill="#303030"/>
<path d="M105.991 39.5802L104.37 38.851L108.272 29.338C108.272 29.338 109.743 16.6766 97.7548 22.5962L91.1716 36.4808L90.064 36.2558C90.064 36.2558 97.846 48.3861 105.989 39.5785L105.991 39.5802Z" fill="white"/>
<path d="M99.7286 43.1514C95.7557 43.1514 92.4531 39.8439 90.9707 38.076C90.839 37.9187 90.8592 37.6835 91.0163 37.5515C91.1733 37.4196 91.4097 37.4399 91.5397 37.5972C93.8359 40.3379 98.4386 44.4558 103.468 41.2481C103.642 41.1382 103.872 41.1889 103.982 41.3632C104.091 41.5374 104.041 41.7675 103.867 41.8775C102.442 42.786 101.047 43.1514 99.7252 43.1514H99.7286Z" fill="#303030"/>
<path d="M105.991 39.9522C105.941 39.9522 105.888 39.9421 105.839 39.9201L104.219 39.1909C104.035 39.108 103.95 38.8948 104.026 38.7087L107.908 29.2448C107.958 28.7102 108.332 23.9443 105.747 22.1172C104.077 20.938 101.483 21.1918 98.0355 22.8717L91.508 36.6397C91.4354 36.7936 91.2649 36.8765 91.0977 36.8461L89.6845 36.5601C89.4836 36.5195 89.3536 36.3233 89.3941 36.1203C89.4346 35.9189 89.6288 35.787 89.8331 35.8293L90.961 36.0577L97.4192 22.4353C97.4547 22.3591 97.5155 22.2982 97.5915 22.261C101.362 20.4 104.249 20.1462 106.177 21.5098C109.265 23.6923 108.669 29.1483 108.642 29.3801C108.639 29.414 108.63 29.4478 108.617 29.4782L104.852 38.658L106.143 39.2383C106.331 39.3229 106.415 39.5428 106.331 39.7306C106.268 39.8693 106.133 39.9505 105.991 39.9505V39.9522Z" fill="#303030"/>
<path d="M101.831 24.4229C102.819 26.0419 104.153 27.4783 105.813 28.3885C107.472 29.2987 109.475 29.6455 111.297 29.1346C114.346 28.2785 116.35 25.1876 116.87 22.056C117.392 18.9245 116.465 14.81 115.763 11.714C115.763 11.714 113.932 8.14603 110.206 7.15125C110.623 14.0927 98.1015 10.9155 102.719 20.0377C102.719 20.0377 100.165 17.7707 98.8309 18.1344C97.389 18.5269 96.3675 20.0513 96.5211 21.54C96.6748 23.0305 97.9023 24.3129 99.3611 24.6327C100.185 24.812 100.968 24.8949 101.831 24.4229Z" fill="white"/>
<path d="M109.539 29.7437C108.227 29.7437 106.869 29.3935 105.634 28.7151C104.127 27.8895 102.77 26.575 101.693 24.9018C100.801 25.2757 99.9874 25.1488 99.2816 24.9965C97.6337 24.6362 96.3167 23.1998 96.1496 21.5791C95.9774 19.8873 97.112 18.2175 98.7329 17.7759C99.6261 17.5323 100.87 18.209 101.784 18.8401C101.274 17.4528 101.188 16.2973 101.524 15.3346C102.111 13.6428 103.884 12.824 105.598 12.0322C107.864 10.985 110.005 9.99699 109.834 7.17506C109.828 7.05494 109.878 6.9399 109.969 6.86377C110.062 6.78764 110.186 6.76057 110.3 6.79272C114.143 7.81964 116.014 11.3944 116.092 11.545C116.105 11.5721 116.117 11.6025 116.124 11.633C116.819 14.6968 117.773 18.8942 117.236 22.1188C116.629 25.7748 114.336 28.6711 111.396 29.495C110.8 29.6625 110.174 29.7454 109.539 29.7454V29.7437ZM101.831 24.0508C101.956 24.0508 102.079 24.1151 102.149 24.2285C103.184 25.9253 104.512 27.2517 105.991 28.0621C107.66 28.9757 109.557 29.2379 111.197 28.776C114.226 27.9267 116.044 24.758 116.504 21.9953C117.014 18.9331 116.092 14.8457 115.411 11.8461C115.212 11.4841 113.594 8.68923 110.586 7.65553C110.496 10.5891 108.067 11.7108 105.91 12.7073C104.264 13.4669 102.711 14.1842 102.226 15.5766C101.856 16.639 102.127 18.0432 103.05 19.8687C103.131 20.0277 103.087 20.2223 102.946 20.3322C102.804 20.4422 102.606 20.4354 102.471 20.317C101.541 19.4914 99.7493 18.2682 98.9271 18.4932C97.6675 18.8367 96.754 20.185 96.8891 21.5013C97.0242 22.8107 98.0963 23.973 99.4387 24.2674C100.298 24.4552 100.935 24.4873 101.65 24.0948C101.706 24.0627 101.769 24.0491 101.828 24.0491L101.831 24.0508Z" fill="#303030"/>
<path d="M101.215 22.8368C101.151 22.8368 101.083 22.8199 101.024 22.7844C100.356 22.3833 99.7618 21.8806 99.2532 21.29C99.118 21.1343 99.1366 20.8991 99.2921 20.7637C99.4475 20.6283 99.6823 20.6452 99.8175 20.8026C100.274 21.3323 100.809 21.7842 101.407 22.1447C101.583 22.2513 101.641 22.4797 101.534 22.6557C101.465 22.7725 101.341 22.8368 101.215 22.8368Z" fill="#303030"/>
<path d="M80.9616 158.328C80.8214 158.328 80.6864 158.247 80.6239 158.112L69.8449 134.628C69.7588 134.44 69.8399 134.22 70.0273 134.134C70.2147 134.048 70.4342 134.129 70.5203 134.317L81.2993 157.801C81.3854 157.988 81.3043 158.208 81.1169 158.295C81.0663 158.318 81.0139 158.328 80.9616 158.328Z" fill="#303030"/>
<path d="M4.65501 193.11C4.60267 193.11 4.55033 193.1 4.49967 193.076C4.31395 192.99 4.23121 192.769 4.31732 192.582L31.0621 134.317C31.1482 134.129 31.3677 134.048 31.5551 134.134C31.7425 134.22 31.8236 134.442 31.7375 134.628L4.99438 192.894C4.93191 193.031 4.79684 193.11 4.6567 193.11H4.65501Z" fill="#303030"/>
<path d="M6.31136 196.836C6.31136 198.584 4.89814 200 3.15568 200C1.41322 200 0 198.584 0 196.836C0 195.089 1.41322 193.673 3.15568 193.673C4.89814 193.673 6.31136 195.089 6.31136 196.836Z" fill="#303030"/>
<path d="M25.2457 136.758H76.3377C79.0633 136.758 81.2729 134.544 81.2729 131.813V131.641C81.2729 128.909 79.0633 126.695 76.3377 126.695H25.2457C22.52 126.695 20.3104 128.909 20.3104 131.641V131.813C20.3104 134.544 22.52 136.758 25.2457 136.758Z" fill="white"/>
<path d="M76.3374 137.131H25.2454C22.3194 137.131 19.937 134.745 19.937 131.813V131.643C19.937 128.711 22.3177 126.324 25.2454 126.324H76.3357C79.2618 126.324 81.6442 128.709 81.6442 131.643V131.813C81.6442 134.745 79.2635 137.132 76.3357 137.132L76.3374 137.131ZM25.2471 127.068C22.7314 127.068 20.6833 129.12 20.6833 131.641V131.812C20.6833 134.333 22.7314 136.385 25.2471 136.385H76.3374C78.8532 136.385 80.9013 134.333 80.9013 131.812V131.641C80.9013 129.12 78.8532 127.068 76.3374 127.068H25.2454H25.2471Z" fill="#303030"/>
<path d="M234.245 89.829H54.9448V94.9518H234.245V89.829Z" fill="#303030"/>
<path d="M265.405 192.227C265.264 192.227 265.129 192.146 265.067 192.01L221.183 96.4048C221.097 96.2171 221.178 95.9971 221.365 95.9108C221.553 95.8246 221.774 95.9075 221.858 96.0936L265.742 191.699C265.828 191.887 265.747 192.107 265.56 192.193C265.509 192.217 265.457 192.227 265.405 192.227Z" fill="#303030"/>
<path d="M269.994 195.902C269.997 194.183 268.61 192.786 266.897 192.783C265.183 192.78 263.791 194.171 263.787 195.89C263.784 197.609 265.171 199.006 266.885 199.009C268.599 199.012 269.991 197.621 269.994 195.902Z" fill="#303030"/>
<path d="M39.0024 192.227C38.9501 192.227 38.8978 192.217 38.8471 192.193C38.6597 192.107 38.5787 191.885 38.6648 191.699L82.5488 96.0936C82.6349 95.9075 82.8544 95.8246 83.0418 95.9108C83.2293 95.9971 83.3103 96.2187 83.2242 96.4048L39.3401 192.01C39.2777 192.147 39.1426 192.227 39.0024 192.227Z" fill="#303030"/>
<path d="M37.5401 198.996C39.254 198.992 40.6407 197.596 40.6374 195.877C40.6341 194.158 39.2421 192.767 37.5281 192.77C35.8142 192.773 34.4275 194.17 34.4308 195.889C34.4341 197.608 35.8261 198.999 37.5401 198.996Z" fill="#303030"/>
<path d="M167.806 119.865L143.178 191.603C142.11 194.714 144.416 197.955 147.698 197.955H178.608L202.466 124.372L167.806 119.865Z" fill="white"/>
<path d="M178.608 198.329H147.698C146.013 198.329 144.485 197.541 143.506 196.166C142.525 194.788 142.278 193.081 142.827 191.483L167.455 119.745C167.512 119.578 167.676 119.471 167.855 119.496L202.515 124.003C202.625 124.017 202.723 124.08 202.782 124.174C202.841 124.267 202.856 124.382 202.82 124.489L178.963 198.072C178.914 198.226 178.77 198.329 178.61 198.329H178.608ZM168.059 120.275L143.529 191.725C143.06 193.093 143.271 194.555 144.11 195.733C144.948 196.908 146.256 197.583 147.698 197.583H178.338L201.973 124.683L168.059 120.273V120.275Z" fill="#303030"/>
<path d="M108.607 93.9986L102.966 108.655C99.0369 118.861 106.589 129.831 117.5 129.765C143.348 129.608 182.018 129.452 182.018 129.922C182.018 130.52 165.021 178.915 159.82 193.709C159.091 195.783 160.628 197.955 162.821 197.955H214.117C215.831 197.955 216.538 195.754 215.149 194.749L202.464 185.583C202.464 185.583 216.527 156.617 226.406 128.511C232.329 111.658 219.821 93.9969 201.999 93.9969H108.605L108.607 93.9986Z" fill="white"/>
<path d="M214.118 198.329H162.822C161.654 198.329 160.597 197.781 159.921 196.826C159.246 195.872 159.082 194.69 159.47 193.587C169.576 164.841 180.409 133.881 181.553 130.212C178.46 129.937 155.381 129.91 117.501 130.141C117.469 130.141 117.437 130.141 117.405 130.141C112.198 130.141 107.328 127.583 104.365 123.282C101.38 118.951 100.726 113.434 102.617 108.521L108.259 93.8648C108.314 93.721 108.451 93.6263 108.605 93.6263H201.999C210.623 93.6263 218.43 97.6748 223.42 104.733C228.402 111.783 229.618 120.496 226.756 128.637C217.5 154.971 204.411 182.394 202.934 185.466L215.366 194.449C216.133 195.004 216.44 195.945 216.149 196.847C215.859 197.748 215.06 198.33 214.117 198.33L214.118 198.329ZM159.131 129.235C181.864 129.235 182.117 129.491 182.278 129.652C182.349 129.721 182.393 129.824 182.393 129.924C182.393 130.511 170.31 165.002 160.174 193.834C159.867 194.707 159.997 195.64 160.531 196.397C161.064 197.153 161.9 197.584 162.824 197.584H214.12C214.868 197.584 215.295 197.085 215.445 196.617C215.596 196.148 215.542 195.492 214.934 195.053L202.249 185.887C202.102 185.781 202.053 185.584 202.132 185.422C202.272 185.133 216.3 156.154 226.057 128.389C228.838 120.479 227.656 112.015 222.815 105.164C217.97 98.3058 210.383 94.3724 202.002 94.3724H108.863L103.315 108.79C101.486 113.542 102.094 118.67 104.981 122.859C107.847 127.016 112.37 129.394 117.403 129.394C117.435 129.394 117.467 129.394 117.499 129.394C136.334 129.281 149.679 129.235 159.131 129.235Z" fill="#303030"/>
<path d="M171.962 187.657C169.724 187.657 167.816 187.603 166.709 187.459C166.505 187.434 166.361 187.246 166.388 187.041C166.413 186.837 166.597 186.691 166.805 186.72C172.347 187.441 199.881 185.967 201.433 185.558C201.568 185.49 201.735 185.508 201.852 185.615C202.004 185.754 202.014 185.991 201.876 186.141C201.744 186.287 201.656 186.381 196.856 186.698C193.847 186.896 189.974 187.104 186.227 187.27C183.019 187.41 176.74 187.657 171.963 187.657H171.962Z" fill="#303030"/>
<path d="M197.226 130.395H184.247C184.041 130.395 183.875 130.227 183.875 130.022C183.875 129.818 184.043 129.65 184.247 129.65H197.226C197.432 129.65 197.597 129.818 197.597 130.022C197.597 130.227 197.43 130.395 197.226 130.395Z" fill="#303030"/>
<path d="M174.901 191.068C174.76 191.068 174.625 190.986 174.563 190.851L147.818 132.585C147.732 132.398 147.813 132.178 148 132.091C148.188 132.005 148.409 132.086 148.493 132.274L175.238 190.54C175.324 190.728 175.243 190.948 175.056 191.034C175.005 191.058 174.953 191.068 174.901 191.068Z" fill="#303030"/>
<path d="M173.246 194.793C173.246 196.541 174.659 197.957 176.402 197.957C178.144 197.957 179.557 196.541 179.557 194.793C179.557 193.046 178.144 191.63 176.402 191.63C174.659 191.63 173.246 193.046 173.246 194.793Z" fill="#303030"/>
<path d="M82.6299 191.068C82.5775 191.068 82.5252 191.058 82.4746 191.034C82.2871 190.948 82.2061 190.726 82.2922 190.54L109.037 132.274C109.123 132.086 109.343 132.005 109.53 132.091C109.717 132.178 109.798 132.399 109.712 132.585L82.9676 190.851C82.9051 190.988 82.77 191.068 82.6299 191.068Z" fill="#303030"/>
<path d="M84.286 194.793C84.286 196.541 82.8728 197.957 81.1303 197.957C79.3878 197.957 77.9746 196.541 77.9746 194.793C77.9746 193.046 79.3878 191.63 81.1303 191.63C82.8728 191.63 84.286 193.046 84.286 194.793Z" fill="#303030"/>
<path d="M103.22 134.716H154.312C157.038 134.716 159.248 132.502 159.248 129.77V129.598C159.248 126.867 157.038 124.653 154.312 124.653H103.22C100.495 124.653 98.285 126.867 98.285 129.598V129.77C98.285 132.502 100.495 134.716 103.22 134.716Z" fill="white"/>
<path d="M154.31 135.088H103.22C100.294 135.088 97.9116 132.702 97.9116 129.77V129.599C97.9116 126.668 100.292 124.28 103.22 124.28H154.31C157.236 124.28 159.619 126.666 159.619 129.599V129.77C159.619 132.702 157.238 135.088 154.31 135.088ZM103.22 125.025C100.704 125.025 98.6562 127.077 98.6562 129.598V129.769C98.6562 132.289 100.704 134.342 103.22 134.342H154.31C156.826 134.342 158.874 132.289 158.874 129.769V129.598C158.874 127.077 156.826 125.025 154.31 125.025H103.22Z" fill="#303030"/>
<path d="M226.544 74.9682L231.058 83.6404L222.682 78.5413L183.24 35.5762C182.052 34.2803 181.952 32.4312 183.017 31.4431C184.085 30.4568 185.913 30.7072 187.102 32.0031L226.544 74.9682Z" fill="white"/>
<path d="M231.058 84.0121C230.993 84.0121 230.925 83.9934 230.866 83.9579L222.49 78.8588C222.459 78.8402 222.432 78.8182 222.409 78.7928L182.967 35.8278C181.64 34.383 181.55 32.2936 182.766 31.1702C183.286 30.6881 183.992 30.436 184.755 30.4715C185.709 30.5104 186.664 30.9774 187.377 31.7522L226.819 74.7173C226.841 74.741 226.859 74.768 226.874 74.7968L231.389 83.469C231.467 83.6179 231.437 83.7989 231.313 83.9139C231.242 83.9799 231.151 84.0155 231.058 84.0155V84.0121ZM222.92 78.2498L230.111 82.6265L226.236 75.1825L186.827 32.253C186.249 31.6236 185.481 31.2447 184.723 31.2125C184.154 31.1871 183.649 31.3631 183.269 31.715C182.354 32.5609 182.464 34.1782 183.514 35.3219L222.92 78.2481V78.2498Z" fill="#303030"/>
<path d="M227.148 81.2598L231.059 83.6402L228.952 79.5917L227.148 81.2598Z" fill="#303030"/>
<path d="M190.465 35.665L186.637 39.2077C186.328 39.4936 185.847 39.4733 185.563 39.1637L185.46 39.052C185.175 38.7424 185.195 38.2586 185.504 37.9744L189.332 34.4317C189.641 34.1458 190.122 34.1661 190.406 34.4757L190.509 34.5874C190.794 34.897 190.774 35.3808 190.465 35.665Z" fill="white"/>
<path d="M186.122 39.7816C186.107 39.7816 186.092 39.7816 186.075 39.7816C185.773 39.7698 185.493 39.6395 185.288 39.4162L185.185 39.3046C184.763 38.8444 184.792 38.1254 185.251 37.7007L189.079 34.1581C189.302 33.9517 189.59 33.8502 189.893 33.8586C190.195 33.8722 190.473 34.0007 190.679 34.2241L190.782 34.3357C191.205 34.7976 191.176 35.5166 190.717 35.9413L186.889 39.4839C186.678 39.6785 186.408 39.785 186.122 39.785V39.7816ZM189.845 34.6013C189.747 34.6013 189.656 34.6386 189.584 34.7045L185.756 38.2472C185.597 38.3927 185.589 38.6414 185.734 38.8004L185.837 38.9121C185.908 38.9882 186.002 39.0322 186.107 39.0373C186.208 39.0389 186.31 39.0051 186.386 38.9341L190.213 35.3914C190.372 35.2459 190.382 34.9972 190.235 34.8382L190.132 34.7265C190.061 34.6504 189.967 34.6047 189.862 34.6013C189.857 34.6013 189.852 34.6013 189.845 34.6013Z" fill="#303030"/>
<path d="M191.613 36.9158L187.786 40.4585C187.477 40.7444 186.995 40.7241 186.712 40.4145L186.609 40.3028C186.323 39.9932 186.344 39.5094 186.653 39.2251L190.48 35.6825C190.789 35.3966 191.271 35.4169 191.554 35.7265L191.657 35.8381C191.943 36.1477 191.922 36.6316 191.613 36.9158Z" fill="white"/>
<path d="M187.271 41.0318C187.256 41.0318 187.239 41.0318 187.223 41.0318C186.921 41.0199 186.641 40.8897 186.437 40.6663L186.334 40.553C185.912 40.0928 185.94 39.3738 186.4 38.9492L190.227 35.4065C190.45 35.2001 190.739 35.102 191.041 35.1071C191.343 35.1206 191.622 35.2492 191.828 35.4725L191.931 35.5841C192.355 36.0443 192.324 36.765 191.867 37.1897L188.039 40.7323C187.828 40.9269 187.558 41.0335 187.272 41.0335L187.271 41.0318ZM190.994 35.8515C190.896 35.8515 190.805 35.8887 190.732 35.9547L186.904 39.4973C186.746 39.6428 186.736 39.8915 186.882 40.0505L186.985 40.1622C187.056 40.2383 187.153 40.2823 187.256 40.2874C187.357 40.2874 187.458 40.2552 187.534 40.1842L191.362 36.6415C191.521 36.496 191.529 36.2473 191.384 36.0883L191.281 35.9766C191.21 35.9005 191.115 35.8548 191.011 35.8515C191.006 35.8515 191.001 35.8515 190.994 35.8515Z" fill="#303030"/>
<path d="M222.922 78.598C222.745 78.598 222.588 78.471 222.555 78.2899C222.476 77.8313 222.611 77.3998 222.929 77.107C223.246 76.8142 223.684 76.7144 224.133 76.8311C224.333 76.8836 224.451 77.0867 224.399 77.2864C224.346 77.4861 224.142 77.6028 223.944 77.5521C223.747 77.4996 223.559 77.5368 223.432 77.6536C223.304 77.7704 223.252 77.9549 223.287 78.1596C223.322 78.3627 223.187 78.5556 222.985 78.5912C222.963 78.5946 222.941 78.5963 222.92 78.5963L222.922 78.598Z" fill="#303030"/>
<path d="M224.05 77.5556C223.873 77.5556 223.715 77.4287 223.683 77.2476C223.604 76.789 223.739 76.3575 224.057 76.0647C224.374 75.7719 224.812 75.6721 225.261 75.7888C225.461 75.8413 225.579 76.0444 225.527 76.2441C225.474 76.4438 225.272 76.5605 225.072 76.5098C224.874 76.4573 224.687 76.4945 224.56 76.6113C224.432 76.7281 224.379 76.9126 224.415 77.1173C224.45 77.3204 224.315 77.5133 224.113 77.5489C224.091 77.5523 224.069 77.554 224.048 77.554L224.05 77.5556Z" fill="#303030"/>
<path d="M225.176 76.5118C224.999 76.5118 224.842 76.3849 224.81 76.2038C224.73 75.7452 224.866 75.3136 225.183 75.0209C225.501 74.7281 225.938 74.6282 226.388 74.745C226.587 74.7975 226.705 75.0005 226.653 75.2002C226.601 75.3999 226.398 75.5167 226.199 75.466C226.001 75.4135 225.813 75.4507 225.687 75.5675C225.56 75.6843 225.506 75.8687 225.541 76.0735C225.577 76.2766 225.442 76.4695 225.239 76.5051C225.217 76.5085 225.195 76.5101 225.175 76.5101L225.176 76.5118Z" fill="#303030"/>
<path d="M198.273 55.7302C204.501 52.4684 211.442 49.1085 218.267 50.78C219.034 50.9678 219.918 51.3688 220.01 52.1555C220.138 53.2382 218.736 53.7593 217.658 53.8963C215.885 54.123 214.112 54.3497 212.341 54.5764L212.06 54.6458C213.362 55.2295 214.693 55.9519 215.434 57.1734C216.175 58.3965 216.057 60.2457 214.838 60.9884C215.655 61.7649 216.033 62.9779 215.802 64.0827C215.569 65.1874 214.735 66.145 213.673 66.524C214.174 67.199 214.022 68.1769 213.61 68.9094C212.942 70.1004 211.638 70.9057 210.276 70.9683C208.967 71.0292 207.652 70.3999 206.863 69.3544C206.88 69.3205 206.901 69.2867 206.917 69.2512L206.767 69.2241C206.798 69.2681 206.831 69.3104 206.863 69.3527C205.459 72.1069 203.671 74.6632 201.563 76.9235C201.113 77.4074 200.643 77.8743 200.167 78.3345L190.104 60.8192C192.751 58.9413 195.436 57.2123 198.271 55.7286L198.273 55.7302Z" fill="white"/>
<path d="M200.169 78.7086C200.071 78.7086 199.975 78.6697 199.9 78.5935C199.757 78.4447 199.762 78.2095 199.91 78.0674C200.461 77.5362 200.901 77.0912 201.293 76.67C203.326 74.4909 205.053 72.0395 206.431 69.3817C206.377 69.2666 206.385 69.1313 206.455 69.0213C206.536 68.8944 206.684 68.8301 206.833 68.8572L206.983 68.8843C207.098 68.9046 207.198 68.979 207.25 69.0856C207.282 69.1499 207.294 69.2209 207.287 69.2886C208.017 70.1514 209.131 70.6539 210.259 70.5964C211.491 70.5388 212.68 69.8046 213.284 68.7269C213.593 68.1754 213.803 67.3244 213.372 66.7458C213.301 66.6511 213.281 66.5276 213.315 66.4142C213.349 66.3009 213.435 66.2112 213.546 66.1706C214.488 65.8356 215.229 64.9847 215.435 64.0051C215.641 63.0239 215.305 61.9462 214.579 61.2576C214.495 61.1781 214.453 61.0631 214.465 60.948C214.476 60.833 214.542 60.7298 214.642 60.6689C215.675 60.0395 215.743 58.4069 215.113 57.3664C214.424 56.2279 213.165 55.5495 211.905 54.9844C211.76 54.9184 211.672 54.7695 211.687 54.6122C211.701 54.4532 211.814 54.3212 211.967 54.284L212.248 54.2146C212.261 54.2112 212.276 54.2079 212.292 54.2062L217.608 53.5261C218.409 53.4246 219.736 53.0287 219.638 52.198C219.564 51.572 218.691 51.2675 218.176 51.1406C211.669 49.5469 205.128 52.5583 198.441 56.0587C195.878 57.4003 193.297 59.0109 190.317 61.124C190.148 61.2424 189.917 61.2035 189.798 61.036C189.68 60.8685 189.719 60.635 189.886 60.5166C192.893 58.3832 195.502 56.7574 198.095 55.3989C204.913 51.8292 211.591 48.7619 218.35 50.4165C219.562 50.7143 220.28 51.3149 220.374 52.11C220.529 53.4279 219.03 54.0945 217.7 54.2637L213.286 54.8271C214.264 55.3532 215.162 56.013 215.746 56.9773C216.486 58.1971 216.474 60.0497 215.385 61.0343C216.086 61.8903 216.388 63.0712 216.16 64.1557C215.932 65.2401 215.179 66.1994 214.194 66.6984C214.529 67.502 214.287 68.4528 213.929 69.089C213.202 70.3866 211.772 71.2697 210.289 71.3391C209.05 71.3966 207.811 70.8958 206.936 70.0093C205.551 72.6164 203.836 75.0255 201.83 77.1775C201.428 77.6072 200.981 78.0606 200.42 78.602C200.348 78.6714 200.255 78.7069 200.162 78.7069L200.169 78.7086Z" fill="#303030"/>
<path d="M214.141 60.8871C214.065 60.8871 213.989 60.8634 213.923 60.816C212.878 60.0581 211.738 59.4322 210.537 58.9568C210.347 58.8806 210.252 58.6641 210.328 58.4729C210.404 58.28 210.62 58.187 210.811 58.2631C212.069 58.7605 213.263 59.4169 214.36 60.2121C214.527 60.3322 214.563 60.5657 214.443 60.7331C214.37 60.833 214.257 60.8871 214.141 60.8871Z" fill="#303030"/>
<path d="M213.136 66.6946C213.052 66.6946 212.965 66.6658 212.896 66.6066C212.108 65.9367 211.233 65.3733 210.298 64.9351C210.112 64.8471 210.033 64.6255 210.119 64.4394C210.207 64.2533 210.426 64.1721 210.613 64.2601C211.61 64.727 212.538 65.3259 213.377 66.0382C213.534 66.1718 213.553 66.407 213.421 66.5626C213.347 66.6489 213.242 66.6946 213.138 66.6946H213.136Z" fill="#303030"/>
<path d="M206.76 69.4204C206.559 69.4204 206.394 69.2597 206.389 69.0566C206.384 68.8502 206.546 68.6794 206.752 68.6743L209.479 68.6049C209.681 68.6083 209.853 68.7623 209.86 68.9687C209.865 69.1751 209.703 69.3459 209.497 69.351L206.77 69.4204H206.76Z" fill="#303030"/>
<path d="M99.1666 103.123C103.452 90.3192 120.338 55.0501 122.943 49.6092C123.86 47.6958 124.804 45.7418 126.301 44.2412C129.751 40.7865 135.184 40.5378 140.055 40.7205C146.176 40.9489 155.803 40.9015 161.233 43.7404C165.698 46.0751 174.477 62.6108 177.424 68.2952C181.853 65.475 186.192 63.5971 190.104 60.8225L200.167 78.3378C199.362 79.116 198.531 79.8672 197.683 80.5997C195.671 82.3406 193.577 84.0121 191.244 85.2877C185.611 88.3651 178.666 88.92 172.618 86.7765C166.571 84.633 161.517 79.8249 159.065 73.8816L159.005 73.7598C157.905 79.6236 156.472 85.4248 154.716 91.1244C154.508 91.8012 154.269 92.5168 153.72 92.9617C153.063 93.4947 152.141 93.5048 151.297 93.4896C149.524 93.4575 147.75 93.427 145.977 93.3949C143.935 98.0101 141.894 102.625 139.854 107.241C139.009 109.154 138.124 111.123 136.606 112.561C134.762 114.309 132.199 115.065 129.697 115.485C122.725 116.654 115.592 115.657 108.607 114.571C106.474 114.24 104.303 113.888 102.376 112.91C100.45 111.932 98.7749 110.213 98.4017 108.081C98.1096 106.418 98.628 104.728 99.1649 103.128L99.1666 103.123Z" fill="#60BFE1"/>
<path d="M158.855 73.978C158.816 73.978 158.777 73.9729 158.738 73.9594C158.542 73.8951 158.436 73.6853 158.5 73.489C159.287 71.0816 160.113 68.6505 160.952 66.265C161.045 66.0028 161.171 65.6425 161.48 65.4056C161.975 65.0283 162.65 65.1197 163.489 65.6746C163.662 65.788 163.707 66.0197 163.596 66.1906C163.483 66.3632 163.253 66.4088 163.081 66.2972C162.704 66.0485 162.199 65.7947 161.933 65.9994C161.809 66.0942 161.733 66.287 161.654 66.5137C160.817 68.8941 159.993 71.3202 159.208 73.7208C159.157 73.8782 159.01 73.978 158.855 73.978Z" fill="#303030"/>
<path d="M163.15 12.6453C163.15 12.6453 169.63 26.4115 163.764 31.6798C157.897 36.9498 147.265 29.0609 147.265 29.0609C147.265 29.0609 156.361 8.68138 163.15 12.6436V12.6453Z" fill="white"/>
<path d="M158.682 33.882C153.223 33.882 147.375 29.6051 147.045 29.3598C146.905 29.2549 146.856 29.0671 146.927 28.9081C147.199 28.3007 153.639 14.005 159.867 11.9968C161.112 11.5941 162.282 11.7041 163.339 12.3216C163.405 12.3605 163.455 12.4164 163.487 12.484C163.758 13.0559 170.018 26.5632 164.013 31.9567C162.452 33.3592 160.59 33.882 158.682 33.882ZM147.733 28.9351C149.34 30.0484 158.422 35.9747 163.516 31.4018C168.847 26.614 163.442 14.1928 162.863 12.9104C162.012 12.4468 161.105 12.3825 160.094 12.7074C154.637 14.4668 148.673 26.9084 147.733 28.9368V28.9351Z" fill="#303030"/>
<path d="M155.987 4.32501C155.987 4.32501 164.227 4.44681 164.953 10.1567C165.681 15.8665 156.713 21.4545 156.713 21.4545C156.713 21.4545 150.898 21.3327 152.837 25.5859C152.837 25.5859 154.653 31.9843 149.686 35.3053C149.686 35.3053 153.119 39.5975 149.202 44.4174C149.202 44.4174 152.715 49.3609 147.142 52.6413C147.142 52.6413 150.777 58.8739 143.91 60.899C143.91 60.899 145.566 68.1044 136.114 69.5627C136.114 69.5627 134.338 65.1928 140.275 60.0903C140.275 60.0903 136.236 54.015 141.566 52.3148C141.566 52.3148 137.084 47.0905 141.323 44.1755C141.323 44.1755 136.881 40.4095 141.445 34.5779C141.445 34.5779 138.9 32.1484 140.233 26.195C140.233 26.195 141.485 33.4038 136.396 34.4967C136.396 34.4967 140.113 40.4434 132.842 42.9946C132.842 42.9946 135.387 48.9954 129.207 49.9665C129.207 49.9665 130.701 55.272 125.734 56.1213C125.734 56.1213 123.997 66.893 114.79 67.1367C114.79 67.1367 117.697 57.2751 122.545 54.8457C122.545 54.8457 119.394 49.953 124.483 48.0091C124.483 48.0091 121.575 41.6581 127.633 40.3215C127.633 40.3215 123.757 34.8215 129.45 32.2702C129.45 32.2702 126.784 24.8601 133.448 20.1214C133.448 20.1214 131.632 5.78503 146.897 2.99186C154.589 1.58428 155.984 4.32838 155.984 4.32838L155.987 4.32501Z" fill="#303030"/>
</svg>
