<svg width="25" height="25" viewBox="0 0 25 25" fill="none" xmlns="http://www.w3.org/2000/svg">
<g id="vuesax/outline/call">
<g id="call">
<path id="Vector" d="M17.95 23.25C16.82 23.25 15.63 22.98 14.4 22.46C13.2 21.95 11.99 21.25 10.81 20.4C9.64 19.54 8.51 18.58 7.44 17.53C6.38 16.46 5.42 15.33 4.57 14.17C3.71 12.97 3.02 11.77 2.53 10.61C2.01 9.37 1.75 8.17 1.75 7.04C1.75 6.26 1.89 5.52 2.16 4.83C2.44 4.12 2.89 3.46 3.5 2.89C4.27 2.13 5.15 1.75 6.09 1.75C6.48 1.75 6.88 1.84 7.22 2C7.61 2.18 7.94 2.45 8.18 2.81L10.5 6.08C10.71 6.37 10.87 6.65 10.98 6.93C11.11 7.23 11.18 7.53 11.18 7.82C11.18 8.2 11.07 8.57 10.86 8.92C10.71 9.19 10.48 9.48 10.19 9.77L9.51 10.48C9.52 10.51 9.53 10.53 9.54 10.55C9.66 10.76 9.9 11.12 10.36 11.66C10.85 12.22 11.31 12.73 11.77 13.2C12.36 13.78 12.85 14.24 13.31 14.62C13.88 15.1 14.25 15.34 14.47 15.45L14.45 15.5L15.18 14.78C15.49 14.47 15.79 14.24 16.08 14.09C16.63 13.75 17.33 13.69 18.03 13.98C18.29 14.09 18.57 14.24 18.87 14.45L22.19 16.81C22.56 17.06 22.83 17.38 22.99 17.76C23.14 18.14 23.21 18.49 23.21 18.84C23.21 19.32 23.1 19.8 22.89 20.25C22.68 20.7 22.42 21.09 22.09 21.45C21.52 22.08 20.9 22.53 20.18 22.82C19.49 23.1 18.74 23.25 17.95 23.25ZM6.09 3.25C5.54 3.25 5.03 3.49 4.54 3.97C4.08 4.4 3.76 4.87 3.56 5.38C3.35 5.9 3.25 6.45 3.25 7.04C3.25 7.97 3.47 8.98 3.91 10.02C4.36 11.08 4.99 12.18 5.79 13.28C6.59 14.38 7.5 15.45 8.5 16.46C9.5 17.45 10.58 18.37 11.69 19.18C12.77 19.97 13.88 20.61 14.98 21.07C16.69 21.8 18.29 21.97 19.61 21.42C20.12 21.21 20.57 20.89 20.98 20.43C21.21 20.18 21.39 19.91 21.54 19.59C21.66 19.34 21.72 19.08 21.72 18.82C21.72 18.66 21.69 18.5 21.61 18.32C21.58 18.26 21.52 18.15 21.33 18.02L18.01 15.66C17.81 15.52 17.63 15.42 17.46 15.35C17.24 15.26 17.15 15.17 16.81 15.38C16.61 15.48 16.43 15.63 16.23 15.83L15.47 16.58C15.08 16.96 14.48 17.05 14.02 16.88L13.75 16.76C13.34 16.54 12.86 16.2 12.33 15.75C11.85 15.34 11.33 14.86 10.7 14.24C10.21 13.74 9.72 13.21 9.21 12.62C8.74 12.07 8.4 11.6 8.19 11.21L8.07 10.91C8.01 10.68 7.99 10.55 7.99 10.41C7.99 10.05 8.12 9.73 8.37 9.48L9.12 8.7C9.32 8.5 9.47 8.31 9.57 8.14C9.65 8.01 9.68 7.9 9.68 7.8C9.68 7.72 9.65 7.6 9.6 7.48C9.53 7.32 9.42 7.14 9.28 6.95L6.96 3.67C6.86 3.53 6.74 3.43 6.59 3.36C6.43 3.29 6.26 3.25 6.09 3.25ZM14.45 15.51L14.29 16.19L14.56 15.49C14.51 15.48 14.47 15.49 14.45 15.51Z" fill="#3F89F0"/>
</g>
</g>
</svg>
