<svg width="16" height="17" viewBox="0 0 16 17" fill="none" xmlns="http://www.w3.org/2000/svg">
<g id="Close">
<path id="Vector" d="M15.7733 1.86265C16.0756 1.56031 16.0756 1.07011 15.7733 0.767772C15.4709 0.46543 14.9807 0.46543 14.6784 0.767772L8.00001 7.44616L1.32163 0.767775C1.01929 0.465433 0.529097 0.465433 0.226756 0.767775C-0.0755853 1.07012 -0.0755853 1.56031 0.226756 1.86265L6.90514 8.54103L0.226784 15.2194C-0.0755575 15.5217 -0.0755575 16.0119 0.226784 16.3143C0.529125 16.6166 1.01932 16.6166 1.32166 16.3143L8.00001 9.6359L14.6784 16.3143C14.9807 16.6166 15.4709 16.6166 15.7732 16.3143C16.0756 16.0119 16.0756 15.5217 15.7732 15.2194L9.09489 8.54103L15.7733 1.86265Z" fill="white"/>
</g>
</svg>
