<svg width="229" height="19" viewBox="0 0 229 19" fill="none" xmlns="http://www.w3.org/2000/svg">
<path d="M2.08774 18.1092H0C0.863894 15.96 1.48782 13.884 1.72779 11.6126L2.83165 0.964043H6.67118L11.3986 14.8609L15.7181 0.964043H18.1418L20.5175 18.1092H16.678L14.9022 5.11601L10.8707 18.1092H8.66294L3.11962 1.79444L2.13574 11.637C1.87177 14.2015 1.79978 16.0332 2.08774 18.1092Z" fill="#303030"/>
<path d="M25.8681 18.1092H22.0285L28.7477 0.964043H32.5873L39.3064 18.1092H37.6266C37.5307 16.7904 37.3867 14.3236 36.4268 11.8569L35.9708 10.6113H28.7957L25.8681 18.1092ZM32.3713 1.50136L28.9637 10.1961H35.8029L32.3713 1.50136Z" fill="#303030"/>
<path d="M51.8513 11.2707L55.1389 18.1092H51.2993L47.8438 11.1486C47.5798 10.6601 47.2438 10.367 46.7639 10.367C46.308 10.367 45.636 10.6601 44.9401 11.2218V18.1092H41.1006V0.964043H49.4276C52.8591 0.964043 54.395 3.0156 54.395 5.23813C54.395 7.21642 53.0751 9.48779 50.3395 10.0495C51.1074 10.2938 51.5633 10.6601 51.8513 11.2707ZM48.2037 9.6099C49.6435 9.65875 50.7954 7.92469 50.7954 5.72659C50.7954 3.33311 49.5715 1.37924 47.1718 1.37924H44.9401V10.8066C45.732 10.1961 46.9559 9.58548 48.2037 9.6099Z" fill="#303030"/>
<path d="M67.9274 0.964043H70.3271L65.4317 10.4891V18.1092H61.5922V10.4891L56.6968 0.964043H60.5363L65.2158 10.0984L67.6155 5.40909C68.2634 4.09023 68.2874 2.84464 67.9274 0.964043Z" fill="#303030"/>
<path d="M76.155 18.1092H72.3155V0.964043H80.0906C84.2421 0.964043 85.9938 3.4308 85.9938 5.87313C85.9938 9.43894 82.2023 10.6845 79.7786 10.7334H76.155V18.1092ZM76.155 1.37924V10.2938H78.1228C80.9545 10.2938 82.1783 7.94912 82.1783 5.84871C82.1783 3.79715 81.0264 1.37924 78.1708 1.37924H76.155Z" fill="#303030"/>
<path d="M98.744 11.2707L102.032 18.1092H98.192L94.7365 11.1486C94.4725 10.6601 94.1365 10.367 93.6566 10.367C93.2006 10.367 92.5287 10.6601 91.8328 11.2218V18.1092H87.9933V0.964043H96.3203C99.7518 0.964043 101.288 3.0156 101.288 5.23813C101.288 7.21642 99.9678 9.48779 97.2321 10.0495C98.0001 10.2938 98.456 10.6601 98.744 11.2707ZM95.0964 9.6099C96.5362 9.65875 97.6881 7.92469 97.6881 5.72659C97.6881 3.33311 96.4642 1.37924 94.0645 1.37924H91.8328V10.8066C92.6247 10.1961 93.8486 9.58548 95.0964 9.6099Z" fill="#303030"/>
<path d="M111.808 18.5C105.976 18.5 103.241 14.5434 103.241 9.6099C103.241 4.04138 105.976 0.573269 111.808 0.573269C117.639 0.573269 120.375 4.04138 120.375 9.6099C120.375 14.5434 117.639 18.5 111.808 18.5ZM111.808 18.0848C115.407 18.0848 116.535 14.1771 116.535 9.6099C116.535 5.14043 115.407 0.988466 111.808 0.988466C108.016 0.988466 107.08 5.14043 107.08 9.6099C107.08 14.1771 108.376 18.0848 111.808 18.0848Z" fill="#303030"/>
<path d="M134.645 18.4756C132.461 18.4756 130.037 18.0604 127.493 17.1811L127.661 14.7388C130.661 16.9858 133.253 17.9138 135.172 17.9138C137.836 17.9138 139.54 16.0332 138.82 13.9328C137.5 10.1716 127.397 9.04817 127.277 4.92062C127.205 1.9654 130.709 0.548846 134.956 0.548846C136.972 0.548846 139.228 0.890773 141.436 1.52578L141.244 3.96811C138.34 1.98982 135.7 1.08616 133.925 1.08616C131.861 1.08616 130.133 1.69674 130.181 3.38195C130.277 6.43487 142.132 8.19335 142.252 13.3467C142.348 16.6194 139.252 18.4756 134.645 18.4756Z" fill="#303030"/>
<path d="M153.899 18.5C148.259 18.5 144.228 15.4227 144.228 9.63433C144.228 3.57734 148.523 0.5 153.851 0.5C155.627 0.5 157.522 0.841927 159.418 1.50136L159.178 4.01696C157.522 2.74695 156.178 1.03731 154.883 1.03731C150.539 1.03731 148.067 4.1635 148.067 9.63433C148.067 14.055 150.971 17.9871 154.979 17.9871C156.274 17.9871 157.858 15.9844 159.082 15.0319L159.418 17.6452C157.474 18.2069 155.627 18.5 153.899 18.5Z" fill="#303030"/>
<path d="M172.565 8.19335V0.964043H176.405V18.1092H172.565V8.63297H165.558V18.1092H161.719V0.964043H165.558V8.19335H172.565Z" fill="#303030"/>
<path d="M187.009 18.5C181.178 18.5 178.443 14.5434 178.443 9.6099C178.443 4.04138 181.178 0.573269 187.009 0.573269C192.841 0.573269 195.576 4.04138 195.576 9.6099C195.576 14.5434 192.841 18.5 187.009 18.5ZM187.009 18.0848C190.609 18.0848 191.737 14.1771 191.737 9.6099C191.737 5.14043 190.609 0.988466 187.009 0.988466C183.218 0.988466 182.282 5.14043 182.282 9.6099C182.282 14.1771 183.578 18.0848 187.009 18.0848Z" fill="#303030"/>
<path d="M206.015 18.5C200.184 18.5 197.448 14.5434 197.448 9.6099C197.448 4.04138 200.184 0.573269 206.015 0.573269C211.846 0.573269 214.582 4.04138 214.582 9.6099C214.582 14.5434 211.846 18.5 206.015 18.5ZM206.015 18.0848C209.615 18.0848 210.742 14.1771 210.742 9.6099C210.742 5.14043 209.615 0.988466 206.015 0.988466C202.223 0.988466 201.288 5.14043 201.288 9.6099C201.288 14.1771 202.583 18.0848 206.015 18.0848Z" fill="#303030"/>
<path d="M229 18.1092H216.977V0.964043H220.817V17.694C224.441 17.694 226.432 17.1811 229 15.6669V18.1092Z" fill="#303030"/>
</svg>
