<svg width="44" height="44" viewBox="0 0 44 44" fill="none" xmlns="http://www.w3.org/2000/svg">
<rect x="44" width="44" height="44" rx="22" transform="rotate(90 44 0)" fill="#60BFE1"/>
<path d="M30.2949 19.7959L22.7949 27.2959C22.6904 27.4007 22.5662 27.484 22.4295 27.5407C22.2927 27.5975 22.1461 27.6267 21.998 27.6267C21.85 27.6267 21.7034 27.5975 21.5666 27.5407C21.4299 27.484 21.3057 27.4007 21.2012 27.2959L13.7012 19.7959C13.4898 19.5845 13.3711 19.2979 13.3711 18.999C13.3711 18.7001 13.4898 18.4135 13.7012 18.2021C13.9125 17.9908 14.1992 17.872 14.498 17.872C14.7969 17.872 15.0836 17.9908 15.2949 18.2021L21.999 24.9062L28.703 18.2012C28.9144 17.9898 29.201 17.8711 29.4999 17.8711C29.7988 17.8711 30.0854 17.9898 30.2968 18.2012C30.5081 18.4125 30.6269 18.6992 30.6269 18.998C30.6269 19.2969 30.5081 19.5836 30.2968 19.7949L30.2949 19.7959Z" fill="white"/>
</svg>
