<svg width="49" height="48" viewBox="0 0 49 48" fill="none" xmlns="http://www.w3.org/2000/svg">
<g id="&#208;&#146;&#208;&#186;">
<path id="Vector" d="M24.5 48C37.7548 48 48.5 37.2548 48.5 24C48.5 10.7452 37.7548 0 24.5 0C11.2452 0 0.5 10.7452 0.5 24C0.5 37.2548 11.2452 48 24.5 48Z" fill="#60BFE1"/>
<path id="path2442" d="M24.1906 33.4807H25.9211C25.9211 33.4807 26.4361 33.4189 26.7039 33.1305C26.9512 32.8627 26.9512 32.3682 26.9512 32.3682C26.9512 32.3682 26.9099 30.0403 28.0018 29.7107C29.073 29.3811 30.4327 31.9562 31.8748 32.9451C32.9666 33.6867 33.8112 33.5425 33.8112 33.5425L37.6842 33.4807C37.6842 33.4807 39.7031 33.3571 38.7554 31.7708C38.673 31.6472 38.1992 30.5966 35.8713 28.4335C33.4404 26.188 33.77 26.5382 36.6954 22.6446C38.467 20.2755 39.1881 18.8129 38.9615 18.1948C38.7554 17.5974 37.437 17.7622 37.437 17.7622H33.0696C33.0696 17.7622 32.74 17.7622 32.5134 17.8858C32.2868 18.03 32.122 18.3597 32.122 18.3597C32.122 18.3597 31.4215 20.1931 30.5151 21.7588C28.5786 25.0549 27.7958 25.2197 27.4868 25.0137C26.7451 24.5399 26.9305 23.0979 26.9305 22.0678C26.9305 18.8747 27.425 17.5356 25.9829 17.206C25.5091 17.0824 25.1589 17.0206 23.9434 17C22.3778 17 21.0799 17 20.3177 17.3708C19.8233 17.618 19.4318 18.1536 19.679 18.1948C19.9675 18.2361 20.6267 18.3803 20.9563 18.8335C21.4095 19.4515 21.3889 20.8112 21.3889 20.8112C21.3889 20.8112 21.6361 24.5811 20.7915 25.0343C20.1941 25.3639 19.3906 24.7047 17.6602 21.7176C16.7743 20.1931 16.0945 18.4833 16.0945 18.4833C16.0945 18.4833 15.9709 18.1742 15.7443 17.9888C15.4559 17.7828 15.0645 17.721 15.0645 17.721H10.9237C10.9237 17.721 10.3057 17.7622 10.079 18.03C9.87304 18.2773 10.079 18.7717 10.079 18.7717C10.079 18.7717 13.3134 26.3528 17.0009 30.1845C20.3589 33.6867 24.1906 33.4601 24.1906 33.4601" fill="white"/>
</g>
</svg>
