<svg width="48" height="48" viewBox="0 0 48 48" fill="none" xmlns="http://www.w3.org/2000/svg">
<g id="&#208;&#146;&#208;&#186;">
<path id="Vector" d="M24 48C37.2548 48 48 37.2548 48 24C48 10.7452 37.2548 0 24 0C10.7452 0 0 10.7452 0 24C0 37.2548 10.7452 48 24 48Z" fill="#3F89F0"/>
<path id="path2442" d="M23.6906 32.1985H25.4211C25.4211 32.1985 25.9361 32.1367 26.2039 31.8482C26.4512 31.5804 26.4512 31.086 26.4512 31.086C26.4512 31.086 26.4099 28.7581 27.5018 28.4285C28.573 28.0989 29.9327 30.674 31.3748 31.6628C32.4666 32.4045 33.3112 32.2603 33.3112 32.2603L37.1842 32.1985C37.1842 32.1985 39.2031 32.0749 38.2554 30.4886C38.173 30.365 37.6992 29.3143 35.3713 27.1512C32.9404 24.9058 33.27 25.256 36.1954 21.3624C37.967 18.9933 38.6881 17.5306 38.4615 16.9126C38.2554 16.3152 36.937 16.48 36.937 16.48H32.5696C32.5696 16.48 32.24 16.48 32.0134 16.6036C31.7868 16.7478 31.622 17.0774 31.622 17.0774C31.622 17.0774 30.9215 18.9109 30.0151 20.4766C28.0786 23.7727 27.2958 23.9375 26.9868 23.7315C26.2451 23.2577 26.4305 21.8156 26.4305 20.7856C26.4305 17.5925 26.925 16.2534 25.4829 15.9238C25.0091 15.8002 24.6589 15.7384 23.4434 15.7178C21.8778 15.7178 20.5799 15.7178 19.8177 16.0886C19.3233 16.3358 18.9318 16.8714 19.179 16.9126C19.4675 16.9538 20.1267 17.098 20.4563 17.5513C20.9095 18.1693 20.8889 19.5289 20.8889 19.5289C20.8889 19.5289 21.1361 23.2989 20.2915 23.7521C19.6941 24.0817 18.8906 23.4225 17.1602 20.4354C16.2743 18.9109 15.5945 17.201 15.5945 17.201C15.5945 17.201 15.4709 16.892 15.2443 16.7066C14.9559 16.5006 14.5645 16.4388 14.5645 16.4388H10.4237C10.4237 16.4388 9.80566 16.48 9.57905 16.7478C9.37304 16.995 9.57905 17.4894 9.57905 17.4894C9.57905 17.4894 12.8134 25.0706 16.5009 28.9023C19.8589 32.4045 23.6906 32.1779 23.6906 32.1779" fill="white"/>
</g>
</svg>
