<svg width="48" height="48" viewBox="0 0 48 48" fill="none" xmlns="http://www.w3.org/2000/svg">
<path d="M24 48C37.2548 48 48 37.2548 48 24C48 10.7452 37.2548 0 24 0C10.7452 0 0 10.7452 0 24C0 37.2548 10.7452 48 24 48Z" fill="#3F89F0"/>
<g clip-path="url(#clip0_2_1308)">
<path d="M28.7171 12H18.5331C14.9293 12 12 14.9317 12 18.5331V28.7195C12 32.3209 14.9293 35.2502 18.5331 35.2502H28.7171C32.3209 35.2502 35.2502 32.3209 35.2502 28.7195V18.5331C35.25 14.9317 32.3209 12 28.7171 12ZM33.1393 28.7195C33.1393 31.1552 31.1551 33.1395 28.7171 33.1395H18.5331C16.0949 33.1395 14.1109 31.1552 14.1109 28.7195V18.5331C14.1109 16.0949 16.0951 14.1107 18.5331 14.1107H28.7171C31.1552 14.1107 33.1393 16.0949 33.1393 18.5331V28.7195Z" fill="white"/>
<path d="M30.0125 18.732C30.798 18.7141 31.4203 18.0629 31.4025 17.2774C31.3847 16.4919 30.7334 15.8696 29.9479 15.8874C29.1624 15.9052 28.5401 16.5565 28.5579 17.342C28.5758 18.1275 29.227 18.7498 30.0125 18.732Z" fill="white"/>
<path d="M23.6251 17.6772C20.2643 17.6772 17.5287 20.3783 17.5287 23.6995C17.5287 27.0206 20.2644 29.7215 23.6251 29.7215C26.9858 29.7215 29.7215 27.0206 29.7215 23.6995C29.7215 20.3783 26.9858 17.6772 23.6251 17.6772ZM23.6251 27.6108C21.4277 27.6108 19.6418 25.8548 19.6418 23.6995C19.6418 21.5442 21.4277 19.7881 23.6251 19.7881C25.8225 19.7881 27.6108 21.5416 27.6108 23.6995C27.6108 25.8574 25.8225 27.6108 23.6251 27.6108Z" fill="white"/>
</g>
<defs>
<clipPath id="clip0_2_1308">
<rect width="23.25" height="23.25" fill="white" transform="translate(12 12)"/>
</clipPath>
</defs>
</svg>
