<svg width="49" height="48" viewBox="0 0 49 48" fill="none" xmlns="http://www.w3.org/2000/svg">
<path d="M24.5 48C37.7548 48 48.5 37.2548 48.5 24C48.5 10.7452 37.7548 0 24.5 0C11.2452 0 0.5 10.7452 0.5 24C0.5 37.2548 11.2452 48 24.5 48Z" fill="#60BFE1"/>
<g clip-path="url(#clip0_1017_841)">
<path d="M29.7171 12H19.5331C15.9293 12 13 14.9317 13 18.5331V28.7195C13 32.3209 15.9293 35.2502 19.5331 35.2502H29.7171C33.3209 35.2502 36.2502 32.3209 36.2502 28.7195V18.5331C36.25 14.9317 33.3209 12 29.7171 12ZM34.1393 28.7195C34.1393 31.1552 32.1551 33.1395 29.7171 33.1395H19.5331C17.0949 33.1395 15.1109 31.1552 15.1109 28.7195V18.5331C15.1109 16.0949 17.0951 14.1107 19.5331 14.1107H29.7171C32.1552 14.1107 34.1393 16.0949 34.1393 18.5331V28.7195Z" fill="white"/>
<path d="M31.0125 18.732C31.798 18.7141 32.4203 18.0629 32.4025 17.2774C32.3847 16.4919 31.7334 15.8696 30.9479 15.8874C30.1624 15.9052 29.5401 16.5565 29.5579 17.342C29.5758 18.1275 30.227 18.7498 31.0125 18.732Z" fill="white"/>
<path d="M24.6251 17.6772C21.2643 17.6772 18.5287 20.3783 18.5287 23.6995C18.5287 27.0206 21.2644 29.7215 24.6251 29.7215C27.9858 29.7215 30.7215 27.0206 30.7215 23.6995C30.7215 20.3783 27.9858 17.6772 24.6251 17.6772ZM24.6251 27.6108C22.4277 27.6108 20.6418 25.8548 20.6418 23.6995C20.6418 21.5442 22.4277 19.7881 24.6251 19.7881C26.8225 19.7881 28.6108 21.5416 28.6108 23.6995C28.6108 25.8574 26.8225 27.6108 24.6251 27.6108Z" fill="white"/>
</g>
<defs>
<clipPath id="clip0_1017_841">
<rect width="23.25" height="23.25" fill="white" transform="translate(13 12)"/>
</clipPath>
</defs>
</svg>
